<svg width="15" height="15" viewBox="0 0 15 15" fill="none" xmlns="http://www.w3.org/2000/svg">
<path d="M15 7.49882C15 11.6407 11.6436 15 7.5 15C3.35644 15 0 11.643 0 7.49882C0 3.35461 3.35881 0 7.5 0C11.6412 0 15 3.35697 15 7.49882Z" fill="#321D47"/>
<path d="M10.4357 9.22709H8.83786L8.53767 8.49423H6.50962L6.20943 9.22709H4.61157L6.5238 4.87012H8.52112L10.4357 9.22709ZM7.52601 6.0025L6.99654 7.30274H8.05311L7.52601 6.0025Z" fill="white"/>
<path d="M7.52361 3.94601C8.13586 3.94601 8.63218 3.44961 8.63218 2.83726C8.63218 2.22492 8.13586 1.72852 7.52361 1.72852C6.91136 1.72852 6.41504 2.22492 6.41504 2.83726C6.41504 3.44961 6.91136 3.94601 7.52361 3.94601Z" fill="#E6007A"/>
<path d="M7.52361 13.2839C8.13586 13.2839 8.63218 12.7875 8.63218 12.1752C8.63218 11.5628 8.13586 11.0664 7.52361 11.0664C6.91136 11.0664 6.41504 11.5628 6.41504 12.1752C6.41504 12.7875 6.91136 13.2839 7.52361 13.2839Z" fill="#E6007A"/>
<path d="M3.42962 6.16574C4.04187 6.16574 4.53819 5.66933 4.53819 5.05699C4.53819 4.44465 4.04187 3.94824 3.42962 3.94824C2.81737 3.94824 2.32104 4.44465 2.32104 5.05699C2.32104 5.66933 2.81737 6.16574 3.42962 6.16574Z" fill="#E6007A"/>
<path d="M11.62 6.16574C12.2323 6.16574 12.7286 5.66933 12.7286 5.05699C12.7286 4.44465 12.2323 3.94824 11.62 3.94824C11.0078 3.94824 10.5115 4.44465 10.5115 5.05699C10.5115 5.66933 11.0078 6.16574 11.62 6.16574Z" fill="#E6007A"/>
<path d="M3.42962 11.1013C4.04187 11.1013 4.53819 10.6049 4.53819 9.99254C4.53819 9.38019 4.04187 8.88379 3.42962 8.88379C2.81737 8.88379 2.32104 9.38019 2.32104 9.99254C2.32104 10.6049 2.81737 11.1013 3.42962 11.1013Z" fill="#E6007A"/>
<path d="M11.62 11.1013C12.2323 11.1013 12.7286 10.6049 12.7286 9.99254C12.7286 9.38019 12.2323 8.88379 11.62 8.88379C11.0078 8.88379 10.5115 9.38019 10.5115 9.99254C10.5115 10.6049 11.0078 11.1013 11.62 11.1013Z" fill="#E6007A"/>
</svg>
