<svg width="15" height="15" viewBox="0 0 15 15" fill="none" xmlns="http://www.w3.org/2000/svg">
<mask id="mask0_2491_99" style="mask-type:luminance" maskUnits="userSpaceOnUse" x="0" y="0" width="15" height="15">
<path d="M15 7.5C15 3.35787 11.6421 0 7.5 0C3.35787 0 0 3.35787 0 7.5C0 11.6421 3.35787 15 7.5 15C11.6421 15 15 11.6421 15 7.5Z" fill="white"/>
</mask>
<g mask="url(#mask0_2491_99)">
<path d="M7.49956 1.23371e-08C8.98297 -8.5052e-05 10.4331 0.43972 11.6665 1.2638C12.9 2.08787 13.8613 3.25921 14.4291 4.62968C14.9968 6.00014 15.1453 7.50818 14.8559 8.96308C14.5665 10.418 13.8522 11.7544 12.8033 12.8033C11.7544 13.8522 10.418 14.5665 8.96308 14.8559C7.50818 15.1453 6.00014 14.9968 4.62968 14.4291C3.25921 13.8613 2.08787 12.9 1.2638 11.6665C0.43972 10.4331 -8.5052e-05 8.98297 1.23371e-08 7.49956C1.23371e-08 6.51469 0.193983 5.53951 0.570872 4.6296C0.947763 3.71972 1.50017 2.89297 2.19657 2.19657C2.89297 1.50017 3.71972 0.947759 4.6296 0.570872C5.53951 0.193982 6.51469 1.23371e-08 7.49956 1.23371e-08ZM5.05277 7.49956C5.05277 11.124 7.49956 14.062 7.49956 14.062C7.49956 14.062 9.9464 11.124 9.9464 7.49956C9.9464 3.87516 7.49956 0.937606 7.49956 0.937606C7.49956 0.937606 5.05277 3.87559 5.05277 7.49956Z" fill="#4FFFB0"/>
</g>
</svg>
