<svg width="15" height="15" viewBox="0 0 15 15" fill="none" xmlns="http://www.w3.org/2000/svg">
<circle cx="7.5" cy="7.5" r="7.5" fill="black"/>
<mask id="mask0_2588_99" style="mask-type:luminance" maskUnits="userSpaceOnUse" x="2" y="2" width="11" height="11">
<path d="M13 7.5C13 4.46244 10.5376 2 7.5 2C4.46244 2 2 4.46244 2 7.5C2 10.5376 4.46244 13 7.5 13C10.5376 13 13 10.5376 13 7.5Z" fill="white"/>
</mask>
<g mask="url(#mask0_2588_99)">
<path d="M7.49968 2C8.58751 1.99994 9.65093 2.32246 10.5554 2.92679C11.46 3.5311 12.165 4.39009 12.5813 5.3951C12.9976 6.4001 13.1066 7.506 12.8944 8.57292C12.6821 9.63985 12.1583 10.6199 11.3891 11.3891C10.6199 12.1583 9.63985 12.6821 8.57292 12.8944C7.506 13.1066 6.4001 12.9976 5.3951 12.5813C4.39009 12.165 3.5311 11.46 2.92679 10.5554C2.32246 9.65093 1.99994 8.58751 2 7.49968C2 6.77744 2.14225 6.0623 2.41864 5.39504C2.69503 4.72779 3.10012 4.12151 3.61082 3.61082C4.12151 3.10012 4.72779 2.69502 5.39504 2.41864C6.0623 2.14225 6.77744 2 7.49968 2ZM5.70536 7.49968C5.70536 10.1576 7.49968 12.3121 7.49968 12.3121C7.49968 12.3121 9.29403 10.1576 9.29403 7.49968C9.29403 4.84178 7.49968 2.68758 7.49968 2.68758C7.49968 2.68758 5.70536 4.8421 5.70536 7.49968Z" fill="#4FFFB0"/>
</g>
</svg>
