<svg width="8" height="10" viewBox="0 0 8 10" fill="none" xmlns="http://www.w3.org/2000/svg">
<g opacity="0.5">
<path d="M7.662 1.39523L6.7484 0.449866C6.6362 0.334437 6.50212 0.242616 6.35403 0.179787C6.20594 0.116959 6.04682 0.0843877 5.886 0.0839844L4 0.0839844C3.53912 0.0845673 3.09253 0.244319 2.7355 0.536314C2.37847 0.828309 2.13284 1.23469 2.04 1.68697H2C1.46976 1.68761 0.961423 1.89892 0.586488 2.27455C0.211553 2.65019 0.000635143 3.15947 0 3.6907V7.69816C0.000635143 8.22939 0.211553 8.73868 0.586488 9.11431C0.961423 9.48994 1.46976 9.70126 2 9.70189H4.4C4.93024 9.70126 5.43858 9.48994 5.81351 9.11431C6.18845 8.73868 6.39936 8.22939 6.4 7.69816V7.65809C6.85143 7.56507 7.25706 7.31898 7.54851 6.96129C7.83996 6.6036 7.99942 6.15617 8 5.69443V2.23198C8.0006 1.91957 7.8793 1.61929 7.662 1.39523ZM4.4 8.9004H2C1.68174 8.9004 1.37652 8.77374 1.15147 8.54827C0.926428 8.32281 0.8 8.01701 0.8 7.69816V3.6907C0.8 3.37185 0.926428 3.06605 1.15147 2.84059C1.37652 2.61513 1.68174 2.48846 2 2.48846V5.69443C2.00063 6.22566 2.21155 6.73494 2.58649 7.11058C2.96142 7.48621 3.46976 7.69752 4 7.69816H5.6C5.6 8.01701 5.47357 8.32281 5.24853 8.54827C5.02348 8.77374 4.71826 8.9004 4.4 8.9004ZM6 6.89667H4C3.68174 6.89667 3.37651 6.77 3.15147 6.54454C2.92643 6.31908 2.8 6.01328 2.8 5.69443V2.08772C2.8 1.76886 2.92643 1.46307 3.15147 1.2376C3.37651 1.01214 3.68174 0.885477 4 0.885477H5.6V1.68697C5.6 1.89954 5.68428 2.1034 5.83431 2.25371C5.98434 2.40402 6.18783 2.48846 6.4 2.48846H7.2V5.69443C7.2 6.01328 7.07357 6.31908 6.84853 6.54454C6.62348 6.77 6.31826 6.89667 6 6.89667Z" fill="#976DFF"/>
</g>
</svg>
