<svg width="11" height="6" viewBox="0 0 11 6" fill="none" xmlns="http://www.w3.org/2000/svg">
<path d="M0.688594 4.46738e-07C0.871076 0.000177822 1.04603 0.0803666 1.17498 0.222938L4.69531 4.11017C4.80184 4.22783 4.92831 4.32116 5.06751 4.38484C5.2067 4.44852 5.3559 4.48129 5.50657 4.48129C5.65723 4.48129 5.80643 4.44852 5.94562 4.38484C6.08482 4.32116 6.21129 4.22783 6.31782 4.11017L9.83356 0.228005C9.96337 0.0895615 10.1372 0.0129562 10.3177 0.0146876C10.4982 0.0164194 10.6708 0.0963497 10.7984 0.237263C10.926 0.378176 10.9984 0.568798 11 0.768072C11.0015 0.967346 10.9322 1.15933 10.8068 1.30267L7.2938 5.18483C6.82014 5.70683 6.17828 6 5.50909 6C4.83989 6 4.19803 5.70683 3.72437 5.18483L0.201749 1.2976C0.105428 1.19131 0.0398256 1.05586 0.0132423 0.908384C-0.013341 0.76091 0.000289755 0.608042 0.0524099 0.469125C0.10453 0.330207 0.192797 0.211484 0.306042 0.127977C0.419286 0.0444698 0.552419 -6.7735e-05 0.688594 4.46738e-07Z" fill="#692EFF"/>
</svg>
