<svg width="10" height="10" viewBox="0 0 10 10" xmlns="http://www.w3.org/2000/svg">
<path d="M0 9.1658V7.84408C0 6.95404 0.346667 6.1165 0.976667 5.48731L5.7325 0.73128C6.7075 -0.24376 8.2925 -0.24376 9.2675 0.73128C9.73917 1.20297 10 1.83133 10 2.49885C10 3.16638 9.73917 3.79474 9.2675 4.26726L4.51167 9.02329C3.8825 9.65249 3.045 10 2.155 10H0.833333C0.3725 10 0 9.62665 0 9.16663V9.1658ZM1.66667 8.33243H2.155C2.6 8.33243 3.01833 8.15909 3.33333 7.84408L8.08917 3.08805C8.24667 2.93054 8.33333 2.72136 8.33333 2.49885C8.33333 2.27634 8.24667 2.06717 8.08917 1.90966C7.76333 1.58382 7.23667 1.58465 6.91083 1.90966L2.155 6.66569C1.845 6.97654 1.66667 7.40573 1.66667 7.84408V8.33243Z" fill="#888893" />
</svg>

