<svg width="16" height="16" viewBox="0 0 16 16" fill="none" xmlns="http://www.w3.org/2000/svg">
<rect opacity="0.2" width="16" height="16" rx="3" fill="#888893"/>
<path d="M11.1539 4.92936L8.12501 4.19812C7.66777 4.08766 7.18949 4.36394 7.05675 4.81522C6.92401 5.26649 7.18708 5.72186 7.64432 5.83232L10.3069 6.47581L3.47017 10.4409C3.05297 10.6818 2.90068 11.199 3.13002 11.5963C3.35935 11.9935 3.88348 12.1202 4.30068 11.8794L11.1659 7.89973L10.3797 10.5702C10.2633 11.0251 10.5432 11.4703 11.0048 11.5647C11.4436 11.6543 11.8932 11.3945 12.0345 10.9695L12.9141 7.98175C13.3127 6.62814 12.5239 5.26194 11.1524 4.93027L11.1539 4.92936Z" fill="#888893"/>
</svg>
