<svg width="15" height="15" viewBox="0 0 15 15" fill="none" xmlns="http://www.w3.org/2000/svg">
<path d="M12.5 2.5H9.375C9.375 1.83696 9.11161 1.20107 8.64277 0.732233C8.17393 0.263392 7.53804 0 6.875 0L2.5 0C1.83696 0 1.20107 0.263392 0.732233 0.732233C0.263392 1.20107 0 1.83696 0 2.5L0 14.375C0 14.5408 0.065848 14.6997 0.183058 14.8169C0.300269 14.9342 0.45924 15 0.625 15C0.79076 15 0.949732 14.9342 1.06694 14.8169C1.18415 14.6997 1.25 14.5408 1.25 14.375V8.125H6.25C6.25 8.78804 6.51339 9.42393 6.98223 9.89277C7.45107 10.3616 8.08696 10.625 8.75 10.625H12.5C13.163 10.625 13.7989 10.3616 14.2678 9.89277C14.7366 9.42393 15 8.78804 15 8.125V5C15 4.33696 14.7366 3.70107 14.2678 3.23223C13.7989 2.76339 13.163 2.5 12.5 2.5ZM1.25 6.875V2.5C1.25 2.16848 1.3817 1.85054 1.61612 1.61612C1.85054 1.3817 2.16848 1.25 2.5 1.25H6.875C7.20652 1.25 7.52446 1.3817 7.75888 1.61612C7.9933 1.85054 8.125 2.16848 8.125 2.5V5.625C8.125 5.95652 7.9933 6.27446 7.75888 6.50888C7.52446 6.7433 7.20652 6.875 6.875 6.875H1.25ZM13.75 8.125C13.75 8.45652 13.6183 8.77446 13.3839 9.00888C13.1495 9.2433 12.8315 9.375 12.5 9.375H8.75C8.41848 9.375 8.10054 9.2433 7.86612 9.00888C7.6317 8.77446 7.5 8.45652 7.5 8.125V8.03625C8.03509 7.89809 8.50932 7.58653 8.84856 7.15027C9.1878 6.71401 9.37293 6.17763 9.375 5.625V3.75H12.5C12.8315 3.75 13.1495 3.8817 13.3839 4.11612C13.6183 4.35054 13.75 4.66848 13.75 5V8.125Z" fill="white"/>
</svg>
