<svg width="15" height="15" viewBox="0 0 15 15" fill="none" xmlns="http://www.w3.org/2000/svg">
<path d="M7.5 15C11.6421 15 15 11.6421 15 7.5C15 3.35786 11.6421 0 7.5 0C3.35786 0 0 3.35786 0 7.5C0 11.6421 3.35786 15 7.5 15Z" fill="#1B1B1B"/>
<path d="M9.78196 3.39453L7.11348 5.81848C6.8372 6.06988 6.47768 6.20888 6.10444 6.21059L5.30905 6.21231L5.30647 3.39453H3.86841V11.4472H4.65265C5.09111 11.4472 5.50038 11.2147 5.71489 10.8328C5.71661 10.8303 5.71747 10.8277 5.71919 10.8259C5.86162 10.5702 5.93283 10.0649 5.91911 9.71995C5.88821 8.93143 5.76123 8.72632 5.76123 8.72632C5.73463 9.26687 5.17004 9.29608 5.17004 9.29608C5.5716 8.91256 5.3528 8.6225 5.3528 8.6225C4.64149 9.12879 4.46388 8.58816 4.45016 8.53929C4.47247 8.55816 4.67496 8.72719 5.05935 8.20037C5.46607 7.64348 6.00834 6.71511 6.35327 6.47658C6.69906 6.23719 7.02682 6.25693 7.02682 6.25693C7.02682 6.25693 7.21559 6.00123 7.71496 5.78844C8.2143 5.57736 8.53436 5.88711 8.53436 5.88711C8.02388 6.29897 7.33057 6.9751 7.29195 7.94379C7.26107 8.72806 8.95136 10.0735 8.65451 12.0607C8.83214 11.6093 8.90336 11.1571 8.84241 10.5977C8.79354 10.1463 8.50262 9.2034 8.50262 9.2034L10.126 11.4463H11.921L8.41254 6.62674L11.921 3.39453H9.78196Z" fill="url(#paint0_linear_2527_608)"/>
<path d="M6.51194 6.86192C6.39868 7.04983 6.39868 7.10732 6.39868 7.10732C6.39868 7.10732 6.79509 7.04039 6.90235 6.56934C6.9032 6.56934 6.64923 6.63455 6.51194 6.86192Z" fill="url(#paint1_linear_2527_608)"/>
<defs>
<linearGradient id="paint0_linear_2527_608" x1="16.1544" y1="14.7142" x2="8.6077" y2="-0.349714" gradientUnits="userSpaceOnUse">
<stop stop-color="#E40C5B"/>
<stop offset="1" stop-color="#FF4C3B"/>
</linearGradient>
<linearGradient id="paint1_linear_2527_608" x1="7.16713" y1="7.27206" x2="6.70075" y2="6.33409" gradientUnits="userSpaceOnUse">
<stop stop-color="#E40C5B"/>
<stop offset="1" stop-color="#FF4C3B"/>
</linearGradient>
</defs>
</svg>
