<svg width="15" height="9" viewBox="0 0 15 9" fill="none" xmlns="http://www.w3.org/2000/svg">
<path d="M14.1233 0.480938C13.8976 0.306122 13.6285 0.0673496 13.138 0.00765648C12.678 -0.0520367 12.2092 0.250693 11.8924 0.451091C11.5755 0.651489 10.9766 1.23989 10.7292 1.41897C10.4818 1.59805 9.84809 1.76434 8.82813 2.36554C7.80816 2.96673 3.80642 5.4909 3.80642 5.4909L4.84809 5.50369L0.203993 7.85304H0.668403L0 8.3519C0 8.3519 0.590278 8.5054 1.08507 8.19841V8.33911C1.08507 8.33911 6.61458 6.19869 7.68229 6.75298L7.03125 6.94059C7.08767 6.94059 8.13802 7.00881 8.13802 7.00881C8.16351 7.22248 8.23662 7.428 8.35215 7.61076C8.46768 7.79353 8.62278 7.94904 8.80642 8.06623C9.44011 8.47555 9.45313 8.70153 9.45313 8.70153C9.45313 8.70153 9.12326 8.83371 9.12326 9C9.12326 9 9.60938 8.85503 10.0608 8.86782C10.3472 8.8785 10.6314 8.92287 10.9071 9C10.9071 9 10.8724 8.82092 10.434 8.70153C9.99566 8.58215 9.56163 8.11313 9.34896 7.8573C9.21869 7.69446 9.13379 7.50113 9.10259 7.2963C9.07139 7.09147 9.09497 6.88219 9.17101 6.68902C9.32292 6.30102 9.85243 6.08783 10.9462 5.53353C12.2352 4.87691 12.5304 4.39084 12.7127 4.01136C12.895 3.63188 13.1641 2.87719 13.316 2.5233C13.5069 2.06707 13.7413 1.82403 13.9366 1.67906C14.1319 1.53409 15 1.21431 15 1.21431C15 1.21431 14.3359 0.647226 14.1233 0.480938Z" fill="#CE206F"/>
</svg>
