<svg width="15" height="15" viewBox="0 0 15 15" fill="none" xmlns="http://www.w3.org/2000/svg">
<path d="M8.0857 14.9996H0.732401C0.538156 14.9996 0.351867 14.9224 0.214515 14.7851C0.0771634 14.6477 0 14.4614 0 14.2672L0 0.732401C0 0.538156 0.0771634 0.351867 0.214515 0.214515C0.351867 0.0771634 0.538156 0 0.732401 0L8.0857 0C8.27995 0 8.46624 0.0771634 8.60359 0.214515C8.74094 0.351867 8.81811 0.538156 8.81811 0.732401C8.81811 0.926646 8.74094 1.11293 8.60359 1.25029C8.46624 1.38764 8.27995 1.4648 8.0857 1.4648H1.4648V13.5348H8.0857C8.27995 13.5348 8.46624 13.6119 8.60359 13.7493C8.74094 13.8866 8.81811 14.0729 8.81811 14.2672C8.81811 14.4614 8.74094 14.6477 8.60359 14.7851C8.46624 14.9224 8.27995 14.9996 8.0857 14.9996Z" fill="#888893"/>
<path d="M14.0758 8.23238H5.47825C5.28401 8.23238 5.09772 8.15522 4.96036 8.01786C4.82301 7.88051 4.74585 7.69422 4.74585 7.49998C4.74585 7.30573 4.82301 7.11945 4.96036 6.98209C5.09772 6.84474 5.28401 6.76758 5.47825 6.76758H14.0758C14.27 6.76758 14.4563 6.84474 14.5936 6.98209C14.731 7.11945 14.8082 7.30573 14.8082 7.49998C14.8082 7.69422 14.731 7.88051 14.5936 8.01786C14.4563 8.15522 14.27 8.23238 14.0758 8.23238Z" fill="#888893"/>
<path d="M10.5489 11.9389C10.4039 11.9389 10.2622 11.8959 10.1417 11.8154C10.0211 11.7348 9.92725 11.6202 9.87187 11.4862C9.8165 11.3522 9.80214 11.2048 9.83062 11.0627C9.85909 10.9205 9.92911 10.79 10.0318 10.6877L13.2298 7.49998L10.0318 4.31227C9.96176 4.24483 9.90584 4.16411 9.86731 4.07482C9.82878 3.98553 9.80842 3.88946 9.80741 3.79222C9.80641 3.69498 9.82478 3.59851 9.86145 3.50845C9.89812 3.41838 9.95236 3.33652 10.021 3.26764C10.0897 3.19876 10.1713 3.14424 10.2613 3.10726C10.3512 3.07028 10.4476 3.05159 10.5449 3.05226C10.6421 3.05294 10.7382 3.07297 10.8277 3.1112C10.9171 3.14942 10.998 3.20507 11.0657 3.2749L14.7845 6.98114C14.8528 7.04919 14.907 7.13005 14.944 7.21908C14.9809 7.30811 15 7.40357 15 7.49998C15 7.59638 14.9809 7.69184 14.944 7.78087C14.907 7.86991 14.8528 7.95076 14.7845 8.01881L11.0657 11.7251C10.9978 11.7929 10.9173 11.8468 10.8286 11.8835C10.7399 11.9202 10.6449 11.939 10.5489 11.9389Z" fill="#888893"/>
</svg>
