<svg width="15" height="15" viewBox="0 0 15 15" fill="none" xmlns="http://www.w3.org/2000/svg">
<path d="M4.6875 8.125C4.13124 8.125 3.58747 7.96005 3.12496 7.65101C2.66245 7.34197 2.30196 6.90271 2.08909 6.3888C1.87622 5.87488 1.82052 5.30938 1.92904 4.76381C2.03756 4.21824 2.30543 3.7171 2.69876 3.32376C3.0921 2.93043 3.59324 2.66256 4.13881 2.55404C4.68438 2.44552 5.24988 2.50122 5.7638 2.71409C6.27771 2.92696 6.71697 3.28745 7.02601 3.74996C7.33505 4.21247 7.5 4.75624 7.5 5.3125C7.49917 6.05817 7.20259 6.77306 6.67532 7.30032C6.14806 7.82759 5.43317 8.12417 4.6875 8.125ZM4.6875 4.375C4.50208 4.375 4.32082 4.42998 4.16665 4.533C4.01248 4.63601 3.89232 4.78243 3.82136 4.95373C3.75041 5.12504 3.73184 5.31354 3.76801 5.4954C3.80419 5.67726 3.89348 5.8443 4.02459 5.97541C4.1557 6.10652 4.32275 6.19581 4.5046 6.23199C4.68646 6.26816 4.87496 6.24959 5.04627 6.17864C5.21757 6.10768 5.36399 5.98752 5.467 5.83335C5.57002 5.67918 5.625 5.49792 5.625 5.3125C5.625 5.06386 5.52623 4.8254 5.35041 4.64959C5.1746 4.47377 4.93614 4.375 4.6875 4.375ZM9.375 14.0625C9.375 12.8193 8.88114 11.627 8.00206 10.7479C7.12299 9.86886 5.9307 9.375 4.6875 9.375C3.4443 9.375 2.25201 9.86886 1.37294 10.7479C0.49386 11.627 0 12.8193 0 14.0625C0 14.3111 0.098772 14.5496 0.274587 14.7254C0.450403 14.9012 0.68886 15 0.9375 15C1.18614 15 1.4246 14.9012 1.60041 14.7254C1.77623 14.5496 1.875 14.3111 1.875 14.0625C1.875 13.3166 2.17132 12.6012 2.69876 12.0738C3.22621 11.5463 3.94158 11.25 4.6875 11.25C5.43342 11.25 6.14879 11.5463 6.67624 12.0738C7.20368 12.6012 7.5 13.3166 7.5 14.0625C7.5 14.3111 7.59877 14.5496 7.77459 14.7254C7.9504 14.9012 8.18886 15 8.4375 15C8.68614 15 8.9246 14.9012 9.10041 14.7254C9.27623 14.5496 9.375 14.3111 9.375 14.0625ZM15 11.25C15.0001 10.4202 14.7642 9.60757 14.3199 8.9068C13.8755 8.20604 13.2411 7.64608 12.4905 7.29227C11.74 6.93845 10.9043 6.80537 10.081 6.90855C9.25765 7.01173 8.48065 7.34692 7.84062 7.875C7.74566 7.95338 7.66707 8.0497 7.60933 8.15846C7.55159 8.26722 7.51584 8.38628 7.50412 8.50885C7.4924 8.63143 7.50493 8.75511 7.54101 8.87284C7.57708 8.99057 7.63599 9.10004 7.71438 9.195C7.79276 9.28996 7.88908 9.36856 7.99783 9.42629C8.10659 9.48403 8.22565 9.51978 8.34823 9.53151C8.4708 9.54323 8.59448 9.53069 8.71221 9.49462C8.82994 9.45854 8.93941 9.39963 9.03438 9.32125C9.48089 8.94967 10.0441 8.7474 10.625 8.75C11.288 8.75 11.9239 9.01339 12.3928 9.48223C12.8616 9.95107 13.125 10.587 13.125 11.25C13.125 11.4986 13.2238 11.7371 13.3996 11.9129C13.5754 12.0887 13.8139 12.1875 14.0625 12.1875C14.3111 12.1875 14.5496 12.0887 14.7254 11.9129C14.9012 11.7371 15 11.4986 15 11.25ZM10.9375 5.625C10.3812 5.625 9.83747 5.46005 9.37496 5.15101C8.91245 4.84197 8.55196 4.40272 8.33909 3.8888C8.12622 3.37488 8.07052 2.80938 8.17904 2.26381C8.28756 1.71824 8.55543 1.2171 8.94876 0.823763C9.3421 0.430428 9.84324 0.162564 10.3888 0.0540427C10.9344 -0.0544783 11.4999 0.00121862 12.0138 0.21409C12.5277 0.426962 12.967 0.787447 13.276 1.24996C13.585 1.71247 13.75 2.25624 13.75 2.8125C13.7492 3.55817 13.4526 4.27306 12.9253 4.80032C12.3981 5.32759 11.6832 5.62417 10.9375 5.625ZM10.9375 1.875C10.7521 1.875 10.5708 1.92998 10.4167 2.033C10.2625 2.13601 10.1423 2.28243 10.0714 2.45374C10.0004 2.62504 9.98184 2.81354 10.018 2.9954C10.0542 3.17726 10.1435 3.3443 10.2746 3.47541C10.4057 3.60653 10.5727 3.69581 10.7546 3.73199C10.9365 3.76816 11.125 3.7496 11.2963 3.67864C11.4676 3.60768 11.614 3.48752 11.717 3.33335C11.82 3.17918 11.875 2.99792 11.875 2.8125C11.875 2.56386 11.7762 2.3254 11.6004 2.14959C11.4246 1.97377 11.1861 1.875 10.9375 1.875Z" fill="white"/>
</svg>
