<svg width="15" height="15" viewBox="0 0 15 15" fill="none" xmlns="http://www.w3.org/2000/svg">
<path d="M7.5 15C11.6421 15 15 11.6421 15 7.5C15 3.35787 11.6421 0 7.5 0C3.35787 0 0 3.35787 0 7.5C0 11.6421 3.35787 15 7.5 15Z" fill="#171E43"/>
<path d="M7.42639 2.25016C5.258 2.25016 3.50024 4.00802 3.50024 6.17631C3.50035 6.4244 3.52357 6.67186 3.56981 6.91559L4.07697 6.56819C4.96865 5.95663 6.41497 5.95663 7.30665 6.56819L7.8389 6.9327L8.12731 7.13092C8.93108 7.68162 10.2331 7.68162 11.036 7.13092L11.2727 6.96888C11.7079 4.84309 10.3375 2.76686 8.2116 2.33155C7.95366 2.27867 7.69117 2.25193 7.42784 2.25172L7.42639 2.25016Z" fill="#F2B705"/>
<path d="M9.63278 8.53516C9.04123 8.53516 8.4756 8.37467 8.04972 8.08273L7.22978 7.52073C6.83717 7.25087 6.31 7.10231 5.74665 7.10231C5.1832 7.10231 4.65603 7.25004 4.26342 7.52073L3.73325 7.88379C3.62833 7.95563 3.48496 7.92878 3.41311 7.82397C3.34127 7.71895 3.36801 7.57557 3.47303 7.50373L4.00311 7.14067C4.47191 6.81908 5.09072 6.64232 5.74665 6.64232C6.40238 6.64232 7.0213 6.81908 7.4901 7.14067L8.31004 7.70267C9.12189 8.19957 10.1437 8.19957 10.9555 7.70267L11.2669 7.48973C11.3718 7.41789 11.5151 7.44453 11.587 7.54955C11.6588 7.65457 11.6321 7.79784 11.5271 7.86969L11.2158 8.08273C10.7877 8.3755 10.2243 8.53516 9.63278 8.53516Z" fill="#53CBC8"/>
<path d="M5.72963 10.1835V7.96539C5.72787 7.91874 5.72984 7.87198 5.73554 7.82564C5.74984 7.69927 5.85683 7.60379 5.98393 7.60389C6.1072 7.60721 6.20818 7.70279 6.21834 7.82564C6.22777 7.90267 6.23047 7.98032 6.22642 8.05787V12.3412V12.4808C6.21315 12.6449 6.11041 12.7529 5.97212 12.7499C5.83382 12.747 5.73398 12.6347 5.73336 12.4683V10.9938L5.72963 10.1835Z" fill="#53CBC8"/>
<path d="M5.26293 9.06691V10.1694C5.26293 10.3579 5.16237 10.4829 5.01971 10.4784C4.87696 10.4739 4.76904 10.3468 4.76831 10.1672V7.96312C4.76831 7.77008 4.88069 7.63987 5.02707 7.64734C5.17346 7.6547 5.26075 7.77154 5.26148 7.96447C5.26365 8.33198 5.26293 8.6995 5.26293 9.06691Z" fill="#53CBC8"/>
<path d="M6.69516 9.06519V8.29024C6.69516 8.11058 6.79054 7.99457 6.93246 7.99457C7.07449 7.99457 7.18387 8.11431 7.18542 8.28361C7.19081 8.81109 7.19081 9.33826 7.18542 9.86522C7.18542 10.0449 7.07957 10.1528 6.93391 10.1514C6.78826 10.1499 6.69516 10.0396 6.6936 9.85558V9.06446L6.69516 9.06519Z" fill="#53CBC8"/>
<path d="M3.80722 9.2273V8.45235C3.80722 8.27279 3.9026 8.15668 4.04452 8.15668C4.18655 8.15668 4.29593 8.27642 4.29748 8.44572C4.30235 8.9732 4.30235 9.50037 4.29748 10.0273C4.29748 10.207 4.19091 10.3149 4.04597 10.3135C3.90115 10.312 3.80722 10.2017 3.80566 10.0177V9.22657L3.80722 9.2273Z" fill="#53CBC8"/>
<path d="M7.89908 8.56753H7.8998C8.03416 8.56753 8.14312 8.67649 8.14312 8.81084V9.23227C8.14312 9.36663 8.03416 9.47559 7.8998 9.47559H7.89908C7.76472 9.47559 7.65576 9.36663 7.65576 9.23227V8.81084C7.65576 8.67649 7.76472 8.56753 7.89908 8.56753Z" fill="#53CBC8"/>
<path d="M8.86309 8.93589H8.86381C8.99817 8.93589 9.10713 9.04485 9.10713 9.17921V11.5429C9.10713 11.6773 8.99817 11.7861 8.86381 11.7861H8.86309C8.72873 11.7861 8.61987 11.6773 8.61987 11.5429V9.17921C8.61987 9.04485 8.72873 8.93589 8.86309 8.93589Z" fill="#53CBC8"/>
<path d="M9.82061 9.02806H9.82133C9.95569 9.02806 10.0646 9.13702 10.0646 9.27138V11.2803C10.0646 11.4147 9.95569 11.5234 9.82133 11.5234H9.82061C9.68625 11.5234 9.57739 11.4147 9.57739 11.2803V9.27138C9.57739 9.13702 9.68625 9.02806 9.82061 9.02806Z" fill="#53CBC8"/>
<path d="M10.7913 8.79825H10.792C10.9264 8.79825 11.0354 8.9072 11.0354 9.04156V9.90805C11.0354 10.0424 10.9264 10.1514 10.792 10.1514H10.7913C10.657 10.1514 10.5481 10.0424 10.5481 9.90805V9.04156C10.5481 8.9072 10.657 8.79825 10.7913 8.79825Z" fill="#53CBC8"/>
</svg>
