<?xml version="1.0" encoding="utf-8"?>
<!-- Generator: Adobe Illustrator 27.7.0, SVG Export Plug-In . SVG Version: 6.00 Build 0)  -->
<svg version="1.1" id="Layer_1" xmlns="http://www.w3.org/2000/svg" xmlns:xlink="http://www.w3.org/1999/xlink" x="0px" y="0px"
	 viewBox="0 0 1858 1698" style="enable-background:new 0 0 1858 1698;" xml:space="preserve">
<style type="text/css">
	.st0{fill-rule:evenodd;clip-rule:evenodd;fill:url(#SVGID_1_);}
</style>
<linearGradient id="SVGID_1_" gradientUnits="userSpaceOnUse" x1="929" y1="1351.9802" x2="929" y2="346.0198" gradientTransform="matrix(1 0 0 -1 0 1698)">
	<stop  offset="0" style="stop-color:#F7D365"/>
	<stop  offset="0.502" style="stop-color:#EA4683"/>
	<stop  offset="1" style="stop-color:#735FA1"/>
</linearGradient>
<path class="st0" d="M929,346c-56.7,0-102.8,46.1-102.8,102.8c0,56.7,46.1,102.8,102.8,102.8c56.7,0,102.8-46.1,102.8-102.8
	C1031.8,392.1,985.7,346,929,346z M929,513.7c-12.8,0-25.4-3.8-36-10.9c-10.7-7.1-19-17.3-23.9-29.1c-4.9-11.9-6.2-24.9-3.7-37.5
	c2.5-12.6,8.7-24.1,17.7-33.2c9.1-9.1,20.6-15.3,33.2-17.8c12.6-2.5,25.6-1.2,37.5,3.7c11.9,4.9,22,13.2,29.1,23.9
	c7.1,10.7,10.9,23.2,10.9,36c0,17.2-6.9,33.7-19,45.9C962.7,506.8,946.2,513.7,929,513.7L929,513.7z M1455.5,642
	c-18.4-25.1-46.9-38.4-82.3-38.4c-97.1,0-171.4,98.7-242.8,197.3c-23.7-37.8-48.4-75.1-76.3-105C1014,652.8,973,631.8,929,631.8
	c-44,0-85,20.9-125.2,64.1c-20.8,22.3-58.1,77.4-76.3,105c-71.4-98.6-145.7-197.3-242.8-197.3c-35.4,0-63.9,13.3-82.3,38.4
	c-15.9,21.6-23.9,50.8-23.9,86.8c0,26.5,4.6,55.9,13,85.5h-0.3c0,31.2,2.7,61.7,7.7,91.5l-0.3,0.1c0.7,3.8,1.5,7.6,2.4,11.4
	c48,247.8,266.1,434.9,527.8,434.9c296.9,0,537.6-240.8,537.6-537.8h-0.3c8.4-29.6,13-59,13-85.5
	C1479.4,692.7,1471.3,663.5,1455.5,642z M1414.3,926.9c-36.6,53.6-81,84-123.6,84c-54,0-95.3-42.5-134.2-98.5
	c-4.4,83.7-18.9,162.2-41,228.7c59.7-14,112.8-34.5,157.3-59.6C1347.6,1039.1,1396.4,984.7,1414.3,926.9z M1119.2,880.1
	c-54.4,69.2-125.7,144-190.2,144c-72.5,0-131.3-64.8-190.2-143.4c2.4,101.8,20.1,195.9,47.8,269.9c44.2,7.3,91.7,11.2,142.1,11.2
	c50.3,0,98.2-4.2,142.9-11.8C1099.2,1075.9,1116.9,981.8,1119.2,880.1z M701.5,912.3c-38.9,56.1-80.2,98.6-134.2,98.6
	c-42.4,0-86.5-30-122.9-83c20.8,60.7,70.1,115.2,143.9,156.6c43.7,24.5,95.7,44.2,154.6,57.5C720.6,1075.3,705.9,996.5,701.5,912.3z
	 M751.6,834.1c45.9-71.7,113.3-164.3,177.4-164.3c72.6,0,126.2,81.9,177.4,164.3c-50.8,67.4-123.2,152.1-177.4,152.1
	c-53.3,0-104.8-55.7-154.8-121.6C766.6,854.6,759.1,844.4,751.6,834.1z M1392.1,891.4c-30.9,51.1-68.8,81.5-101.3,81.5
	c-50.8,0-93.8-65.1-138.6-137.2c0.7-1.1,1.5-2.2,2.3-3.2c67.8-93.9,138-191,218.8-191c45.3,0,68.3,29.3,68.3,87.2
	C1441.5,778.6,1422.5,841,1392.1,891.4z M567.3,972.9c-32.6,0-70.5-30.5-101.3-81.5c-30.5-50.4-49.4-112.8-49.4-162.7
	c0-57.9,23-87.2,68.3-87.2c80.8,0,150.9,97.1,218.8,191l0,0c0.4,0.5,0.8,1.1,1.2,1.6l0,0l0,0c0.4,0.5,0.8,1,1.1,1.6
	C661.1,907.8,618,972.9,567.3,972.9z M1273.8,448.8c0-56.7,46.1-102.8,102.8-102.8c56.6,0,102.8,46.1,102.8,102.8
	c0,56.7-46.1,102.8-102.8,102.8S1273.8,505.5,1273.8,448.8z M1340.6,502.8c10.7,7.1,23.2,10.9,36,10.9v0c17.2,0,33.7-6.9,45.8-19
	c12.2-12.2,19-28.7,19-45.9c0-12.8-3.8-25.4-10.9-36c-7.1-10.7-17.3-19-29.1-23.9c-11.8-4.9-24.9-6.2-37.5-3.7
	c-12.6,2.5-24.1,8.7-33.2,17.8c-9.1,9.1-15.2,20.6-17.7,33.2c-2.5,12.6-1.2,25.6,3.7,37.5C1321.6,485.5,1329.9,495.6,1340.6,502.8z
	 M481.4,346c-56.7,0-102.7,46.1-102.7,102.8c0,56.7,46.1,102.8,102.7,102.8c56.7,0,102.8-46.1,102.8-102.8
	C584.2,392.1,538,346,481.4,346z M481.4,513.7c-12.8,0-25.4-3.8-36-10.9c-10.7-7.1-19-17.3-23.9-29.1c-4.9-11.9-6.2-24.9-3.7-37.5
	c2.5-12.6,8.7-24.1,17.7-33.2c9.1-9.1,20.6-15.3,33.2-17.8c12.6-2.5,25.6-1.2,37.5,3.7c11.9,4.9,22,13.2,29.1,23.9
	c7.1,10.7,10.9,23.2,10.9,36c0,17.2-6.9,33.7-19,45.9C515.1,506.8,498.6,513.7,481.4,513.7L481.4,513.7z M836,1304.8
	c-142.3-26.8-263.2-114-335.2-233.9c20.4,17.3,43.4,33,68.6,47.2c53.4,29.9,117.3,52.7,189.4,66.6c1.4,3.4,2.9,6.8,4.3,10.1
	c19.6,44.3,43.5,81.6,70.9,108.1C834.7,1303.5,835.3,1304.2,836,1304.8z M860.7,1275.2c-20.3-19.6-39.5-47.7-56.5-83
	c39.5,5.3,81,8.1,124.4,8.1c43.5,0,85.4-3,125.2-8.6c-17,35.5-36.3,63.8-56.7,83.5c-22.7,21.9-45.7,32.4-68.3,32.4
	C906.4,1307.5,883.4,1297.1,860.7,1275.2z M1094.9,1194.8c1.6-3.6,3.1-7.2,4.7-10.9c73-14.6,138.1-38.3,192.2-68.9
	c24.2-13.7,46.5-28.9,66.2-45.4c-71.9,120.6-193.2,208.3-336,235.2c0.7-0.6,1.3-1.3,2-1.9
	C1051.4,1276.4,1075.3,1239.1,1094.9,1194.8z"/>
</svg>
