<svg width="15" height="17" viewBox="0 0 15 17" fill="none" xmlns="http://www.w3.org/2000/svg">
<path d="M14.8738 9.67454L13.5636 4.83293C13.1796 3.41453 12.3449 2.16869 11.1923 1.29342C10.0398 0.418145 8.6354 -0.0363165 7.20247 0.00226912C5.76955 0.0408548 4.3903 0.570273 3.28396 1.50637C2.17762 2.44247 1.40769 3.73153 1.09654 5.16864L0.0821589 9.85373C-0.0298885 10.3714 -0.027298 10.9083 0.0897394 11.4249C0.206777 11.9414 0.435272 12.4243 0.758356 12.838C1.08144 13.2517 1.49086 13.5855 1.9564 13.8149C2.42193 14.0444 2.93169 14.1635 3.44804 14.1634H4.21624C4.37451 14.964 4.79737 15.6837 5.41318 16.2006C6.029 16.7176 6.79988 17 7.59522 17C8.39056 17 9.16144 16.7176 9.77725 16.2006C10.3931 15.6837 10.8159 14.964 10.9742 14.1634H11.5521C12.0836 14.1635 12.608 14.0373 13.0842 13.7948C13.5604 13.5522 13.9755 13.1999 14.2972 12.7653C14.6189 12.3306 14.8384 11.8255 14.9385 11.2894C15.0386 10.7532 15.0161 10.2006 14.8738 9.67454ZM7.59522 15.5799C7.16887 15.5781 6.75349 15.4411 6.40589 15.1875C6.05829 14.934 5.79545 14.5763 5.65334 14.1634H9.5371C9.39499 14.5763 9.13215 14.934 8.78455 15.1875C8.43695 15.4411 8.02156 15.5781 7.59522 15.5799ZM13.1988 11.9077C13.0067 12.1695 12.7577 12.3817 12.4717 12.5274C12.1857 12.673 11.8706 12.7482 11.5514 12.7469H3.44804C3.13826 12.7469 2.83246 12.6754 2.55319 12.5377C2.27392 12.4 2.02832 12.1997 1.83451 11.9515C1.64071 11.7033 1.50365 11.4136 1.43345 11.1037C1.36325 10.7938 1.3617 10.4717 1.42892 10.1611L2.44262 5.47531C2.68698 4.3465 3.29171 3.33398 4.1607 2.59871C5.02968 1.86343 6.11303 1.4476 7.23855 1.41732C8.36406 1.38704 9.46712 1.74404 10.3724 2.43158C11.2777 3.11911 11.9332 4.09772 12.2348 5.21184L13.545 10.0535C13.6316 10.3689 13.6453 10.7007 13.5853 11.0226C13.5252 11.3444 13.3928 11.6475 13.1988 11.9077Z" fill="#692EFF"/>
</svg>
