<svg width="221" height="41" viewBox="0 0 221 41" fill="none" xmlns="http://www.w3.org/2000/svg">
<path fill-rule="evenodd" clip-rule="evenodd" d="M10.8793 34.4122C16.9114 38.7259 26.263 35.9528 31.7669 28.2182C37.2706 20.4836 36.8425 10.7165 30.8104 6.40285C24.7784 2.08916 15.4267 4.86234 9.92285 12.5969C4.41906 20.3315 4.84727 30.0984 10.8793 34.4122ZM12.2898 32.0723C17.0437 35.4719 24.4139 33.2865 28.7516 27.1906C33.0893 21.0949 32.7518 13.3973 27.9978 9.99766C23.2439 6.59798 15.8736 8.78356 11.536 14.8793C7.19834 20.975 7.53583 28.6726 12.2898 32.0723Z" fill="white"/>
<path fill-rule="evenodd" clip-rule="evenodd" d="M0.136679 36.9344C-1.09457 43.6718 6.12999 41.7678 16.2732 32.6815C26.4163 23.5955 35.6371 10.768 36.8684 4.03066C37.8992 -1.61036 33.0025 -1.1935 25.4278 4.42467C25.9458 4.47399 26.4564 4.55619 26.9573 4.67205C32.4243 1.09456 35.7867 1.23061 34.984 5.62328C33.9215 11.4375 25.964 22.5072 17.2107 30.3484C8.45737 38.1896 2.22275 39.8326 3.28529 34.0186C3.6323 32.1197 4.71479 29.6601 6.32023 26.9355C6.1974 26.283 6.11786 25.6121 6.0818 24.9281C2.89643 29.5713 0.695032 33.8792 0.136679 36.9344Z" fill="white"/>
<path d="M38.7495 14.8857H44.1697L45.1479 20.9223V30.0038H39.7541V20.1015L38.7495 14.8857ZM50.3565 14.4355C51.749 14.4355 52.9299 14.7268 53.8992 15.3093C54.8688 15.8918 55.609 16.7125 56.1202 17.7716C56.6315 18.8307 56.8871 20.0839 56.8871 21.5312V30.0038H51.4933V22.3257C51.4933 21.1958 51.2377 20.331 50.7265 19.7309C50.2155 19.1307 49.4751 18.8307 48.5057 18.8307C47.8182 18.8307 47.219 18.9895 46.7078 19.3072C46.2142 19.625 45.8266 20.0751 45.5445 20.6576C45.2801 21.2401 45.1479 21.9283 45.1479 22.7228L43.4822 21.849C43.6937 20.2427 44.1256 18.8924 44.7777 17.7981C45.4299 16.6861 46.2318 15.8476 47.1838 15.2828C48.1531 14.718 49.2106 14.4355 50.3565 14.4355ZM62.0691 14.4355C63.4615 14.4355 64.6426 14.7268 65.612 15.3093C66.599 15.8918 67.3482 16.7125 67.8594 17.7716C68.3705 18.8307 68.6261 20.0839 68.6261 21.5312V30.0038H63.2326V22.3257C63.2326 21.1958 62.9769 20.331 62.4657 19.7309C61.9545 19.1307 61.2143 18.8307 60.2447 18.8307C59.5574 18.8307 58.958 18.9895 58.447 19.3072C57.9534 19.625 57.5656 20.0751 57.2835 20.6576C57.0193 21.2401 56.8871 21.9283 56.8871 22.7228L55.2214 21.849C55.4327 20.2427 55.8558 18.8924 56.4904 17.7981C57.1425 16.6861 57.9534 15.8476 58.9228 15.2828C59.8923 14.718 60.941 14.4355 62.0691 14.4355Z" fill="white"/>
<path d="M70.6367 14.8857H76.0567L77.0351 20.9223V30.0038H71.6413V20.1015L70.6367 14.8857ZM82.5873 14.4355C84.0326 14.4355 85.2666 14.7268 86.2889 15.3093C87.3111 15.8918 88.0868 16.7125 88.6154 17.7716C89.1619 18.8307 89.4352 20.0839 89.4352 21.5312V30.0038H84.0414V22.3257C84.0414 21.1958 83.7508 20.331 83.169 19.7309C82.6049 19.1307 81.7854 18.8307 80.71 18.8307C79.9698 18.8307 79.3176 18.9895 78.7537 19.3072C78.2072 19.625 77.7841 20.0751 77.4844 20.6576C77.1849 21.2401 77.0351 21.9283 77.0351 22.7228L75.3694 21.849C75.5809 20.2427 76.0302 18.8924 76.7178 17.7981C77.4053 16.6861 78.2512 15.8476 79.2559 15.2828C80.2607 14.718 81.3711 14.4355 82.5873 14.4355Z" fill="white"/>
<path d="M92.213 14.6469L94.9362 15.1764L97.6331 14.6469V30.0033H92.213V14.6469ZM94.9097 13.4025C93.9756 13.4025 93.2176 13.1731 92.636 12.7141C92.0543 12.2375 91.7634 11.5933 91.7634 10.7813C91.7634 9.98704 92.0543 9.35159 92.636 8.87503C93.2176 8.39845 93.9756 8.16016 94.9097 8.16016C95.8793 8.16016 96.6459 8.39845 97.2101 8.87503C97.7918 9.35159 98.0825 9.98704 98.0825 10.7813C98.0825 11.5933 97.7918 12.2375 97.2101 12.7141C96.6459 13.1731 95.8793 13.4025 94.9097 13.4025Z" fill="white"/>
<path d="M121.227 26.9591H119.535L123.818 14.8857H129.212L123.554 30.0038H118.054L113.322 17.454H115.12L110.334 30.0038H104.834L99.1765 14.8857H104.623L108.88 26.9591H107.188L111.656 14.8857H116.812L121.227 26.9591Z" fill="white"/>
<path d="M143.811 30.0038L143.123 24.5497L143.837 22.4579L143.123 20.3663L143.811 14.8857H149.416L148.464 22.4314L149.416 30.0038H143.811ZM145.08 22.4579C144.833 24.0466 144.34 25.4409 143.599 26.6413C142.877 27.8414 141.951 28.7769 140.823 29.4477C139.713 30.1009 138.444 30.4273 137.016 30.4273C135.535 30.4273 134.231 30.1009 133.103 29.4477C131.992 28.7769 131.12 27.8414 130.485 26.6413C129.851 25.4233 129.533 24.0289 129.533 22.4579C129.533 20.8517 129.851 19.4484 130.485 18.2482C131.12 17.0479 131.992 16.1124 133.103 15.4417C134.231 14.7709 135.535 14.4355 137.016 14.4355C138.444 14.4355 139.713 14.7709 140.823 15.4417C141.951 16.0948 142.885 17.0214 143.626 18.2217C144.366 19.4043 144.851 20.8164 145.08 22.4579ZM135.007 22.4579C135.007 23.1992 135.156 23.8612 135.456 24.4437C135.773 25.0261 136.205 25.4852 136.752 25.8204C137.298 26.1382 137.924 26.297 138.629 26.297C139.369 26.297 140.065 26.1382 140.717 25.8204C141.37 25.4852 141.943 25.0261 142.436 24.4437C142.93 23.8612 143.3 23.1992 143.547 22.4579C143.3 21.6989 142.93 21.0283 142.436 20.4457C141.943 19.8633 141.37 19.4043 140.717 19.069C140.065 18.7336 139.369 18.5659 138.629 18.5659C137.924 18.5659 137.298 18.7336 136.752 19.069C136.205 19.4043 135.773 19.8633 135.456 20.4457C135.156 21.0283 135.007 21.6989 135.007 22.4579Z" fill="white"/>
<path d="M156.982 34.7961C155.872 34.7961 154.885 34.6549 154.021 34.3726C153.157 34.1077 152.32 33.6929 151.509 33.1281V29.3685C152.338 29.8981 153.113 30.2775 153.836 30.507C154.558 30.7364 155.352 30.8512 156.215 30.8512C156.938 30.8512 157.581 30.6923 158.145 30.3745C158.71 30.0567 159.168 29.4743 159.52 28.6271L165.311 14.8857H171.048L163.804 30.2952C163.292 31.4072 162.667 32.2896 161.926 32.9428C161.204 33.6136 160.419 34.09 159.573 34.3726C158.727 34.6549 157.863 34.7961 156.982 34.7961ZM157.167 28.6007L150.742 14.8857H156.691L162.376 28.6007H157.167Z" fill="white"/>
<rect x="177" y="13" width="44" height="18" rx="5" fill="white"/>
<path d="M214.398 26L214.134 23.48L214.446 22.604L214.134 21.74L214.398 19.208H216.006L215.646 22.604L216.006 26H214.398ZM214.878 22.604C214.726 23.316 214.474 23.94 214.122 24.476C213.77 25.012 213.334 25.428 212.814 25.724C212.302 26.02 211.73 26.168 211.098 26.168C210.434 26.168 209.846 26.02 209.334 25.724C208.822 25.42 208.422 25 208.134 24.464C207.846 23.928 207.702 23.308 207.702 22.604C207.702 21.892 207.846 21.272 208.134 20.744C208.422 20.208 208.822 19.792 209.334 19.496C209.846 19.192 210.434 19.04 211.098 19.04C211.73 19.04 212.302 19.188 212.814 19.484C213.334 19.78 213.77 20.196 214.122 20.732C214.482 21.26 214.734 21.884 214.878 22.604ZM209.286 22.604C209.286 23.06 209.378 23.464 209.562 23.816C209.754 24.16 210.014 24.432 210.342 24.632C210.67 24.824 211.046 24.92 211.47 24.92C211.902 24.92 212.302 24.824 212.67 24.632C213.038 24.432 213.362 24.16 213.642 23.816C213.93 23.464 214.158 23.06 214.326 22.604C214.158 22.148 213.93 21.748 213.642 21.404C213.362 21.052 213.038 20.78 212.67 20.588C212.302 20.388 211.902 20.288 211.47 20.288C211.046 20.288 210.67 20.388 210.342 20.588C210.014 20.78 209.754 21.052 209.562 21.404C209.378 21.748 209.286 22.148 209.286 22.604Z" fill="black"/>
<path d="M200.849 20.4076V19.6996L202.301 19.3276L202.949 17.4316H203.861V19.2076H207.017V20.4076H203.861V23.3476C203.861 23.9156 203.981 24.3156 204.221 24.5476C204.469 24.7716 204.869 24.8836 205.421 24.8836C205.773 24.8836 206.085 24.8476 206.357 24.7756C206.629 24.6956 206.889 24.5836 207.137 24.4396V25.7236C206.929 25.8276 206.633 25.9276 206.249 26.0236C205.873 26.1196 205.485 26.1676 205.085 26.1676C204.421 26.1676 203.885 26.0596 203.477 25.8436C203.069 25.6196 202.769 25.3156 202.577 24.9316C202.393 24.5396 202.301 24.0916 202.301 23.5876V20.4076H200.849Z" fill="black"/>
<path d="M196.946 26.168C196.154 26.168 195.45 26.02 194.834 25.724C194.218 25.42 193.734 25 193.382 24.464C193.03 23.928 192.854 23.304 192.854 22.592C192.854 21.888 193.018 21.272 193.346 20.744C193.682 20.208 194.142 19.792 194.726 19.496C195.318 19.192 195.994 19.04 196.754 19.04C197.514 19.04 198.17 19.212 198.722 19.556C199.282 19.892 199.714 20.368 200.018 20.984C200.322 21.6 200.474 22.324 200.474 23.156H194.078V21.968H199.694L198.914 22.412C198.89 21.964 198.782 21.58 198.59 21.26C198.406 20.94 198.154 20.696 197.834 20.528C197.522 20.352 197.15 20.264 196.718 20.264C196.262 20.264 195.862 20.356 195.518 20.54C195.182 20.724 194.918 20.984 194.726 21.32C194.534 21.648 194.438 22.04 194.438 22.496C194.438 23 194.55 23.436 194.774 23.804C195.006 24.172 195.33 24.456 195.746 24.656C196.17 24.848 196.67 24.944 197.246 24.944C197.766 24.944 198.298 24.864 198.842 24.704C199.386 24.536 199.866 24.304 200.282 24.008V25.136C199.866 25.456 199.358 25.708 198.758 25.892C198.166 26.076 197.562 26.168 196.946 26.168Z" fill="black"/>
<path d="M183.828 16.7598H185.388V21.5478L185.148 21.9918V23.2518L185.388 23.7558V25.9998H183.828V16.7598ZM184.764 22.6038C184.916 21.8838 185.168 21.2598 185.52 20.7318C185.872 20.1958 186.304 19.7798 186.816 19.4838C187.336 19.1878 187.912 19.0398 188.544 19.0398C189.208 19.0398 189.796 19.1918 190.308 19.4958C190.82 19.7918 191.22 20.2078 191.508 20.7438C191.796 21.2718 191.94 21.8918 191.94 22.6038C191.94 23.3078 191.796 23.9278 191.508 24.4638C191.22 24.9998 190.82 25.4198 190.308 25.7238C189.796 26.0198 189.208 26.1678 188.544 26.1678C187.912 26.1678 187.336 26.0198 186.816 25.7238C186.304 25.4278 185.872 25.0118 185.52 24.4758C185.168 23.9398 184.916 23.3158 184.764 22.6038ZM190.356 22.6038C190.356 22.1478 190.26 21.7478 190.068 21.4038C189.884 21.0518 189.628 20.7798 189.3 20.5878C188.972 20.3878 188.596 20.2878 188.172 20.2878C187.748 20.2878 187.348 20.3878 186.972 20.5878C186.604 20.7798 186.28 21.0518 186 21.4038C185.72 21.7478 185.492 22.1478 185.316 22.6038C185.492 23.0598 185.72 23.4638 186 23.8158C186.28 24.1598 186.604 24.4318 186.972 24.6318C187.348 24.8238 187.748 24.9198 188.172 24.9198C188.596 24.9198 188.972 24.8238 189.3 24.6318C189.628 24.4318 189.884 24.1598 190.068 23.8158C190.26 23.4638 190.356 23.0598 190.356 22.6038Z" fill="black"/>
</svg>
