<svg width="172" height="41" viewBox="0 0 172 41" fill="none" xmlns="http://www.w3.org/2000/svg">
<path fill-rule="evenodd" clip-rule="evenodd" d="M10.8793 34.4122C16.9114 38.7259 26.263 35.9528 31.7669 28.2182C37.2706 20.4836 36.8425 10.7165 30.8104 6.40285C24.7784 2.08916 15.4267 4.86234 9.92285 12.5969C4.41906 20.3315 4.84727 30.0984 10.8793 34.4122ZM12.2898 32.0723C17.0437 35.4719 24.4139 33.2865 28.7516 27.1906C33.0893 21.0949 32.7518 13.3973 27.9978 9.99766C23.2439 6.59798 15.8736 8.78356 11.536 14.8793C7.19834 20.975 7.53583 28.6726 12.2898 32.0723Z" fill="white"/>
<path fill-rule="evenodd" clip-rule="evenodd" d="M0.136679 36.9344C-1.09457 43.6718 6.12999 41.7678 16.2732 32.6815C26.4163 23.5955 35.6371 10.768 36.8684 4.03066C37.8992 -1.61036 33.0025 -1.1935 25.4278 4.42467C25.9458 4.47399 26.4564 4.55619 26.9573 4.67205C32.4243 1.09456 35.7867 1.23061 34.984 5.62328C33.9215 11.4375 25.964 22.5072 17.2107 30.3484C8.45737 38.1896 2.22275 39.8326 3.28529 34.0186C3.6323 32.1197 4.71479 29.6601 6.32023 26.9355C6.1974 26.283 6.11786 25.6121 6.0818 24.9281C2.89643 29.5713 0.695032 33.8792 0.136679 36.9344Z" fill="white"/>
<path d="M38.7495 14.8857H44.1697L45.1479 20.9223V30.0038H39.7541V20.1015L38.7495 14.8857ZM50.3565 14.4355C51.749 14.4355 52.9299 14.7268 53.8992 15.3093C54.8688 15.8918 55.609 16.7125 56.1202 17.7716C56.6315 18.8307 56.8871 20.0839 56.8871 21.5312V30.0038H51.4933V22.3257C51.4933 21.1958 51.2377 20.331 50.7265 19.7309C50.2155 19.1307 49.4751 18.8307 48.5057 18.8307C47.8182 18.8307 47.219 18.9895 46.7078 19.3072C46.2142 19.625 45.8266 20.0751 45.5445 20.6576C45.2801 21.2401 45.1479 21.9283 45.1479 22.7228L43.4822 21.849C43.6937 20.2427 44.1256 18.8924 44.7777 17.7981C45.4299 16.6861 46.2318 15.8476 47.1838 15.2828C48.1531 14.718 49.2106 14.4355 50.3565 14.4355ZM62.0691 14.4355C63.4615 14.4355 64.6426 14.7268 65.612 15.3093C66.599 15.8918 67.3482 16.7125 67.8594 17.7716C68.3705 18.8307 68.6261 20.0839 68.6261 21.5312V30.0038H63.2326V22.3257C63.2326 21.1958 62.9769 20.331 62.4657 19.7309C61.9545 19.1307 61.2143 18.8307 60.2447 18.8307C59.5574 18.8307 58.958 18.9895 58.447 19.3072C57.9534 19.625 57.5656 20.0751 57.2835 20.6576C57.0193 21.2401 56.8871 21.9283 56.8871 22.7228L55.2214 21.849C55.4327 20.2427 55.8558 18.8924 56.4904 17.7981C57.1425 16.6861 57.9534 15.8476 58.9228 15.2828C59.8923 14.718 60.941 14.4355 62.0691 14.4355Z" fill="white"/>
<path d="M70.6367 14.8857H76.0567L77.0351 20.9223V30.0038H71.6413V20.1015L70.6367 14.8857ZM82.5873 14.4355C84.0326 14.4355 85.2666 14.7268 86.2889 15.3093C87.3111 15.8918 88.0868 16.7125 88.6154 17.7716C89.1619 18.8307 89.4352 20.0839 89.4352 21.5312V30.0038H84.0414V22.3257C84.0414 21.1958 83.7508 20.331 83.169 19.7309C82.6049 19.1307 81.7854 18.8307 80.71 18.8307C79.9698 18.8307 79.3176 18.9895 78.7537 19.3072C78.2072 19.625 77.7841 20.0751 77.4844 20.6576C77.1849 21.2401 77.0351 21.9283 77.0351 22.7228L75.3694 21.849C75.5809 20.2427 76.0302 18.8924 76.7178 17.7981C77.4053 16.6861 78.2512 15.8476 79.2559 15.2828C80.2607 14.718 81.3711 14.4355 82.5873 14.4355Z" fill="white"/>
<path d="M92.213 14.6469L94.9362 15.1764L97.6331 14.6469V30.0033H92.213V14.6469ZM94.9097 13.4025C93.9756 13.4025 93.2176 13.1731 92.636 12.7141C92.0543 12.2375 91.7634 11.5933 91.7634 10.7813C91.7634 9.98704 92.0543 9.35159 92.636 8.87503C93.2176 8.39845 93.9756 8.16016 94.9097 8.16016C95.8793 8.16016 96.6459 8.39845 97.2101 8.87503C97.7918 9.35159 98.0825 9.98704 98.0825 10.7813C98.0825 11.5933 97.7918 12.2375 97.2101 12.7141C96.6459 13.1731 95.8793 13.4025 94.9097 13.4025Z" fill="white"/>
<path d="M121.227 26.9591H119.535L123.818 14.8857H129.212L123.554 30.0038H118.054L113.322 17.454H115.12L110.334 30.0038H104.834L99.1765 14.8857H104.623L108.88 26.9591H107.188L111.656 14.8857H116.812L121.227 26.9591Z" fill="white"/>
<path d="M143.811 30.0038L143.123 24.5497L143.837 22.4579L143.123 20.3663L143.811 14.8857H149.416L148.464 22.4314L149.416 30.0038H143.811ZM145.08 22.4579C144.833 24.0466 144.34 25.4409 143.599 26.6413C142.877 27.8414 141.951 28.7769 140.823 29.4477C139.713 30.1009 138.444 30.4273 137.016 30.4273C135.535 30.4273 134.231 30.1009 133.103 29.4477C131.992 28.7769 131.12 27.8414 130.485 26.6413C129.851 25.4233 129.533 24.0289 129.533 22.4579C129.533 20.8517 129.851 19.4484 130.485 18.2482C131.12 17.0479 131.992 16.1124 133.103 15.4417C134.231 14.7709 135.535 14.4355 137.016 14.4355C138.444 14.4355 139.713 14.7709 140.823 15.4417C141.951 16.0948 142.885 17.0214 143.626 18.2217C144.366 19.4043 144.851 20.8164 145.08 22.4579ZM135.007 22.4579C135.007 23.1992 135.156 23.8612 135.456 24.4437C135.773 25.0261 136.205 25.4852 136.752 25.8204C137.298 26.1382 137.924 26.297 138.629 26.297C139.369 26.297 140.065 26.1382 140.717 25.8204C141.37 25.4852 141.943 25.0261 142.436 24.4437C142.93 23.8612 143.3 23.1992 143.547 22.4579C143.3 21.6989 142.93 21.0283 142.436 20.4457C141.943 19.8633 141.37 19.4043 140.717 19.069C140.065 18.7336 139.369 18.5659 138.629 18.5659C137.924 18.5659 137.298 18.7336 136.752 19.069C136.205 19.4043 135.773 19.8633 135.456 20.4457C135.156 21.0283 135.007 21.6989 135.007 22.4579Z" fill="white"/>
<path d="M156.982 34.7961C155.872 34.7961 154.885 34.6549 154.021 34.3726C153.157 34.1077 152.32 33.6929 151.509 33.1281V29.3685C152.338 29.8981 153.113 30.2775 153.836 30.507C154.558 30.7364 155.352 30.8512 156.215 30.8512C156.938 30.8512 157.581 30.6923 158.145 30.3745C158.71 30.0567 159.168 29.4743 159.52 28.6271L165.311 14.8857H171.048L163.804 30.2952C163.292 31.4072 162.667 32.2896 161.926 32.9428C161.204 33.6136 160.419 34.09 159.573 34.3726C158.727 34.6549 157.863 34.7961 156.982 34.7961ZM157.167 28.6007L150.742 14.8857H156.691L162.376 28.6007H157.167Z" fill="white"/>
</svg>
