<?xml version="1.0" encoding="utf-8"?>
<!-- Generator: Adobe Illustrator 28.3.0, SVG Export Plug-In . SVG Version: 6.00 Build 0)  -->
<svg version="1.1" id="Layer_1" xmlns="http://www.w3.org/2000/svg" xmlns:xlink="http://www.w3.org/1999/xlink" x="0px" y="0px"
	 viewBox="0 0 400 95.8" style="enable-background:new 0 0 400 95.8;" xml:space="preserve">
<style type="text/css">
	.st0{fill-rule:evenodd;clip-rule:evenodd;fill:url(#SVGID_1_);}
	.st1{fill-rule:evenodd;clip-rule:evenodd;fill:#FFFFFF;}
	.st2{fill:#FFFFFF;}
</style>
<g>
	
		<linearGradient id="SVGID_1_" gradientUnits="userSpaceOnUse" x1="49.9771" y1="87.2071" x2="49.9771" y2="12.8154" gradientTransform="matrix(1 0 0 -1 0 97.7919)">
		<stop  offset="0" style="stop-color:#F7D365"/>
		<stop  offset="0.502" style="stop-color:#EA4683"/>
		<stop  offset="1" style="stop-color:#735FA1"/>
	</linearGradient>
	<path class="st0" d="M26.9,80.3c14,10,35.7,3.6,48.4-14.4C88.1,48,87.1,25.3,73.1,15.3c-14-10-35.7-3.6-48.4,14.4
		C11.9,47.6,12.9,70.3,26.9,80.3z M30.1,74.8c11,7.9,28.1,2.8,38.2-11.3c10.1-14.1,9.3-32-1.7-39.9c-11-7.9-28.1-2.8-38.2,11.3
		S19.1,66.9,30.1,74.8z"/>
	<path class="st1" d="M1.9,86.1c-2.9,15.6,13.9,11.2,37.4-9.9C62.9,55.2,84.3,25.4,87.1,9.8c2.4-13.1-9-12.1-26.5,0.9
		c1.2,0.1,2.4,0.3,3.5,0.6c12.7-8.3,20.5-8,18.6,2.2C80.3,27,61.9,52.7,41.5,70.8C21.2,89,6.8,92.8,9.2,79.3
		c0.8-4.4,3.3-10.1,7-16.4c-0.3-1.5-0.5-3.1-0.6-4.7C8.3,69,3.2,79,1.9,86.1z"/>
	<path class="st2" d="M91.5,35h12.6l2.3,14V70H93.8v-23L91.5,35z M118.4,33.9c3.2,0,6,0.7,8.2,2c2.2,1.4,4,3.3,5.2,5.7
		c1.2,2.5,1.8,5.4,1.8,8.7V70h-12.5V52.2c0-2.6-0.6-4.6-1.8-6c-1.2-1.4-2.9-2.1-5.2-2.1c-1.6,0-3,0.4-4.2,1.1
		c-1.1,0.7-2,1.8-2.7,3.1c-0.6,1.4-0.9,2.9-0.9,4.8l-3.9-2c0.5-3.7,1.5-6.9,3-9.4c1.5-2.6,3.4-4.5,5.6-5.8
		C113.3,34.6,115.8,33.9,118.4,33.9z M145.6,33.9c3.2,0,6,0.7,8.2,2c2.3,1.4,4,3.3,5.2,5.7c1.2,2.5,1.8,5.4,1.8,8.7V70h-12.5V52.2
		c0-2.6-0.6-4.6-1.8-6c-1.2-1.4-2.9-2.1-5.2-2.1c-1.6,0-3,0.4-4.2,1.1c-1.1,0.7-2,1.8-2.7,3.1c-0.6,1.4-0.9,2.9-0.9,4.8l-3.9-2
		c0.5-3.7,1.5-6.9,2.9-9.4c1.5-2.6,3.4-4.5,5.6-5.8C140.5,34.6,143,33.9,145.6,33.9z"/>
	<path class="st2" d="M165.5,35H178l2.3,14V70h-12.5v-23L165.5,35z M193.2,33.9c3.4,0,6.2,0.7,8.6,2c2.4,1.4,4.2,3.3,5.4,5.7
		c1.3,2.5,1.9,5.4,1.9,8.7V70h-12.5V52.2c0-2.6-0.7-4.6-2-6c-1.3-1.4-3.2-2.1-5.7-2.1c-1.7,0-3.2,0.4-4.5,1.1
		c-1.3,0.7-2.2,1.8-2.9,3.1c-0.7,1.4-1,2.9-1,4.8l-3.9-2c0.5-3.7,1.5-6.9,3.1-9.4c1.6-2.6,3.6-4.5,5.9-5.8
		C187.8,34.6,190.4,33.9,193.2,33.9z"/>
	<path class="st2" d="M215.5,34.4l6.3,1.2l6.3-1.2V70h-12.6V34.4z M221.8,31.5c-2.2,0-3.9-0.5-5.3-1.6c-1.3-1.1-2-2.6-2-4.5
		c0-1.8,0.7-3.3,2-4.4c1.3-1.1,3.1-1.7,5.3-1.7c2.2,0,4,0.6,5.3,1.7c1.3,1.1,2,2.6,2,4.4c0,1.9-0.7,3.4-2,4.5
		C225.8,31,224,31.5,221.8,31.5z"/>
	<path class="st2" d="M282.8,63h-3.9l9.9-28h12.5L288.2,70h-12.8l-11-29.1h4.2L257.5,70h-12.8L231.7,35h12.6l9.9,28h-3.9l10.4-28h12
		L282.8,63z"/>
	<path class="st2" d="M335.2,70l-1.6-12.6l1.7-4.9l-1.7-4.9l1.6-12.7h13L346,52.5l2.2,17.6H335.2z M338.1,52.5
		c-0.6,3.7-1.7,6.9-3.4,9.7c-1.7,2.8-3.8,5-6.4,6.5c-2.6,1.5-5.5,2.3-8.8,2.3c-3.4,0-6.5-0.8-9.1-2.3c-2.6-1.6-4.6-3.7-6.1-6.5
		c-1.5-2.8-2.2-6.1-2.2-9.7c0-3.7,0.7-7,2.2-9.8c1.5-2.8,3.5-5,6.1-6.5c2.6-1.6,5.6-2.3,9.1-2.3c3.3,0,6.3,0.8,8.8,2.3
		c2.6,1.5,4.8,3.7,6.5,6.4C336.5,45.5,337.6,48.7,338.1,52.5z M314.8,52.5c0,1.7,0.3,3.3,1,4.6c0.7,1.4,1.7,2.4,3,3.2
		c1.3,0.7,2.7,1.1,4.4,1.1c1.7,0,3.3-0.4,4.8-1.1c1.5-0.8,2.8-1.8,4-3.2c1.1-1.4,2-2.9,2.6-4.6c-0.6-1.8-1.4-3.3-2.6-4.7
		c-1.1-1.4-2.5-2.4-4-3.2c-1.5-0.8-3.1-1.2-4.8-1.2c-1.6,0-3.1,0.4-4.4,1.2c-1.3,0.8-2.3,1.8-3,3.2
		C315.1,49.2,314.8,50.8,314.8,52.5z"/>
	<path class="st2" d="M365.7,81.2c-2.6,0-4.9-0.3-6.9-1c-2-0.6-3.9-1.6-5.8-2.9v-8.7c1.9,1.2,3.7,2.1,5.4,2.6
		c1.7,0.5,3.5,0.8,5.5,0.8c1.7,0,3.2-0.4,4.5-1.1s2.4-2.1,3.2-4.1L385.1,35h13.3l-16.8,35.7c-1.2,2.6-2.6,4.6-4.4,6.1
		c-1.7,1.6-3.5,2.7-5.5,3.3C369.8,80.8,367.8,81.2,365.7,81.2z M366.2,66.8L351.3,35h13.8l13.2,31.8H366.2z"/>
</g>
</svg>
