<svg width="15" height="15" viewBox="0 0 15 15" fill="none" xmlns="http://www.w3.org/2000/svg">
<path d="M7.5 15C11.6421 15 15 11.6421 15 7.5C15 3.35786 11.6421 0 7.5 0C3.35786 0 0 3.35786 0 7.5C0 11.6421 3.35786 15 7.5 15Z" fill="black"/>
<path d="M10.5449 7.7959H5.3999V9.511H10.5449V7.7959Z" fill="#D1FF52"/>
<path d="M12.2605 5.22266H10.5454V7.79546H12.2605V5.22266Z" fill="#D1FF52"/>
<path d="M5.39997 9.51074H3.68457V9.93944V10.3684V12.0832H5.39967V10.3684H5.39997V9.51074Z" fill="#D1FF52"/>
<path d="M10.5453 3.50781H5.39997H5.15337H3.68457V6.93801V7.48551V7.79571H5.39997V7.48551V6.93801V5.22291H10.5453V3.50781Z" fill="#D1FF52"/>
<path d="M10.5449 7.7959H5.3999V9.511H10.5449V7.7959Z" fill="#D1FF52"/>
</svg>
