<svg width="15" height="15" viewBox="0 0 15 15" fill="none" xmlns="http://www.w3.org/2000/svg">
<path d="M7.5 15C11.6421 15 15 11.6421 15 7.5C15 3.35786 11.6421 0 7.5 0C3.35786 0 0 3.35786 0 7.5C0 11.6421 3.35786 15 7.5 15Z" fill="#120900"/>
<path d="M8.36774 2.54318L7.40261 2.49931C7.34893 2.49687 7.30098 2.53259 7.28795 2.58472C7.27013 2.65597 7.32403 2.725 7.39748 2.725H7.76418C7.843 2.725 7.92005 2.74833 7.98563 2.79205L8.35594 3.03892C8.61273 3.21012 8.82314 3.44223 8.96837 3.71455L9.11528 3.99001C9.17543 4.10279 9.2069 4.22864 9.2069 4.35647V4.52098C9.2069 4.62217 9.1667 4.71923 9.09514 4.79078C9.01984 4.86608 8.97943 4.96943 8.98369 5.07584L9.01249 5.79595C9.02689 6.15593 8.94511 6.51326 8.77557 6.83115L8.57471 7.20776C8.54039 7.2764 8.55384 7.35931 8.60811 7.41357L8.73326 7.53872C8.77957 7.58503 8.83964 7.61507 8.90447 7.62433C9.07104 7.64812 9.22503 7.53149 9.24727 7.36471L9.27791 7.13496C9.30479 6.93334 9.44451 6.76457 9.63748 6.70025C9.85959 6.62621 10.0078 6.41585 10.0023 6.18179L9.958 4.27554C9.9554 4.16368 9.98458 4.05339 10.0421 3.95745C10.0973 3.86552 10.1264 3.76032 10.1264 3.65311V3.61646C10.1264 3.26664 9.87626 2.96687 9.53208 2.90429L9.02029 2.81124C8.91644 2.79236 8.81892 2.74795 8.7365 2.68202C8.63136 2.5979 8.50225 2.54929 8.36774 2.54318Z" fill="#110900"/>
<path d="M3.94699 9.44914H4.11603C4.17029 9.44914 4.21847 9.48387 4.23563 9.53535C4.25279 9.58683 4.30097 9.62155 4.35524 9.62155H4.38473C4.47696 9.62155 4.55172 9.54679 4.55172 9.45456V9.17653C4.55172 9.1287 4.55944 9.08118 4.57456 9.0358L4.5899 8.98978C4.60274 8.95126 4.61241 8.91175 4.6188 8.87165L5.24138 4.96638L5.28285 4.5517C5.29311 4.44911 5.26279 4.34659 5.19838 4.26608C5.11735 4.1648 4.9917 4.10983 4.86232 4.11907L4.76213 4.12623C4.4753 4.14672 4.24578 4.37243 4.22051 4.65888L4.12983 5.68659C4.10547 5.96258 3.97813 6.21928 3.77313 6.40565L3.64222 6.52466C3.52477 6.63143 3.45103 6.77793 3.43524 6.93587L3.42399 7.04834C3.41038 7.18442 3.33179 7.30552 3.21304 7.37338C3.0813 7.44866 3 7.58876 3 7.74049V8.48717C3 8.68554 3.12305 8.8631 3.30878 8.93275C3.40671 8.96947 3.48981 9.03743 3.54523 9.12611L3.6412 9.27966C3.7071 9.38509 3.82266 9.44914 3.94699 9.44914Z" fill="#110900"/>
<path d="M12.1114 9.20601L11.9306 9.35061C11.8109 9.44644 11.7545 9.60107 11.7846 9.75148C11.823 9.94327 11.9914 10.0813 12.1869 10.0813H12.2531C12.3646 10.0813 12.4727 10.0434 12.5598 9.97374L12.6678 9.88734C12.8778 9.71935 13 9.46501 13 9.19609V8.63968C13 8.56765 12.9804 8.49697 12.9434 8.4352L12.9093 8.3785C12.8586 8.29397 12.7673 8.24224 12.6687 8.24224C12.529 8.24224 12.4106 8.34494 12.3909 8.4832L12.3464 8.79461C12.3232 8.95664 12.2392 9.10376 12.1114 9.20601Z" fill="#110900"/>
<path d="M6.38357 8.81696H6.2495C6.07362 8.81696 5.93103 8.95954 5.93103 9.13543C5.93103 9.15297 5.92959 9.17048 5.9267 9.18778L5.88078 9.46328C5.87598 9.49212 5.87356 9.5213 5.87356 9.55054V9.66298C5.87356 9.89402 6.06086 10.0813 6.29191 10.0813C6.31946 10.0813 6.34694 10.0786 6.37395 10.0732L6.38991 10.07C6.6839 10.0112 6.8853 9.73893 6.85547 9.44061L6.83385 9.22446C6.81072 8.99312 6.61606 8.81696 6.38357 8.81696Z" fill="#110900"/>
<path d="M4.27138 12.5097L4.2824 12.4965C4.34502 12.4213 4.37931 12.3266 4.37931 12.2288C4.37931 12.1404 4.35131 12.0543 4.29934 11.9829L4.19943 11.8455C4.03214 11.6155 3.73681 11.5177 3.46534 11.6026L3.33899 11.6421C3.13732 11.7051 3 11.8919 3 12.1031C3 12.3316 3.16002 12.5288 3.38356 12.5759L3.8177 12.6673C3.98643 12.7028 4.16099 12.6422 4.27138 12.5097Z" fill="#110900"/>
<path d="M7.19412 3.59389L7.06003 3.66838C6.90172 3.75633 6.82008 3.93791 6.85937 4.11469C6.88971 4.25122 6.84819 4.39378 6.7493 4.49267L6.59465 4.64732C6.46285 4.77913 6.28951 4.86127 6.10403 4.87982L6.02694 4.88753C5.564 4.93382 5.19037 5.28623 5.11713 5.74567L4.61883 8.87134C4.61244 8.91144 4.60278 8.95095 4.58993 8.98948C4.56465 9.06534 4.55176 9.14477 4.55176 9.22474V9.62125V10.5408C4.55176 10.8485 4.81744 11.0889 5.12362 11.0583L5.61488 11.0092C5.6695 11.0037 5.7237 11.0231 5.76252 11.0619L5.80422 11.1036C5.81184 11.1112 5.82218 11.1155 5.83296 11.1155C5.8554 11.1155 5.8736 11.0973 5.8736 11.0749V10.081V9.6811C5.8736 9.56477 5.88321 9.44864 5.90233 9.33389C5.92146 9.21915 5.93107 9.10302 5.93107 8.98669V8.81665C5.93107 8.74031 5.94043 8.66426 5.95895 8.5902L5.97811 8.51354C5.98505 8.48577 5.98997 8.45753 5.99282 8.42905L6.02699 8.08728C6.03779 7.97932 6.12863 7.89711 6.23713 7.89711C6.35376 7.89711 6.44831 7.80256 6.44831 7.68593V7.06042C6.44831 7.00532 6.45375 6.95036 6.46456 6.89633L6.51293 6.65447C6.58431 6.29758 6.71376 5.95481 6.89612 5.63983L7.21675 5.08601C7.24081 5.04445 7.26836 5.005 7.29911 4.9681L7.4216 4.82112C7.49715 4.73046 7.53074 4.61205 7.51405 4.49523L7.50865 4.45741C7.49248 4.34421 7.53346 4.23036 7.61807 4.15344C7.82584 3.96456 7.73289 3.61984 7.45834 3.561L7.44042 3.55716C7.35658 3.5392 7.26907 3.55224 7.19412 3.59389Z" fill="#FEFDFD"/>
<path d="M11.1483 9.50681H11.3904C11.6142 9.50681 11.8313 9.43065 12.0061 9.29086C12.2018 9.13423 12.3306 8.90888 12.366 8.66067L12.385 8.52751C12.4119 8.33966 12.3981 8.14823 12.3445 7.96619L12.2304 7.57804C12.1705 7.37456 12.0496 7.19438 11.884 7.06188C11.6782 6.89729 11.4175 6.81736 11.1549 6.83837L10.4434 6.89529C10.2405 6.91152 10.0519 7.00633 9.91786 7.15952C9.79328 7.3019 9.72461 7.48465 9.72461 7.67384V8.42796C9.72461 8.53331 9.74356 8.6378 9.78055 8.73644C9.85562 8.93661 10.0011 9.10255 10.1897 9.20315L10.4157 9.32366C10.6412 9.44391 10.8928 9.50681 11.1483 9.50681Z" fill="#120901"/>
<path d="M7.73538 7.72638L6.86309 7.88498C6.81684 7.89339 6.76993 7.89762 6.72293 7.89762H6.44875C6.22037 7.89762 6.02915 8.07067 6.00642 8.29792L5.99326 8.42955C5.99041 8.45803 5.9855 8.48627 5.97856 8.51404L5.93457 8.68999C5.93254 8.69811 5.93151 8.70645 5.93151 8.71481C5.93151 8.77134 5.97733 8.81716 6.03385 8.81716H6.47488C6.66404 8.81716 6.8308 8.69308 6.88516 8.5119C6.93423 8.34833 7.07578 8.22953 7.24539 8.20958L7.79794 8.14457C7.88525 8.1343 7.95711 8.07109 7.97843 7.9858C8.0157 7.83671 7.88658 7.69889 7.73538 7.72638Z" fill="#120901"/>
<path d="M4.24813 9.75545L4.17641 10.3293C4.16233 10.4419 4.25012 10.5413 4.36357 10.5413C4.46775 10.5413 4.5522 10.4568 4.5522 10.3527V9.77438C4.5522 9.69009 4.48387 9.62176 4.39958 9.62176C4.32261 9.62176 4.25768 9.67907 4.24813 9.75545Z" fill="#120901"/>
<path d="M5.87404 10.3241V11.0026C5.87404 11.0779 5.8648 11.153 5.84654 11.226L5.83705 11.264C5.82342 11.3185 5.80544 11.3719 5.7833 11.4235L5.71097 11.5923C5.66761 11.6935 5.59245 11.7777 5.49688 11.8324L5.37012 11.9048C5.29081 11.9501 5.24186 12.0345 5.24186 12.1258C5.24186 12.2664 5.35583 12.3804 5.49642 12.3804H5.52632C5.60177 12.3804 5.67413 12.3504 5.72747 12.2971L5.81595 12.2086C5.85449 12.17 5.88747 12.1263 5.91394 12.0787L6.31591 11.3551C6.40232 11.1996 6.4382 11.021 6.41854 10.8441L6.35779 10.2974C6.34414 10.1745 6.24028 10.0815 6.11666 10.0815C5.98266 10.0815 5.87404 10.1901 5.87404 10.3241Z" fill="#120901"/>
<path d="M5.63974 3.92411L5.36052 4.30803C5.32016 4.36353 5.29529 4.42877 5.28846 4.49706C5.26414 4.74025 5.46865 4.94477 5.71185 4.92045L6.13102 4.87853C6.29904 4.86173 6.45607 4.78732 6.57547 4.66791L6.79567 4.44771C6.86568 4.3777 6.89507 4.27678 6.87359 4.18013L6.84441 4.04879C6.81837 3.93159 6.68912 3.87008 6.58174 3.92377C6.50391 3.96268 6.40947 3.94194 6.35512 3.87399L6.31246 3.82067C6.25403 3.74764 6.16186 3.7102 6.06905 3.7218L5.95927 3.73552C5.83128 3.75152 5.71561 3.81978 5.63974 3.92411Z" fill="#FDFDFC"/>
<path d="M7.74388 4.04048L7.69776 4.08241C7.56331 4.20464 7.49818 4.38556 7.52388 4.56543C7.53468 4.64107 7.56118 4.7136 7.60167 4.77839L7.74613 5.00952C7.80026 5.09614 7.84394 5.18887 7.87624 5.28578C7.92017 5.41755 7.94256 5.55555 7.94256 5.69445V6.17719C7.94256 6.25047 7.92197 6.32228 7.88313 6.38443C7.76091 6.57998 7.83358 6.83829 8.03984 6.94142L8.14285 6.99292C8.3832 7.1131 8.67553 7.01991 8.80198 6.78281L8.93434 6.53463C8.99994 6.41164 9.03158 6.27338 9.02601 6.1341L8.99164 5.27478C8.98199 5.03364 8.92831 4.7963 8.83324 4.57448L8.69279 4.24675C8.65306 4.15405 8.59046 4.07294 8.51085 4.01103C8.28204 3.83306 7.95837 3.84549 7.74388 4.04048Z" fill="#FDFDFC"/>
<path d="M6.44831 7.1514V7.72611C6.44831 7.82133 6.5255 7.89853 6.62072 7.89853C6.71594 7.89853 6.79314 7.82133 6.79314 7.72611V7.1514C6.79314 7.05618 6.71594 6.97899 6.62072 6.97899C6.5255 6.97899 6.44831 7.05618 6.44831 7.1514Z" fill="#FDFDFC"/>
<path d="M5.61488 11.0106L4.85316 11.0868C4.70031 11.1021 4.60278 11.2572 4.65527 11.4016L4.71571 11.5678C4.74643 11.6523 4.8545 11.6762 4.91807 11.6127C4.94111 11.5896 4.97236 11.5767 5.00495 11.5767H5.4822C5.51129 11.5767 5.53846 11.5912 5.5546 11.6154C5.59294 11.6729 5.67977 11.665 5.70699 11.6014L5.79887 11.3871C5.81026 11.3605 5.81613 11.3319 5.81613 11.303V11.1927C5.81613 11.1442 5.79684 11.0976 5.76252 11.0633C5.7237 11.0245 5.6695 11.0051 5.61488 11.0106Z" fill="#FDFDFC"/>
<path d="M7.49478 5.07186C7.62082 5.09707 7.71597 4.95941 7.64784 4.85041C7.59495 4.76578 7.4748 4.75759 7.41091 4.83426C7.33975 4.91964 7.38579 5.05006 7.49478 5.07186Z" fill="#120902"/>
<path d="M7.38238 6.8218L7.14035 6.88634C6.93566 6.94093 6.79323 7.12631 6.79323 7.33816C6.79323 7.6299 7.05745 7.85041 7.34449 7.79822L7.8495 7.7064C7.98635 7.68152 8.11553 7.62511 8.22681 7.54166L8.49774 7.33846C8.51065 7.32878 8.52113 7.31622 8.52835 7.30178C8.55403 7.25043 8.53321 7.18798 8.48185 7.1623L7.90794 6.87534C7.74516 6.79395 7.55823 6.77491 7.38238 6.8218Z" fill="#FDFCFC"/>
<path d="M5.45983 11.5766H5.01021C4.97432 11.5766 4.93989 11.5909 4.91451 11.6162C4.84919 11.6816 4.86706 11.7917 4.94969 11.833L5.11353 11.9149C5.19348 11.9549 5.28813 11.9523 5.36574 11.9079L5.52383 11.8176C5.58871 11.7805 5.60861 11.6962 5.56716 11.634C5.54323 11.5982 5.50296 11.5766 5.45983 11.5766Z" fill="#FDFCFC"/>
<path d="M5.86605 11.1475C5.87003 11.1316 5.858 11.1162 5.8416 11.1162C5.82769 11.1162 5.81641 11.1275 5.81641 11.1414C5.81641 11.1711 5.85884 11.1763 5.86605 11.1475Z" fill="#AAA6A3"/>
<path d="M10.4439 7.34632L10.4399 7.36611C10.4241 7.44515 10.4576 7.52591 10.5247 7.57063C10.5644 7.59711 10.6123 7.60842 10.6597 7.6025L10.8043 7.58442C10.9552 7.56555 11.1055 7.62367 11.2045 7.73916C11.3183 7.87192 11.3456 8.05831 11.2746 8.21809L11.2161 8.34964C11.1817 8.42712 11.1106 8.48213 11.027 8.49607L10.9562 8.50787C10.8754 8.52134 10.8161 8.59128 10.8161 8.67323C10.8161 8.69333 10.8197 8.71327 10.8268 8.73209L10.8936 8.91037C10.9507 9.06257 11.0962 9.1634 11.2588 9.1634C11.3784 9.1634 11.4915 9.10846 11.5654 9.01437L11.8137 8.6983C11.9847 8.48072 12.0634 8.2047 12.0328 7.92969L12.0321 7.92308C12.026 7.86883 12.0155 7.81518 12.0005 7.7627L11.997 7.75055C11.9394 7.54885 11.8159 7.37223 11.6462 7.24884L11.5765 7.19815C11.3868 7.06014 11.144 7.01716 10.9184 7.08162L10.6056 7.17101C10.5231 7.19457 10.4607 7.26223 10.4439 7.34632Z" fill="#120902"/>
<path d="M10.8043 7.58295L10.7251 7.59285C10.6364 7.60394 10.5559 7.65062 10.5023 7.72217C10.446 7.7972 10.4243 7.89266 10.4427 7.98463L10.4887 8.21469C10.5137 8.33953 10.6 8.44331 10.7182 8.4906C10.7823 8.5162 10.8521 8.52375 10.9201 8.51242L10.9341 8.51009C11.0757 8.48648 11.196 8.39332 11.2544 8.2621L11.2746 8.21662C11.3456 8.05684 11.3183 7.87045 11.2045 7.73769C11.1055 7.6222 10.9552 7.56408 10.8043 7.58295Z" fill="#F48404"/>
<path d="M10.6766 8.7024H10.7136C10.7704 8.7024 10.8164 8.65637 10.8164 8.59959C10.8164 8.55755 10.7908 8.51974 10.7518 8.50413L10.7175 8.49041C10.6364 8.45798 10.5517 8.52843 10.5689 8.61403C10.5791 8.66541 10.6242 8.7024 10.6766 8.7024Z" fill="#130903"/>
</svg>
