<svg width="11" height="11" viewBox="0 0 11 11" fill="none" xmlns="http://www.w3.org/2000/svg">
<path d="M0 5.5C0 5.16206 0.273167 4.88889 0.611111 4.88889H4.88889V0.611111C4.88889 0.273167 5.16206 0 5.5 0C5.83794 0 6.11111 0.273167 6.11111 0.611111V4.88889H10.3889C10.7268 4.88889 11 5.16206 11 5.5C11 5.83794 10.7268 6.11111 10.3889 6.11111H6.11111V10.3889C6.11111 10.7268 5.83794 11 5.5 11C5.16206 11 4.88889 10.7268 4.88889 10.3889V6.11111H0.611111C0.273167 6.11111 0 5.83794 0 5.5Z" fill="#888893"/>
</svg>
