<svg width="15" height="17" viewBox="0 0 15 17" fill="none" xmlns="http://www.w3.org/2000/svg">
<path d="M13.4583 2.83333H11.2625C11.0981 2.03392 10.6631 1.31562 10.0309 0.799509C9.39865 0.283397 8.60781 0.00103029 7.79167 0L6.375 0C5.55886 0.00103029 4.76802 0.283397 4.13578 0.799509C3.50354 1.31562 3.06857 2.03392 2.90417 2.83333H0.708333C0.520472 2.83333 0.340304 2.90796 0.207466 3.0408C0.0746277 3.17364 0 3.3538 0 3.54167C0 3.72953 0.0746277 3.9097 0.207466 4.04253C0.340304 4.17537 0.520472 4.25 0.708333 4.25H1.41667V13.4583C1.41779 14.3973 1.79129 15.2975 2.45524 15.9614C3.11919 16.6254 4.01937 16.9989 4.95833 17H9.20833C10.1473 16.9989 11.0475 16.6254 11.7114 15.9614C12.3754 15.2975 12.7489 14.3973 12.75 13.4583V4.25H13.4583C13.6462 4.25 13.8264 4.17537 13.9592 4.04253C14.092 3.9097 14.1667 3.72953 14.1667 3.54167C14.1667 3.3538 14.092 3.17364 13.9592 3.0408C13.8264 2.90796 13.6462 2.83333 13.4583 2.83333ZM6.375 1.41667H7.79167C8.23103 1.4172 8.65947 1.55364 9.01823 1.80727C9.37699 2.0609 9.6485 2.41931 9.79554 2.83333H4.37112C4.51816 2.41931 4.78968 2.0609 5.14844 1.80727C5.5072 1.55364 5.93564 1.4172 6.375 1.41667ZM11.3333 13.4583C11.3333 14.0219 11.1095 14.5624 10.7109 14.9609C10.3124 15.3595 9.77192 15.5833 9.20833 15.5833H4.95833C4.39475 15.5833 3.85425 15.3595 3.45573 14.9609C3.05722 14.5624 2.83333 14.0219 2.83333 13.4583V4.25H11.3333V13.4583Z" fill="#888893"/>
<path d="M5.66683 12.7497C5.85469 12.7497 6.03486 12.675 6.1677 12.5422C6.30053 12.4094 6.37516 12.2292 6.37516 12.0413V7.79134C6.37516 7.60348 6.30053 7.42331 6.1677 7.29047C6.03486 7.15764 5.85469 7.08301 5.66683 7.08301C5.47897 7.08301 5.2988 7.15764 5.16596 7.29047C5.03312 7.42331 4.9585 7.60348 4.9585 7.79134V12.0413C4.9585 12.2292 5.03312 12.4094 5.16596 12.5422C5.2988 12.675 5.47897 12.7497 5.66683 12.7497Z" fill="#888893"/>
<path d="M8.50008 12.7497C8.68794 12.7497 8.86811 12.675 9.00095 12.5422C9.13379 12.4094 9.20841 12.2292 9.20841 12.0413V7.79134C9.20841 7.60348 9.13379 7.42331 9.00095 7.29047C8.86811 7.15764 8.68794 7.08301 8.50008 7.08301C8.31222 7.08301 8.13205 7.15764 7.99921 7.29047C7.86638 7.42331 7.79175 7.60348 7.79175 7.79134V12.0413C7.79175 12.2292 7.86638 12.4094 7.99921 12.5422C8.13205 12.675 8.31222 12.7497 8.50008 12.7497Z" fill="#888893"/>
</svg>
