<svg width="212" height="36" viewBox="0 0 212 36" fill="none" xmlns="http://www.w3.org/2000/svg">
<path fill-rule="evenodd" clip-rule="evenodd" d="M0.339814 31.2014V35.6678C0.385971 35.6849 0.433466 35.6982 0.481814 35.7075C5.87404 35.7201 11.2656 35.7201 16.6566 35.7075C16.7411 35.6942 16.8216 35.6623 16.8923 35.6142C16.963 35.5661 17.0221 35.5029 17.0655 35.4292C17.785 34.1051 18.4944 32.776 19.1937 31.4418C19.2762 31.2754 19.3183 31.0918 19.3167 30.906C19.3281 29.38 19.3281 27.8539 19.3167 26.3279C19.3115 26.1115 19.2572 25.8992 19.1577 25.7069C18.866 25.1451 18.5688 24.5855 18.2716 24.0259C17.8917 23.3105 17.5118 22.595 17.1432 21.8748C17.0937 21.7467 17.0031 21.6387 16.8855 21.5677C16.768 21.4968 16.6301 21.4669 16.4938 21.4829H5.42721H4.87814V16.3179H19.2807V11.8325C19.2438 11.8297 19.212 11.8267 19.1834 11.824C19.1344 11.8193 19.0949 11.8155 19.0554 11.8155C13.7124 11.818 8.36819 11.8149 3.02267 11.806C2.91639 11.7981 2.81047 11.8255 2.72143 11.8841C2.63238 11.9427 2.56522 12.0291 2.53041 12.1298C2.22494 12.7145 1.91644 13.2973 1.60796 13.8801L1.60796 13.8801L1.60796 13.8801C1.22621 14.6013 0.844488 15.3225 0.468559 16.0471C0.369685 16.2395 0.315939 16.4519 0.311409 16.6681C0.296262 18.1462 0.296262 19.6255 0.311409 21.1061C0.316047 21.3376 0.373695 21.5649 0.479919 21.7707C0.768934 22.3275 1.06355 22.8816 1.3582 23.4357L1.35825 23.4358L1.35826 23.4358C1.74883 24.1703 2.13945 24.9049 2.51715 25.6463C2.56525 25.7654 2.65168 25.8651 2.76279 25.9296C2.87389 25.994 3.00332 26.0196 3.13059 26.0023H14.1971H14.7651V31.2014H0.339814ZM113.509 11.8209H110.04L110.031 35.6807H114.575V16.9878L114.667 17.1498C114.765 17.3214 114.831 17.438 114.893 17.5558C118.028 23.4605 121.159 29.3677 124.284 35.2774C124.433 35.5595 124.568 35.7337 124.946 35.7223C125.682 35.6992 126.417 35.7035 127.153 35.7077C127.442 35.7093 127.73 35.711 128.019 35.711H129V11.8549H124.471V26.9486C124.323 26.7993 124.201 26.6258 124.111 26.4355C121.596 21.6971 119.083 16.9575 116.572 12.2166C116.523 12.0871 116.432 11.9777 116.314 11.906C116.195 11.8343 116.056 11.8043 115.919 11.8209C115.384 11.831 114.848 11.8276 114.312 11.8242C114.044 11.8225 113.776 11.8209 113.509 11.8209ZM106.587 13.056V13.0549V13.0538V13.0527V13.0516C106.59 12.6555 106.592 12.2575 106.592 11.8571H87.6117V35.6677H92.1406V26.0268H102.079V35.6771H106.555V21.4922H103.843C103.883 21.4135 103.917 21.3445 103.948 21.2816L103.949 21.2797L103.949 21.2789C103.998 21.1812 104.038 21.0984 104.082 21.017C104.266 20.6692 104.449 20.3207 104.631 19.972C105.133 19.0147 105.636 18.0567 106.165 17.1129C106.466 16.597 106.614 16.006 106.592 15.4089C106.576 14.6282 106.581 13.8457 106.587 13.056ZM92.1576 16.3575H102.047C101.818 16.7898 101.589 17.2136 101.364 17.6325C100.811 18.6611 100.273 19.6596 99.7783 20.6781C99.4792 21.2972 99.1251 21.5206 98.4246 21.5017C96.94 21.4624 95.4535 21.4697 93.9539 21.477H93.9537H93.9535H93.9532H93.953C93.3568 21.4799 92.7586 21.4828 92.1576 21.4828V16.3575ZM69.7103 31.1655H79.656V11.8629H84.1621V35.6773H65.2098V11.8611H69.7103V31.1655ZM20.8001 35.7117L22.2144 33.0611C25.9014 26.1188 29.5858 19.1766 33.2677 12.2343C33.3209 12.0995 33.4171 11.986 33.5414 11.9114C33.6656 11.8368 33.811 11.8052 33.955 11.8216C35.2898 11.8358 36.6257 11.834 37.961 11.8322C38.4061 11.8317 38.8512 11.8311 39.2961 11.8311H39.7903V35.6871H35.3012V32.3321C35.2365 32.3282 35.1768 32.3237 35.1204 32.3194C35.0117 32.3111 34.9149 32.3037 34.8165 32.3037H27.582C27.446 32.2851 27.3077 32.3122 27.1888 32.3807C27.0699 32.4492 26.9771 32.5554 26.925 32.6824C26.5098 33.5199 26.0594 34.3446 25.612 35.1639L25.612 35.164L25.4918 35.3842C25.4142 35.5243 25.2362 35.6985 25.1018 35.7004C24.0397 35.7162 22.9765 35.7145 21.8691 35.7128H21.8677C21.5167 35.7123 21.1613 35.7117 20.8001 35.7117ZM35.2576 27.773V16.9809L29.5397 27.773H35.2576ZM54.7028 35.6789V16.31H61.8956V11.8493H43.0001V16.3384H50.1948V35.6789H54.7028Z" fill="#692EFF"/>
<path d="M147.597 23C147.491 22.6136 147.335 22.2519 147.131 21.9148C146.926 21.5739 146.672 21.2765 146.369 21.0227C146.07 20.7652 145.723 20.5644 145.33 20.4205C144.939 20.2765 144.504 20.2045 144.023 20.2045C143.265 20.2045 142.587 20.4015 141.989 20.7955C141.39 21.1894 140.917 21.7576 140.568 22.5C140.223 23.2424 140.051 24.1364 140.051 25.1818C140.051 26.2235 140.225 27.1155 140.574 27.858C140.922 28.6004 141.4 29.1705 142.006 29.5682C142.616 29.9621 143.312 30.1591 144.097 30.1591C144.813 30.1591 145.445 30 145.994 29.6818C146.544 29.3636 146.972 28.9091 147.278 28.3182C147.589 27.7273 147.741 27.0246 147.733 26.2102L148.074 26.3182H144.347V25.3636H148.767V26.3182C148.767 27.3106 148.566 28.1686 148.165 28.892C147.763 29.6155 147.212 30.1742 146.511 30.5682C145.811 30.9621 145.006 31.1591 144.097 31.1591C143.081 31.1591 142.193 30.9148 141.432 30.4261C140.67 29.9337 140.078 29.2405 139.653 28.3466C139.233 27.4489 139.023 26.3939 139.023 25.1818C139.023 24.2689 139.144 23.4451 139.386 22.7102C139.629 21.9754 139.972 21.3466 140.415 20.8239C140.862 20.3011 141.39 19.9015 142 19.625C142.61 19.3447 143.284 19.2045 144.023 19.2045C144.659 19.2045 145.241 19.3049 145.767 19.5057C146.297 19.7064 146.763 19.983 147.165 20.3352C147.57 20.6837 147.902 21.0871 148.159 21.5455C148.42 22 148.597 22.4848 148.688 23H147.597ZM151.062 31H149.949L154.182 19.3636H155.318L159.551 31H158.438L154.79 20.7443H154.71L151.062 31ZM151.864 26.5398H157.636V27.4943H151.864V26.5398ZM159.482 20.3182V19.3636H167.919V20.3182H164.232V31H163.169V20.3182H159.482ZM170.311 31V19.3636H177.061V20.3182H171.374V24.6989H176.703V25.6534H171.374V30.0455H177.175V31H170.311ZM181.834 31L178.646 19.3636H179.726L182.362 29.3693H182.453L185.089 19.3636H186.317L188.953 29.3693H189.044L191.68 19.3636H192.766L189.578 31H188.442L185.743 21.1307H185.669L182.97 31H181.834ZM193.797 31H192.683L196.916 19.3636H198.053L202.286 31H201.172L197.524 20.7443H197.445L193.797 31ZM194.598 26.5398H200.371V27.4943H194.598V26.5398ZM202.001 19.3636H203.229L206.678 24.8864H206.78L210.229 19.3636H211.456L207.257 25.9602V31H206.2V25.9602L202.001 19.3636Z" fill="#ECC265"/>
<rect x="186" width="26" height="12" rx="2" fill="#692EFF"/>
<path d="M189.506 9V3.18182H191.835C192.263 3.18182 192.62 3.24527 192.906 3.37216C193.192 3.49905 193.407 3.67519 193.551 3.90057C193.695 4.12405 193.767 4.38163 193.767 4.6733C193.767 4.90057 193.722 5.10038 193.631 5.27273C193.54 5.44318 193.415 5.58333 193.256 5.69318C193.098 5.80114 192.919 5.87784 192.716 5.9233V5.98011C192.938 5.98958 193.145 6.05208 193.338 6.16761C193.533 6.28314 193.691 6.44508 193.812 6.65341C193.934 6.85985 193.994 7.10606 193.994 7.39205C193.994 7.70076 193.918 7.97633 193.764 8.21875C193.613 8.45928 193.388 8.64962 193.091 8.78977C192.794 8.92992 192.427 9 191.991 9H189.506ZM190.736 7.99432H191.739C192.081 7.99432 192.331 7.92898 192.489 7.7983C192.646 7.66572 192.724 7.48958 192.724 7.26989C192.724 7.1089 192.686 6.96686 192.608 6.84375C192.53 6.72064 192.42 6.62405 192.276 6.55398C192.134 6.4839 191.964 6.44886 191.767 6.44886H190.736V7.99432ZM190.736 5.61648H191.648C191.816 5.61648 191.966 5.58712 192.097 5.52841C192.229 5.4678 192.333 5.38258 192.409 5.27273C192.487 5.16288 192.526 5.03125 192.526 4.87784C192.526 4.66761 192.451 4.49811 192.301 4.36932C192.153 4.24053 191.943 4.17614 191.67 4.17614H190.736V5.61648ZM194.795 9V3.18182H198.715V4.19602H196.025V5.58239H198.513V6.59659H196.025V7.9858H198.727V9H194.795ZM199.472 4.19602V3.18182H204.25V4.19602H202.469V9H201.253V4.19602H199.472ZM205.329 9H204.011L206.019 3.18182H207.604L209.61 9H208.292L206.835 4.51136H206.789L205.329 9ZM205.246 6.71307H208.36V7.6733H205.246V6.71307Z" fill="white"/>
</svg>
