<svg width="436" height="49" viewBox="0 0 436 49" fill="none" xmlns="http://www.w3.org/2000/svg">
<path fill-rule="evenodd" clip-rule="evenodd" d="M0.081163 48.7065V39.5902H29.5245V28.9784H28.3651H5.77737C5.51759 29.0138 5.25342 28.9616 5.02665 28.83C4.79988 28.6985 4.62346 28.495 4.52529 28.2519C3.75434 26.7387 2.95703 25.2392 2.15984 23.74L2.15982 23.74L2.15981 23.7399L2.15978 23.7399L2.15975 23.7398C1.55835 22.6088 0.957025 21.478 0.367129 20.3414C0.150318 19.9215 0.032653 19.4574 0.0231867 18.985C-0.00772891 15.9629 -0.00772891 12.9435 0.0231867 9.92667C0.032433 9.48528 0.142132 9.05179 0.343943 8.65913C1.11125 7.18008 1.89039 5.70812 2.66957 4.23606L2.66958 4.23605C3.2992 3.04655 3.92886 1.85699 4.55234 0.663567C4.6234 0.457965 4.76048 0.281646 4.94223 0.162112C5.12398 0.042578 5.34016 -0.0134607 5.55709 0.00273626C16.4677 0.0207704 27.3758 0.0272182 38.2813 0.0220656C38.3619 0.0220656 38.4424 0.0297776 38.5425 0.039355L38.5425 0.039357C38.6008 0.0449384 38.6658 0.0511532 38.7412 0.0568443V9.21174H9.34425V19.754H10.465H33.0527C33.3311 19.7215 33.6123 19.7824 33.8523 19.9272C34.0922 20.072 34.2773 20.2925 34.3782 20.5539C35.1306 22.024 35.9061 23.4844 36.6816 24.9446L36.6816 24.9448L36.6817 24.9449L36.6818 24.945C37.2883 26.0871 37.8947 27.2291 38.49 28.3756C38.693 28.768 38.804 29.2014 38.8146 29.6431C38.8378 32.7579 38.8378 35.8726 38.8146 38.9874C38.8179 39.3666 38.7318 39.7412 38.5634 40.081C37.1362 42.8042 35.6882 45.517 34.2198 48.2196C34.1312 48.37 34.0104 48.499 33.8661 48.5972C33.7218 48.6954 33.5575 48.7604 33.385 48.7876C22.3816 48.8134 11.377 48.8134 0.370997 48.7876C0.272315 48.7686 0.175374 48.7415 0.081163 48.7065ZM235.763 0.032654H228.683L228.664 48.7325H237.938V10.5788C238.005 10.6957 238.065 10.8017 238.12 10.899L238.126 10.909C238.326 11.2594 238.461 11.4976 238.588 11.7381C244.987 23.79 251.376 35.8471 257.755 47.9094C258.061 48.4852 258.335 48.8407 259.108 48.8176C260.609 48.7704 262.11 48.779 263.611 48.7876C264.201 48.791 264.79 48.7944 265.38 48.7944H267.382V0.102211H258.138V30.9097C257.835 30.6049 257.587 30.2507 257.404 29.8624C252.269 20.1909 247.14 10.5169 242.015 0.840324C241.915 0.57602 241.73 0.352837 241.488 0.20643C241.246 0.0600216 240.963 -0.00116219 240.682 0.032654C239.59 0.0532671 238.495 0.0463925 237.402 0.0395215C236.855 0.0360873 236.309 0.032654 235.763 0.032654ZM221.635 2.55441V2.55242V2.55042V2.54841V2.54641C221.64 1.73756 221.646 0.924975 221.646 0.107228H182.905V48.7066H192.149V29.0288H212.433V48.7259H221.569V19.7734H216.035C216.117 19.6107 216.187 19.4684 216.251 19.3388L216.251 19.3377L216.252 19.3369L216.253 19.335C216.35 19.1369 216.433 18.9688 216.522 18.8035C216.897 18.0935 217.27 17.382 217.644 16.6702C218.668 14.7163 219.693 12.7611 220.773 10.835C221.387 9.7818 221.69 8.57562 221.646 7.35694C221.613 5.76369 221.624 4.16702 221.635 2.55557V2.55441ZM192.183 9.29304H212.367C211.9 10.1752 211.435 11.0401 210.975 11.8949L210.975 11.8951C209.845 13.9948 208.748 16.0328 207.738 18.1117C207.127 19.3754 206.405 19.8314 204.975 19.7928C201.945 19.7126 198.911 19.7274 195.85 19.7423H195.85H195.849H195.849H195.849H195.849C194.632 19.7482 193.41 19.7541 192.183 19.7541V9.29304ZM166.666 39.518H146.366V0.115969H137.18V48.727H175.863V0.119837H166.666V39.518ZM45.7358 48.797L48.6226 43.3868C56.148 29.2171 63.6682 15.0474 71.1833 0.877748C71.2919 0.60259 71.4882 0.370917 71.7418 0.218616C71.9954 0.0663152 72.2922 0.00188761 72.5861 0.0352997C75.3105 0.0642832 78.0372 0.0606575 80.7627 0.0570332C81.6712 0.0558251 82.5796 0.0546172 83.4877 0.0546172H84.4963V48.7468H75.3337V41.8989C75.2018 41.891 75.0802 41.8818 74.9652 41.873L74.9648 41.873C74.743 41.8561 74.5454 41.841 74.3444 41.841H59.5783C59.3008 41.8029 59.0184 41.8582 58.7757 41.9981C58.5329 42.138 58.3436 42.3546 58.2374 42.6139C57.3897 44.3233 56.4705 46.0066 55.5574 47.6789L55.312 48.1284C55.1535 48.4144 54.7903 48.7699 54.5159 48.7738C52.3481 48.8061 50.1781 48.8027 47.918 48.7992H47.9157C47.1991 48.7981 46.4734 48.797 45.7358 48.797ZM75.2448 32.5933V10.5659L63.5742 32.5933H75.2448ZM115.462 48.7303V9.1969H130.143V0.0922446H91.576V9.25487H106.261V48.7303H115.462Z" fill="#692EFF"/>
<path d="M305.396 22.9001C305.179 22.1112 304.862 21.3726 304.443 20.6842C304.025 19.9882 303.506 19.381 302.886 18.8628C302.274 18.3369 301.565 17.927 300.76 17.6331C299.962 17.3392 299.071 17.1922 298.087 17.1922C296.538 17.1922 295.151 17.5944 293.927 18.3988C292.703 19.2031 291.735 20.3633 291.022 21.8792C290.317 23.3951 289.964 25.2204 289.964 27.355C289.964 29.4819 290.321 31.3034 291.033 32.8193C291.746 34.3352 292.722 35.4992 293.962 36.3113C295.209 37.1156 296.634 37.5178 298.238 37.5178C299.702 37.5178 300.996 37.193 302.119 36.5433C303.243 35.8936 304.118 34.9655 304.745 33.759C305.381 32.5524 305.691 31.1177 305.675 29.4549L306.372 29.6753H298.749V27.7263H307.79V29.6753C307.79 31.7017 307.379 33.4535 306.558 34.9307C305.737 36.408 304.61 37.5488 303.177 38.3531C301.744 39.1575 300.097 39.5597 298.238 39.5597C296.162 39.5597 294.345 39.0608 292.788 38.0631C291.231 37.0576 290.019 35.6423 289.151 33.817C288.291 31.984 287.861 29.83 287.861 27.355C287.861 25.4911 288.109 23.8089 288.605 22.3084C289.101 20.808 289.802 19.5241 290.708 18.4568C291.622 17.3895 292.703 16.5735 293.95 16.0089C295.197 15.4366 296.576 15.1504 298.087 15.1504C299.388 15.1504 300.578 15.3553 301.654 15.7653C302.739 16.1752 303.692 16.7398 304.513 17.4591C305.342 18.1706 306.02 18.9943 306.547 19.9302C307.081 20.8583 307.441 21.8482 307.627 22.9001H305.396Z" fill="#ECC265"/>
<path d="M312.485 39.2348H310.207L318.864 15.4752H321.188L329.845 39.2348H327.568L320.108 18.2944H319.945L312.485 39.2348ZM314.123 30.1278H325.929V32.0768H314.123V30.1278Z" fill="#ECC265"/>
<path d="M329.703 17.4243V15.4752H346.959V17.4243H339.418V39.2348H337.245V17.4243H329.703Z" fill="#ECC265"/>
<path d="M351.851 39.2348V15.4752H365.656V17.4243H354.024V26.3689H364.924V28.3179H354.024V37.2858H365.889V39.2348H351.851Z" fill="#ECC265"/>
<path d="M375.417 39.2348L368.898 15.4752H371.106L376.498 35.9052H376.684L382.076 15.4752H384.586L389.978 35.9052H390.164L395.556 15.4752H397.775L391.256 39.2348H388.932L383.412 19.0833H383.261L377.742 39.2348H375.417Z" fill="#ECC265"/>
<path d="M399.884 39.2348H397.607L406.264 15.4752H408.588L417.245 39.2348H414.967L407.507 18.2944H407.344L399.884 39.2348ZM401.523 30.1278H413.329V32.0768H401.523V30.1278Z" fill="#ECC265"/>
<path d="M416.664 15.4752H419.174L426.227 26.7518H426.437L433.49 15.4752H436L427.413 28.9444V39.2348H425.251V28.9444L416.664 15.4752Z" fill="#ECC265"/>
</svg>
