<svg width="212" height="25" viewBox="0 0 212 25" fill="none" xmlns="http://www.w3.org/2000/svg">
<path fill-rule="evenodd" clip-rule="evenodd" d="M0.339814 20.2014V24.6678C0.385971 24.6849 0.433466 24.6982 0.481814 24.7075C5.87404 24.7201 11.2656 24.7201 16.6566 24.7075C16.7411 24.6942 16.8216 24.6623 16.8923 24.6142C16.963 24.5661 17.0221 24.5029 17.0655 24.4292C17.785 23.1051 18.4944 21.776 19.1937 20.4418C19.2762 20.2754 19.3183 20.0918 19.3167 19.906C19.3281 18.38 19.3281 16.8539 19.3167 15.3279C19.3115 15.1115 19.2572 14.8992 19.1577 14.7069C18.866 14.1451 18.5688 13.5855 18.2716 13.0259C17.8917 12.3105 17.5118 11.595 17.1432 10.8748C17.0937 10.7467 17.0031 10.6387 16.8855 10.5677C16.768 10.4968 16.6301 10.4669 16.4938 10.4829H5.42721H4.87814V5.31785H19.2807V0.832538C19.2438 0.829749 19.212 0.826704 19.1834 0.823969C19.1344 0.819276 19.0949 0.815498 19.0554 0.815498C13.7124 0.818023 8.36819 0.814864 3.02267 0.806028C2.91639 0.798093 2.81047 0.825548 2.72143 0.884112C2.63238 0.942676 2.56522 1.02906 2.53041 1.12979C2.22494 1.7145 1.91644 2.29732 1.60796 2.8801L1.60796 2.88011L1.60796 2.88011C1.22621 3.60132 0.844488 4.32248 0.468559 5.04711C0.369685 5.23949 0.315939 5.45187 0.311409 5.66812C0.296262 7.14619 0.296262 8.62551 0.311409 10.1061C0.316047 10.3376 0.373695 10.5649 0.479919 10.7707C0.768934 11.3275 1.06355 11.8816 1.3582 12.4357L1.35825 12.4358L1.35826 12.4358C1.74883 13.1703 2.13945 13.9049 2.51715 14.6463C2.56525 14.7654 2.65168 14.8651 2.76279 14.9296C2.87389 14.994 3.00332 15.0196 3.13059 15.0023H14.1971H14.7651V20.2014H0.339814ZM113.509 0.820857H110.04L110.031 24.6807H114.575V5.98777L114.667 6.14979C114.765 6.32136 114.831 6.438 114.893 6.55578C118.028 12.4605 121.159 18.3677 124.284 24.2774C124.433 24.5595 124.568 24.7337 124.946 24.7223C125.682 24.6992 126.417 24.7035 127.153 24.7077C127.442 24.7093 127.73 24.711 128.019 24.711H129V0.854935H124.471V15.9486C124.323 15.7993 124.201 15.6258 124.111 15.4355C121.596 10.6971 119.083 5.95748 116.572 1.21656C116.523 1.08707 116.432 0.977726 116.314 0.905996C116.195 0.834265 116.056 0.804289 115.919 0.820857C115.384 0.830956 114.848 0.827588 114.312 0.824221C114.044 0.822539 113.776 0.820857 113.509 0.820857ZM106.587 2.05601V2.05491V2.05381V2.0527V2.0516C106.59 1.65547 106.592 1.25753 106.592 0.857051H87.6117V24.6677H92.1406V15.0268H102.079V24.6771H106.555V10.4922H103.843C103.883 10.4135 103.917 10.3445 103.948 10.2816L103.949 10.2797L103.949 10.2789C103.998 10.1812 104.038 10.0984 104.082 10.017C104.266 9.66925 104.449 9.32068 104.631 8.97202C105.133 8.0147 105.636 7.0567 106.165 6.11295C106.466 5.59697 106.614 5.00602 106.592 4.40895C106.576 3.62817 106.581 2.84571 106.587 2.05601ZM92.1576 5.35751H102.047C101.818 5.78976 101.589 6.21361 101.364 6.63245C100.811 7.66111 100.273 8.65957 99.7783 9.67811C99.4792 10.2972 99.1251 10.5206 98.4246 10.5017C96.94 10.4624 95.4535 10.4697 93.9539 10.477H93.9537H93.9535H93.9532H93.953C93.3568 10.4799 92.7586 10.4828 92.1576 10.4828V5.35751ZM69.7103 20.1655H79.656V0.862949H84.1621V24.6773H65.2098V0.861053H69.7103V20.1655ZM20.8001 24.7117L22.2144 22.0611C25.9014 15.1188 29.5858 8.17658 33.2677 1.23435C33.3209 1.09954 33.4171 0.986031 33.5414 0.911413C33.6656 0.836796 33.811 0.80523 33.955 0.8216C35.2898 0.8358 36.6257 0.834024 37.961 0.832248C38.4061 0.831656 38.8512 0.831065 39.2961 0.831065H39.7903V24.6871H35.3012V21.3321C35.2365 21.3282 35.1768 21.3237 35.1204 21.3194C35.0117 21.3111 34.9149 21.3037 34.8165 21.3037H27.582C27.446 21.2851 27.3077 21.3122 27.1888 21.3807C27.0699 21.4492 26.9771 21.5554 26.925 21.6824C26.5098 22.5199 26.0594 23.3446 25.612 24.1639L25.612 24.164L25.4918 24.3842C25.4142 24.5243 25.2362 24.6985 25.1018 24.7004C24.0397 24.7162 22.9765 24.7145 21.8691 24.7128H21.8677C21.5167 24.7123 21.1613 24.7117 20.8001 24.7117ZM35.2576 16.773V5.98094L29.5397 16.773H35.2576ZM54.7028 24.6789V5.31004H61.8956V0.849335H43.0001V5.33843H50.1948V24.6789H54.7028Z" fill="#692EFF"/>
<path d="M147.597 12C147.491 11.6136 147.335 11.2519 147.131 10.9148C146.926 10.5739 146.672 10.2765 146.369 10.0227C146.07 9.76515 145.723 9.56439 145.33 9.42045C144.939 9.27651 144.504 9.20455 144.023 9.20455C143.265 9.20455 142.587 9.40151 141.989 9.79545C141.39 10.1894 140.917 10.7576 140.568 11.5C140.223 12.2424 140.051 13.1364 140.051 14.1818C140.051 15.2235 140.225 16.1155 140.574 16.858C140.922 17.6004 141.4 18.1705 142.006 18.5682C142.616 18.9621 143.312 19.1591 144.097 19.1591C144.813 19.1591 145.445 19 145.994 18.6818C146.544 18.3636 146.972 17.9091 147.278 17.3182C147.589 16.7273 147.741 16.0246 147.733 15.2102L148.074 15.3182H144.347V14.3636H148.767V15.3182C148.767 16.3106 148.566 17.1686 148.165 17.892C147.763 18.6155 147.212 19.1742 146.511 19.5682C145.811 19.9621 145.006 20.1591 144.097 20.1591C143.081 20.1591 142.193 19.9148 141.432 19.4261C140.67 18.9337 140.078 18.2405 139.653 17.3466C139.233 16.4489 139.023 15.3939 139.023 14.1818C139.023 13.2689 139.144 12.4451 139.386 11.7102C139.629 10.9754 139.972 10.3466 140.415 9.82386C140.862 9.30114 141.39 8.90151 142 8.625C142.61 8.3447 143.284 8.20455 144.023 8.20455C144.659 8.20455 145.241 8.30492 145.767 8.50568C146.297 8.70644 146.763 8.98295 147.165 9.33523C147.57 9.68371 147.902 10.0871 148.159 10.5455C148.42 11 148.597 11.4848 148.688 12H147.597ZM151.062 20H149.949L154.182 8.36364H155.318L159.551 20H158.438L154.79 9.74432H154.71L151.062 20ZM151.864 15.5398H157.636V16.4943H151.864V15.5398ZM159.482 9.31818V8.36364H167.919V9.31818H164.232V20H163.169V9.31818H159.482ZM170.311 20V8.36364H177.061V9.31818H171.374V13.6989H176.703V14.6534H171.374V19.0455H177.175V20H170.311ZM181.834 20L178.646 8.36364H179.726L182.362 18.3693H182.453L185.089 8.36364H186.317L188.953 18.3693H189.044L191.68 8.36364H192.766L189.578 20H188.442L185.743 10.1307H185.669L182.97 20H181.834ZM193.797 20H192.683L196.916 8.36364H198.053L202.286 20H201.172L197.524 9.74432H197.445L193.797 20ZM194.598 15.5398H200.371V16.4943H194.598V15.5398ZM202.001 8.36364H203.229L206.678 13.8864H206.78L210.229 8.36364H211.456L207.257 14.9602V20H206.2V14.9602L202.001 8.36364Z" fill="#ECC265"/>
</svg>
