<svg width="212" height="36" viewBox="0 0 212 36" fill="none" xmlns="http://www.w3.org/2000/svg">
<path fill-rule="evenodd" clip-rule="evenodd" d="M0.0397647 31.2014V35.6678C0.085922 35.6849 0.133417 35.6982 0.181765 35.7075C5.57399 35.7201 10.9656 35.7201 16.3565 35.7075C16.441 35.6942 16.5215 35.6623 16.5922 35.6142C16.6629 35.5661 16.7221 35.5029 16.7655 35.4292C17.485 34.1051 18.1943 32.776 18.8936 31.4418C18.9761 31.2754 19.0183 31.0918 19.0167 30.906C19.028 29.38 19.028 27.8539 19.0167 26.3279C19.0115 26.1115 18.9571 25.8992 18.8576 25.7069C18.5659 25.1451 18.2688 24.5855 17.9716 24.0259C17.5917 23.3105 17.2117 22.595 16.8431 21.8748C16.7937 21.7467 16.703 21.6387 16.5855 21.5677C16.4679 21.4968 16.3301 21.4669 16.1937 21.4829H5.12716H4.57809V16.3179H18.9807V11.8325C18.9438 11.8297 18.9119 11.8267 18.8834 11.824C18.8343 11.8193 18.7949 11.8155 18.7554 11.8155C13.4124 11.818 8.06814 11.8149 2.72262 11.806C2.61634 11.7981 2.51042 11.8255 2.42138 11.8841C2.33233 11.9427 2.26517 12.0291 2.23036 12.1298C1.92489 12.7145 1.6164 13.2973 1.30792 13.8801L1.30791 13.8801C0.926165 14.6013 0.544441 15.3225 0.16851 16.0471C0.0696357 16.2395 0.0158901 16.4519 0.01136 16.6681C-0.00378667 18.1462 -0.00378667 19.6255 0.01136 21.1061C0.0159979 21.3376 0.0736462 21.5649 0.17987 21.7707C0.468885 22.3275 0.763502 22.8816 1.05815 23.4357L1.05821 23.4358L1.05821 23.4358C1.44878 24.1703 1.8394 24.9049 2.2171 25.6463C2.2652 25.7654 2.35163 25.8651 2.46274 25.9296C2.57384 25.994 2.70327 26.0196 2.83054 26.0023H13.8971H14.4651V31.2014H0.0397647ZM113.209 11.8209H109.74L109.731 35.6807H114.275V16.9878L114.367 17.1498C114.465 17.3214 114.531 17.438 114.593 17.5558C117.728 23.4605 120.858 29.3677 123.984 35.2774C124.133 35.5595 124.268 35.7337 124.646 35.7223C125.382 35.6992 126.117 35.7035 126.853 35.7077C127.141 35.7093 127.43 35.711 127.719 35.711H128.7V11.8549H124.171V26.9486C124.023 26.7993 123.901 26.6258 123.811 26.4355C121.296 21.6971 118.783 16.9575 116.272 12.2166C116.223 12.0871 116.132 11.9777 116.014 11.906C115.895 11.8343 115.756 11.8043 115.619 11.8209C115.084 11.831 114.548 11.8276 114.012 11.8242C113.744 11.8225 113.476 11.8209 113.209 11.8209ZM106.287 13.056V13.0549V13.0538V13.0527V13.0516C106.29 12.6555 106.292 12.2575 106.292 11.8571H87.3117V35.6677H91.8406V26.0268H101.779V35.6771H106.255V21.4922H103.543C103.583 21.4144 103.616 21.3461 103.647 21.2838L103.649 21.2795L103.649 21.2789L103.65 21.2785C103.698 21.181 103.738 21.0983 103.782 21.017C103.966 20.6692 104.149 20.3206 104.331 19.9719L104.332 19.9718C104.833 19.0146 105.336 18.0566 105.864 17.1129C106.166 16.597 106.314 16.006 106.292 15.4089C106.276 14.6288 106.281 13.8469 106.287 13.0579V13.0574V13.0569V13.0565V13.056ZM91.8576 16.3575H101.746C101.521 16.784 101.296 17.2022 101.073 17.6156L101.07 17.6211L101.069 17.6226L101.065 17.63L101.064 17.6325L101.064 17.6328C100.51 18.6614 99.9734 19.6597 99.4783 20.6781C99.1791 21.2972 98.8251 21.5206 98.1245 21.5017C96.64 21.4624 95.1535 21.4697 93.6539 21.477C93.0574 21.4799 92.4589 21.4828 91.8576 21.4828V16.3575ZM69.4102 31.1655H79.3559V11.8629H83.8621V35.6773H64.9098V11.8611H69.4102V31.1655ZM20.5 35.7117L21.9144 33.0611C25.6013 26.1188 29.2858 19.1766 32.9677 12.2343C33.0209 12.0995 33.1171 11.986 33.2413 11.9114C33.3656 11.8368 33.5109 11.8052 33.6549 11.8216C34.9898 11.8358 36.3256 11.834 37.661 11.8322C38.1061 11.8317 38.5511 11.8311 38.9961 11.8311H39.4902V35.6871H35.0011V32.3321C34.9364 32.3282 34.8768 32.3237 34.8204 32.3194L34.8204 32.3194C34.7117 32.3111 34.6149 32.3037 34.5164 32.3037H27.282C27.146 32.2851 27.0077 32.3122 26.8887 32.3807C26.7698 32.4492 26.677 32.5554 26.625 32.6824C26.2097 33.5199 25.7594 34.3446 25.312 35.1639L25.3119 35.164L25.1917 35.3842C25.1141 35.5243 24.9361 35.6985 24.8017 35.7004C23.7396 35.7162 22.6764 35.7145 21.5691 35.7128H21.5676C21.2167 35.7123 20.8613 35.7117 20.5 35.7117ZM34.9576 27.773V16.9809L29.2397 27.773H34.9576ZM54.4028 35.6789V16.31H61.5956V11.8493H42.7001V16.3384H49.8947V35.6789H54.4028Z" fill="#692EFF"/>
<path d="M147.297 23C147.19 22.6136 147.035 22.2519 146.831 21.9148C146.626 21.5739 146.372 21.2765 146.069 21.0227C145.77 20.7652 145.423 20.5644 145.029 20.4205C144.639 20.2765 144.204 20.2045 143.723 20.2045C142.965 20.2045 142.287 20.4015 141.689 20.7955C141.09 21.1894 140.617 21.7576 140.268 22.5C139.923 23.2424 139.751 24.1364 139.751 25.1818C139.751 26.2235 139.925 27.1155 140.274 27.858C140.622 28.6004 141.1 29.1705 141.706 29.5682C142.315 29.9621 143.012 30.1591 143.797 30.1591C144.512 30.1591 145.145 30 145.694 29.6818C146.244 29.3636 146.672 28.9091 146.978 28.3182C147.289 27.7273 147.44 27.0246 147.433 26.2102L147.774 26.3182H144.047V25.3636H148.467V26.3182C148.467 27.3106 148.266 28.1686 147.865 28.892C147.463 29.6155 146.912 30.1742 146.211 30.5682C145.511 30.9621 144.706 31.1591 143.797 31.1591C142.781 31.1591 141.893 30.9148 141.132 30.4261C140.37 29.9337 139.778 29.2405 139.353 28.3466C138.933 27.4489 138.723 26.3939 138.723 25.1818C138.723 24.2689 138.844 23.4451 139.086 22.7102C139.329 21.9754 139.672 21.3466 140.115 20.8239C140.562 20.3011 141.09 19.9015 141.7 19.625C142.31 19.3447 142.984 19.2045 143.723 19.2045C144.359 19.2045 144.94 19.3049 145.467 19.5057C145.997 19.7064 146.463 19.983 146.865 20.3352C147.27 20.6837 147.601 21.0871 147.859 21.5455C148.12 22 148.297 22.4848 148.387 23H147.297ZM150.762 31H149.649L153.882 19.3636H155.018L159.251 31H158.137L154.49 20.7443H154.41L150.762 31ZM151.564 26.5398H157.336V27.4943H151.564V26.5398ZM159.181 20.3182V19.3636H167.619V20.3182H163.931V31H162.869V20.3182H159.181ZM170.011 31V19.3636H176.761V20.3182H171.074V24.6989H176.403V25.6534H171.074V30.0455H176.875V31H170.011ZM181.534 31L178.346 19.3636H179.426L182.062 29.3693H182.153L184.789 19.3636H186.017L188.653 29.3693H188.744L191.38 19.3636H192.466L189.278 31H188.142L185.443 21.1307H185.369L182.67 31H181.534ZM193.497 31H192.383L196.616 19.3636H197.753L201.985 31H200.872L197.224 20.7443H197.145L193.497 31ZM194.298 26.5398H200.071V27.4943H194.298V26.5398ZM201.701 19.3636H202.929L206.378 24.8864H206.48L209.929 19.3636H211.156L206.957 25.9602V31H205.9V25.9602L201.701 19.3636Z" fill="black"/>
<rect x="185.7" width="26" height="12" rx="2" fill="#692EFF"/>
<path d="M189.206 9V3.18182H191.535C191.963 3.18182 192.32 3.24527 192.606 3.37216C192.892 3.49905 193.107 3.67519 193.251 3.90057C193.395 4.12405 193.467 4.38163 193.467 4.6733C193.467 4.90057 193.422 5.10038 193.331 5.27273C193.24 5.44318 193.115 5.58333 192.956 5.69318C192.798 5.80114 192.619 5.87784 192.416 5.9233V5.98011C192.637 5.98958 192.845 6.05208 193.038 6.16761C193.233 6.28314 193.391 6.44508 193.512 6.65341C193.634 6.85985 193.694 7.10606 193.694 7.39205C193.694 7.70076 193.618 7.97633 193.464 8.21875C193.313 8.45928 193.088 8.64962 192.791 8.78977C192.494 8.92992 192.127 9 191.691 9H189.206ZM190.436 7.99432H191.439C191.781 7.99432 192.031 7.92898 192.189 7.7983C192.346 7.66572 192.424 7.48958 192.424 7.26989C192.424 7.1089 192.386 6.96686 192.308 6.84375C192.23 6.72064 192.119 6.62405 191.976 6.55398C191.833 6.4839 191.664 6.44886 191.467 6.44886H190.436V7.99432ZM190.436 5.61648H191.348C191.516 5.61648 191.666 5.58712 191.797 5.52841C191.929 5.4678 192.033 5.38258 192.109 5.27273C192.187 5.16288 192.226 5.03125 192.226 4.87784C192.226 4.66761 192.151 4.49811 192.001 4.36932C191.853 4.24053 191.643 4.17614 191.37 4.17614H190.436V5.61648ZM194.495 9V3.18182H198.415V4.19602H195.725V5.58239H198.213V6.59659H195.725V7.9858H198.427V9H194.495ZM199.172 4.19602V3.18182H203.95V4.19602H202.169V9H200.953V4.19602H199.172ZM205.029 9H203.711L205.719 3.18182H207.304L209.31 9H207.992L206.534 4.51136H206.489L205.029 9ZM204.946 6.71307H208.06V7.6733H204.946V6.71307Z" fill="white"/>
</svg>
