<?xml version="1.0" encoding="utf-8"?>
<!-- Generator: Adobe Illustrator 27.7.0, SVG Export Plug-In . SVG Version: 6.00 Build 0)  -->
<svg version="1.1" id="Layer_1" xmlns="http://www.w3.org/2000/svg" xmlns:xlink="http://www.w3.org/1999/xlink" x="0px" y="0px"
	 viewBox="0 0 228.3 228.3" style="enable-background:new 0 0 228.3 228.3;" xml:space="preserve">
<style type="text/css">
	
		.st0{fill-rule:evenodd;clip-rule:evenodd;fill:url(#SVGID_1_);stroke:url(#SVGID_00000088823321643060001370000015472202699595228351_);stroke-linecap:round;stroke-linejoin:round;stroke-miterlimit:10;}
</style>
<linearGradient id="SVGID_1_" gradientUnits="userSpaceOnUse" x1="-1.8295" y1="104.6604" x2="193.5149" y2="122.2267" gradientTransform="matrix(1 0 0 -1 -2.178695e-08 229.213)">
	<stop  offset="0" style="stop-color:#ECD92F"/>
	<stop  offset="0.5671" style="stop-color:#FF4D90"/>
	<stop  offset="1" style="stop-color:#692EFF"/>
</linearGradient>
<linearGradient id="SVGID_00000134954385971115557650000017097436520195671197_" gradientUnits="userSpaceOnUse" x1="6.9041" y1="123.7673" x2="220.2227" y2="104.5846">
	<stop  offset="0" style="stop-color:#ECD92F"/>
	<stop  offset="0.5671" style="stop-color:#FF4D90"/>
	<stop  offset="1" style="stop-color:#692EFF"/>
</linearGradient>
<path style="fill-rule:evenodd;clip-rule:evenodd;fill:url(#SVGID_1_);stroke:url(#SVGID_00000134954385971115557650000017097436520195671197_);stroke-linecap:round;stroke-linejoin:round;stroke-miterlimit:10;" d="
	M86.7,178.4c-3.9-1.7-7.7-3.8-11.3-6.2c-11.4-7.7-20.3-18.6-25.6-31.4c-1.3-3.2-2.4-6.4-3.2-9.7c-7.4-0.6-14.8-1.4-22.3-2.6
	l-1.2-0.2c-4.2-0.7-8.6-1.5-12.6-3.3l0-0.1c-2.2-1.2-3.3-2.5-3.5-4.1c-0.3-4.2,6.7-8.3,9.4-9.5c1.2-0.5,2.1-1.3,2.8-2.4
	c0.6-1,0.9-2.3,0.8-3.5c-1.5-1.1-2.9-2.4-4-4c-0.2-0.2-0.3-0.4-0.5-0.6l0,0c0-0.1-0.1-0.1-0.1-0.2c-0.3-0.4-0.7-0.8-1.1-1.2l0,0l0,0
	l0,0l0,0l0,0h0l0,0c-1.8-2-3.6-4.1-3-6c0.3-0.9,0.7-1.4,1.2-1.5c0.1,0,0.2,0,0.2,0c-1-2.7-1.5-5.5-1.6-8.3c-0.3-4.6,3.4-6.7,5.4-7.9
	l0.1,0c0.4-0.2,0.8-0.5,1.1-0.8c0.4-0.5,0.5-1.2,0.5-1.8v-0.3h0.3h0c0.7,0,13.2,0,14.4,6.7c0.8,4.2,1.2,7.1,1.4,8.3
	c0.1-0.1,0.2-0.1,0.3-0.1c0.5-0.1,1.1,0.3,1.7,1c1.3,1.6,0.3,4.2-0.6,6.7c-0.2,0.5-0.4,1-0.5,1.5c-0.1,0.3-0.2,0.6-0.3,0.9
	c-0.4,1.7-1.1,3.3-2,4.8c0.3,1.2,1,2.3,1.9,3.1c1,0.8,2.3,1.3,3.6,1.3l1.9,0.1l0,0c1.8,0.1,3.3,0.1,4.5,0.3c0.2-2.4,0.6-4.7,1-7.1
	c2.7-13.6,9.3-26,19-35.8c0.3-0.3,0.6-0.6,0.9-0.9c-0.8-0.7-1.3-1.7-1.3-2.8c0-2,1.6-3.7,3.7-3.7c1.3,0,2.5,0.7,3.1,1.7
	c8.5-6.7,18.5-11.3,29.1-13.4c13.5-2.7,27.4-1.3,40.1,4c12.7,5.3,23.5,14.2,31.2,25.7c6.4,9.7,10.3,20.8,11.4,32.3
	c1.3-0.3,3-0.3,4.9-0.4l0,0l1.9-0.1c1.3,0,2.5-0.5,3.5-1.3c1-0.8,1.7-1.9,2-3.1c-0.9-1.5-1.6-3.1-2-4.8l-0.3-0.9
	c-0.1-0.4-0.3-0.8-0.4-1.2l0-0.1c0-0.1-0.1-0.2-0.1-0.2l0,0c-0.9-2.5-1.9-5.2-0.6-6.7c0.6-0.7,1.1-1.1,1.7-1c0.1,0,0.2,0.1,0.3,0.1
	c0.2-1.2,0.6-4.1,1.4-8.3c1.3-6.7,13.7-6.7,14.4-6.7h0h0.3v0.3c0,0.7,0.2,1.3,0.6,1.8c0.3,0.3,0.7,0.6,1.1,0.8
	c2,1.2,5.7,3.3,5.4,7.9c-0.1,2.8-0.7,5.6-1.6,8.3c0.1,0,0.1,0,0.2,0c0.5,0.1,0.9,0.6,1.2,1.5c0.6,1.9-1.2,4-3,6l0,0
	c-0.4,0.4-0.7,0.8-1.1,1.2c-0.1,0.2-0.3,0.4-0.5,0.6l-0.1,0.2c-1.1,1.5-2.5,2.9-4,4c-0.1,1.2,0.2,2.4,0.8,3.5
	c0.6,1.1,1.6,1.9,2.7,2.4c2.7,1.2,9.7,5.3,9.4,9.5c-0.1,1.6-1.3,2.9-3.4,4.1l0.1,0.1c-4,1.7-8.4,2.5-12.6,3.3l-1.2,0.2
	c-7.6,1.2-15.2,2-22.8,2.7c-1.9,7.4-4.9,14.5-9.1,20.9c2.1,1.6,3.5,4.1,3.5,6.9c0,4.8-3.8,8.6-8.5,8.6c-2.3,0-4.4-0.9-5.9-2.4
	c-12.8,12-29.7,18.7-47.2,18.7c-6.9,0-13.8-1-20.3-3.1c-0.4,1.6-1.9,2.7-3.6,2.7c-2,0-3.7-1.7-3.7-3.7
	C86.4,179.4,86.5,178.9,86.7,178.4z M213.4,126L213.4,126c4.5-1.3,6.9-3,7.1-5.1c0.2-3.4-5.4-7.2-9-8.9c-1.2-0.5-2.2-1.3-2.9-2.4
	c-0.7-1.1-1.1-2.3-1-3.6c-1.9,1-4,1.3-6.1,0.9c0,0,0,0,0,0c-1.2-0.2-2.4-0.7-3.4-1.3c-0.8-0.6-1.6-1.3-2.2-2.1
	c-0.4,1.3-1.2,2.4-2.3,3.1c-1.1,0.8-2.3,1.2-3.7,1.2l-1.9,0.1c-2,0.1-3.6,0.1-4.9,0.4c0.2,1.9,0.2,3.8,0.2,5.8
	c7.4,0.9,14.5,2,21.2,3c3.6,0.6,7.2,1.4,10.8,2.5h0.1c1.2,0.3,2.3,0.9,3.3,1.7c0.1,0.1,0.2,0.2,0.2,0.3c0,0.1,0,0.2,0,0.4
	c-0.3,1.2-4.4,2.4-4.5,2.4c-6.7,1.9-13.7,2.6-20.6,3.4l-0.6,0.1l-0.6,0.1c-0.5,0.1-1.1,0.1-1.6,0.2l0,0c-3.1,0.3-6.2,0.6-9.3,0.8
	c-0.1,0.5-0.2,1-0.4,1.6c7-0.6,13.9-1.4,20.9-2.3l0,0.1c0.5-0.1,1.1-0.2,1.6-0.2l1.2-0.2C207.9,127.2,210.7,126.7,213.4,126z
	 M153,130.5c4.9-0.2,9.9-0.4,14.9-0.7c-0.2,0.6-0.3,1.2-0.5,1.8c-1,0.1-1.9,0.1-2.9,0.2c-1.6,0.1-3.3,0.2-4.9,0.3v0
	c-2.5,0.1-4.9,0.3-7.4,0.4C152.4,131.8,152.7,131.1,153,130.5z M144,130.8c2.7-0.1,5.5-0.2,8.3-0.3c-0.3,0.6-0.6,1.3-0.9,1.9
	c-2.9,0.1-5.7,0.2-8.6,0.3C143.2,132.1,143.6,131.4,144,130.8z M129.2,131c4.6-0.1,9.2-0.1,14-0.3c-0.4,0.7-0.8,1.3-1.2,2
	c-6.8,0.2-13.6,0.3-20.3,0.3l3.4-2C126.5,131.1,127.8,131,129.2,131z M115,131.1L115,131.1c1.1,0,2.2,0,3.4,0c1.4,0,2.9,0,4.4,0
	l-3.4,2c-3.7,0-7.4,0-11,0l-3.3-1.9c2.8,0,5.6,0,8.3,0C113.9,131.1,114.4,131.1,115,131.1z M123.9,130.4c-2.9,0-5.8,0-8.6,0
	c-0.6,0-1.3,0-1.9,0c-3.1,0-6.2,0-9.5,0l-6.7-3.9c0.1-0.3,0.2-0.7,0.2-1c0-1.4-1.1-2.6-2.5-2.6v-17.3c1.4,0,2.5-1.2,2.5-2.6
	c0-0.4-0.1-0.8-0.3-1.2l14.9-8.6c0.5,0.5,1.2,0.8,1.9,0.8c0.8,0,1.4-0.3,1.9-0.8l15.3,8.9c-0.1,0.3-0.2,0.6-0.2,0.9
	c0,1.2,0.9,2.3,2,2.6V123c-1.2,0.3-2,1.3-2,2.6c0,0.3,0,0.5,0.1,0.8L123.9,130.4z M126.3,130.4l5.3-3.1c0.5,0.5,1.2,0.8,1.9,0.8
	c1.4,0,2.6-1.2,2.6-2.6c0-1.2-0.8-2.3-2-2.5v-17.5c1.1-0.3,2-1.3,2-2.5c0-1.4-1.2-2.6-2.6-2.6c-0.7,0-1.3,0.3-1.8,0.7l-15.3-8.9
	c0.1-0.2,0.1-0.5,0.1-0.8c0-1.4-1.2-2.6-2.6-2.6c-1.4,0-2.6,1.2-2.6,2.6c0,0.3,0,0.5,0.1,0.8l-15,8.7c-0.4-0.3-1-0.5-1.6-0.5
	c-1.4,0-2.6,1.2-2.6,2.6c0,1.1,0.6,2,1.6,2.4v17.8c-0.9,0.4-1.6,1.3-1.6,2.4c0,1.4,1.2,2.6,2.6,2.6c0.7,0,1.3-0.3,1.7-0.7l5,2.9
	c-5.6-0.1-11.3-0.1-17.2-0.3c-1.6-2.9-2.7-6.1-3.3-9.4c-1.3-6.6-0.6-13.4,1.9-19.6C85.4,95,89.7,89.7,95.3,86
	c5.5-3.7,12-5.7,18.7-5.7c8.9,0,17.5,3.6,23.8,9.9c6.3,6.3,9.9,15,9.9,23.9c0,5.6-1.4,11.1-4,16c-1.5,0-3.1,0.1-4.6,0.1
	C134.7,130.3,130.4,130.4,126.3,130.4z M191,127.5c0.5-0.1,1.1-0.1,1.6-0.2l0.6-0.1c7-0.8,14.3-1.5,21.1-3.4c1.5-0.4,4-1.5,4-1.9
	l-0.1-0.1c-0.9-0.7-1.9-1.3-3.1-1.6h-0.1c-3.5-1.1-7-1.9-10.7-2.5c-6.6-1.1-13.7-2.1-21.1-3c0,4.6-0.5,9.1-1.4,13.5
	C184.9,128,188,127.7,191,127.5L191,127.5z M182.7,113.9c0-1.9-0.1-3.7-0.2-5.5c-1,0.3-1.7,0.7-2.2,1.4l-1.5,2.8h-0.2c0,0,0,0-0.1,0
	c-0.5,0-3-0.1-7.8-0.1c0,0.1,0,0.2,0,0.2C174.8,113,178.8,113.5,182.7,113.9z M170.7,113.5c4.1,0.3,8.1,0.7,12,1.2
	c0,4.6-0.5,9.1-1.4,13.6c-4.2,0.3-8.4,0.6-12.6,0.8c1.3-4.8,2-9.9,2-15C170.7,113.9,170.7,113.7,170.7,113.5z M170.1,112.7
	c0-0.1,0-0.1,0-0.2c-0.9,0-1.8,0-2.9,0C168.2,112.5,169.1,112.6,170.1,112.7z M170,111.9c-0.6-14.2-6.4-27.6-16.4-37.7
	c-6.3-6.3-14-11-22.3-13.8c-0.6,1.3-1.9,2.2-3.4,2.2c-2,0-3.7-1.7-3.7-3.7c0-0.1,0-0.2,0-0.3c-3.4-0.6-6.9-1-10.4-1
	c-11.1,0-22,3.3-31.2,9.5c-4.3,2.9-8.1,6.3-11.4,10.2c1.7,1.5,2.8,3.8,2.8,6.3c0,4.6-3.7,8.4-8.3,8.4c-1.2,0-2.3-0.2-3.3-0.7
	c-0.2,0.4-0.3,0.8-0.5,1.2c-2.5,6.2-4,12.7-4.2,19.4c3.4,0,8,0,13.9,0c0.1-2,0.4-4.1,0.8-6.1C74.1,97.6,78.1,90,84.1,84
	s13.4-10,21.6-11.6c8.2-1.6,16.7-0.8,24.4,2.4c7.7,3.2,14.3,8.7,19,15.7c4.2,6.4,6.7,13.8,7.1,21.4C162,111.9,166.6,111.9,170,111.9
	z M170.7,111.9c-0.4-10.5-3.7-20.7-9.5-29.5c-6.2-9.4-15.1-16.7-25.5-21.1c-1.4-0.6-2.7-1.1-4.1-1.5c0.1-0.3,0.1-0.6,0.1-0.9
	c0-2-1.6-3.7-3.7-3.7c-1.7,0-3.1,1.2-3.6,2.7c-7.1-1.3-14.4-1.3-21.6,0.1c-11,2.2-21.1,7.6-29.1,15.6c-1,1-2,2.1-3,3.2
	c-1.4-1-3.1-1.7-5-1.7c-4.6,0-8.3,3.7-8.3,8.4c0,3.2,1.8,6,4.5,7.4c-1.7,3.8-2.9,7.8-3.7,11.9c-0.6,3-0.9,5.9-1,8.9
	c-2.7,0-4.7,0-5.9,0.1h0l0,0h0c-0.7,0-1.1,0-1.4,0l-1.3-2.5c-0.7-1-1.7-1.5-3.1-1.8c0.6-6.9,2.3-13.6,4.9-20.1
	c3.7-8.9,9.1-16.8,15.9-23.4c0.5,0.3,1.2,0.5,1.9,0.5c2,0,3.7-1.7,3.7-3.7c0-0.5-0.1-1-0.3-1.4c1.3-1.1,2.7-2.1,4.2-3
	C87,49,100.3,44.9,113.9,44.9c18.2,0,35.7,7.3,48.6,20.3c11.4,11.5,18.4,26.6,19.9,42.6c-1.2,0.3-2.1,0.8-2.7,1.7l-1.3,2.5
	c-0.2,0-0.7,0-1.4,0C175.7,111.9,173.6,111.9,170.7,111.9z M156.2,112.7c4.7,0.1,9.3,0.4,13.9,0.7c0,0.2,0,0.5,0,0.7
	c0,5.1-0.7,10.1-2,15c-5,0.3-10,0.5-14.8,0.7c2-4.9,3-10.3,3-15.7C156.2,113.7,156.2,113.2,156.2,112.7z M155.6,112.7
	c0,0.5,0,1,0,1.4c0,5.4-1,10.7-3,15.7c-2.8,0.1-5.5,0.2-8.2,0.3c2.5-4.9,3.9-10.4,3.9-16c0-6.8-2-13.5-5.8-19.2
	c-3.8-5.7-9.1-10.1-15.4-12.7c-6.3-2.6-13.2-3.3-19.8-2c-6.6,1.3-12.8,4.6-17.6,9.4c-4.8,4.8-8.1,11-9.4,17.7
	c-1.3,6.7-0.6,13.6,2,19.9c0.4,0.9,0.8,1.9,1.3,2.8c-2.7-0.1-5.5-0.2-8.2-0.3c-1-2.4-1.7-4.9-2.2-7.5c-0.6-3.2-0.9-6.4-0.8-9.7
	c2.3,0,4.5-0.1,6.8,0V112c-2.4,0-4.7-0.1-6.7-0.1c0.2-4.7,1.3-9.4,3.1-13.8c3.2-7.7,8.5-14.2,15.3-18.8c6.8-4.6,14.9-7.1,23.1-7.1v0
	c11,0,21.6,4.4,29.4,12.3c7.3,7.3,11.6,17.1,12.2,27.4c-2,0-4.1,0-6.3,0.1v0.7C151.3,112.6,153.4,112.7,155.6,112.7z M151.8,133
	c4.1-0.2,8.2-0.4,12.3-0.6c1-0.1,2-0.1,3-0.2c-0.3,1-0.7,2-1.1,2.9c-0.3-0.1-0.6-0.1-0.9-0.1c-2,0-3.7,1.7-3.7,3.7
	c0,1.2,0.6,2.3,1.4,2.9c-0.7,1.3-1.5,2.6-2.3,3.8c-6.2,9.3-14.9,16.5-25.2,20.8c-10.3,4.3-21.5,5.4-32.4,3.2
	c-10.6-2.1-20.3-7.2-28-14.7c0.5-0.7,0.8-1.5,0.8-2.4c0-2.1-1.7-3.9-3.8-3.9c-0.8,0-1.5,0.2-2.1,0.6c-4-5.1-7.1-10.8-9.1-17
	c2.7,0.2,5.4,0.3,8,0.5c2.4,0.1,4.8,0.2,7.2,0.3c3.3,6.7,8.3,12.4,14.4,16.6c5.8,3.9,12.4,6.3,19.3,7c0.1,3.2,2.6,5.8,5.8,5.8
	c3.2,0,5.8-2.6,5.8-5.9c0-0.1,0-0.2,0-0.4c8.4-1.5,16.3-5.6,22.5-11.8C147.1,140.9,149.8,137.1,151.8,133z M166.6,135.4
	c0.4-1,0.8-2.1,1.2-3.2c4.3-0.3,8.5-0.5,12.8-0.9c-1.8,7.3-4.9,14.2-8.9,20.5c-1.3-0.8-2.9-1.3-4.5-1.3c-4.7,0-8.5,3.9-8.5,8.6
	c0,2.2,0.8,4.2,2.2,5.8c-6,5.6-12.9,10.1-20.5,13.2c-12.6,5.2-26.4,6.6-39.7,3.9c-2.3-0.5-4.6-1-6.8-1.7c0-0.1,0-0.2,0-0.3
	c0-2-1.6-3.7-3.7-3.7c-1.2,0-2.3,0.6-3,1.6c-8.1-3.5-15.5-8.5-21.7-14.8c-8.8-8.8-15-19.8-18-31.9c4.2,0.4,8.5,0.6,12.8,0.9
	c0.4,1.3,0.9,2.6,1.4,3.9c2,4.9,4.7,9.4,7.9,13.6c-0.8,0.7-1.2,1.7-1.2,2.8c0,2.1,1.7,3.9,3.8,3.9c1,0,1.9-0.4,2.6-1
	c2.4,2.3,5,4.5,7.9,6.4c9.3,6.3,20.3,9.6,31.5,9.6c15.1,0,29.5-6,40.1-16.8c3.7-3.7,6.9-8,9.4-12.5c0.5,0.3,1.1,0.4,1.7,0.4
	c2,0,3.7-1.7,3.7-3.7C168.9,137.2,168,135.9,166.6,135.4z M23,127.7c-2.7-0.5-5.4-1-8.1-1.7l0,0c-4.5-1.3-6.9-3-7.1-5.1
	c-0.3-3.3,5.4-7.2,9-8.8c1.2-0.5,2.2-1.3,2.9-2.4c0.7-1.1,1.1-2.3,1-3.6c1.9,1,4,1.3,6.1,0.9c2.2-0.4,4.3-1.6,5.6-3.4
	c0.4,1.3,1.2,2.4,2.3,3.1c1.1,0.8,2.3,1.2,3.7,1.2l1.9,0.1l0.4,0c1.6,0.1,3,0.1,4.1,0.3c-0.2,2-0.2,3.9-0.3,5.9
	c-7.3,0.9-14.3,1.9-20.8,3c-3.6,0.6-7.2,1.4-10.8,2.5h-0.1c-1.2,0.3-2.3,0.9-3.3,1.7c-0.1,0.1-0.2,0.2-0.2,0.3c0,0.1-0.1,0.2,0,0.4
	c0.3,1.2,4.5,2.4,4.5,2.4c6.9,1.9,14.2,2.7,21.2,3.5l0.6,0.1c3.5,0.3,7,0.6,10.4,0.9c0.1,0.6,0.2,1.1,0.4,1.7
	c-7.3-0.6-14.7-1.4-22-2.6l-1.2-0.2L23,127.7z M45.2,114c0-1.9,0.1-3.8,0.2-5.7c1.2,0.3,2.1,0.7,2.7,1.5l1.5,2.8h0.2l0,0l0.1,0h0
	c0.4,0,2.8-0.1,7.4-0.1c0,0.1,0,0.2,0,0.3C53.1,113.1,49.1,113.5,45.2,114z M57.8,112.7c0-0.1,0-0.2,0-0.2c1,0,2.1,0,3.3,0
	C60,112.6,58.9,112.7,57.8,112.7z M45.2,114.7c3.9-0.5,7.9-0.9,12-1.2c-0.1,5.3,0.6,10.5,2,15.6c-4.1-0.2-8.3-0.5-12.5-0.8
	c0-0.2-0.1-0.4-0.1-0.6C45.6,123.4,45.2,119,45.2,114.7z M58.9,125.2c0.3,1.3,0.6,2.7,0.9,4c5,0.3,10,0.5,14.8,0.7
	c-2.2-5.5-3.2-11.3-3-17.2c-4.7,0.1-9.3,0.4-13.9,0.7C57.8,117.3,58.1,121.3,58.9,125.2z M46.7,128.9c4.2,0.3,8.4,0.6,12.6,0.8
	c0.2,0.6,0.3,1.2,0.5,1.7c-4.2-0.3-8.5-0.5-12.7-0.9C47,130,46.9,129.5,46.7,128.9z M74.9,130.5c-4.9-0.2-9.9-0.4-14.9-0.7
	c0.2,0.6,0.3,1.2,0.5,1.7c2.8,0.2,5.5,0.3,8.3,0.5c2.3,0.1,4.5,0.2,6.9,0.3C75.4,131.7,75.2,131.1,74.9,130.5z M76.4,132.3
	c-0.3-0.6-0.5-1.2-0.8-1.8c2.8,0.1,5.6,0.2,8.3,0.3c0.3,0.6,0.7,1.2,1.1,1.8C82.1,132.5,79.2,132.4,76.4,132.3z M84.6,130.8
	c6.2,0.2,12.2,0.2,18,0.3l3.3,1.9c-6.9-0.1-13.6-0.2-20.3-0.4C85.3,132,85,131.4,84.6,130.8z M44.5,114.8c0,4.5,0.5,9,1.4,13.5
	c-3.4-0.3-6.8-0.6-10.2-0.9l-0.6-0.1c-7-0.8-14.3-1.5-21.1-3.4c-1.5-0.4-4-1.5-4-1.9l0.1-0.1c0.9-0.8,2-1.3,3.1-1.6h0.1
	c3.5-1.1,7-1.9,10.6-2.5C30.3,116.7,37.3,115.6,44.5,114.8z M168,131.5c0.2-0.6,0.4-1.2,0.5-1.7c4.2-0.2,8.4-0.5,12.6-0.8
	c-0.1,0.5-0.2,1.1-0.4,1.6C176.5,130.9,172.3,131.2,168,131.5z M32.3,102.5l0.2-0.3c0.8-1.4,1.5-2.9,1.9-4.5c0-0.1,0-0.2,0.1-0.2
	l0,0c0.1-0.2,0.2-0.5,0.2-0.7c0.1-0.4,0.3-0.9,0.5-1.4l0,0l0.1-0.2c0.9-2.3,1.7-4.8,0.7-6.1c-0.6-0.7-0.9-0.8-1.1-0.8
	c-0.1,0-0.1,0.1-0.2,0.1c-0.1,0.1-0.1,0.1-0.1,0.2L34,89.8l-0.1-1.2c0,0-0.4-3.3-1.5-8.9c-1.1-5.6-11.6-6.2-13.5-6.2
	c-0.1,0.7-0.3,1.3-0.6,1.9c-0.4,0.4-0.8,0.7-1.4,1l-0.1,0.1c-2,1.2-5.2,3.1-5,7.3c0.3,5.7,1.9,8.7,1.9,8.7l0.9,1.8l-1.4-1.4
	c-0.1-0.1-0.2-0.1-0.4-0.1l0,0h-0.1c-0.2,0-0.5,0.2-0.7,1.1c-0.5,1.6,1.3,3.7,3,5.4c0.4,0.4,0.7,0.8,1.1,1.2
	c0.2,0.2,0.4,0.5,0.6,0.8c1.1,1.5,2.4,2.8,4,3.9c1.8,1.2,4.1,1.6,6.2,1.1c1.1-0.2,2.2-0.6,3.2-1.2c0.5-0.3,0.9-0.7,1.3-1.1
	C31.7,103.5,32,103,32.3,102.5z M151.1,133.1c-0.8,1.5-1.6,3-2.5,4.4c-4.6,6.9-11.1,12.3-18.7,15.4c-2.8,1.2-5.6,2-8.6,2.5
	c-0.5-2.8-2.9-4.9-5.7-4.9c-3,0-5.5,2.3-5.8,5.3c-1.3-0.1-2.6-0.3-3.9-0.6c-8.1-1.6-15.5-5.6-21.3-11.5c-3.2-3.2-5.8-6.9-7.8-10.8
	c2.9,0.1,5.7,0.2,8.7,0.3c2.5,3.8,5.7,7.1,9.5,9.6c5.6,3.8,12.3,5.8,19,5.8c9.1,0,17.8-3.6,24.2-10.1c1.6-1.6,3-3.3,4.2-5.2
	C145.3,133.3,148.2,133.2,151.1,133.1z M141.6,133.4c-7.1,0.2-14.1,0.3-21,0.3l-4.2,2.4c0.1,0.2,0.1,0.5,0.1,0.8
	c0,1.4-1.2,2.6-2.6,2.6c-1.4,0-2.6-1.2-2.6-2.6c0-0.3,0-0.5,0.1-0.8l-4.3-2.5c-7.1-0.1-14.1-0.2-20.9-0.4c1.2,1.7,2.5,3.4,4,4.9
	c4.7,4.7,10.7,8,17.2,9.3c6.5,1.3,13.3,0.6,19.4-1.9C132.8,142.9,137.9,138.7,141.6,133.4z M109.5,133.7l2.5,1.5
	c0.5-0.5,1.2-0.8,1.9-0.8c0.8,0,1.4,0.3,1.9,0.8l2.4-1.4h-0.2C115.2,133.7,112.3,133.7,109.5,133.7z M104.3,126.1h19.2v-14.8h-3V107
	c0-1.8-0.7-3.5-1.9-4.7c-1.2-1.2-2.9-2-4.7-2c-1.8,0-3.4,0.7-4.7,2c-1.2,1.2-1.9,2.9-1.9,4.7v4.3h-3V126.1z M108.5,111.3h10.9V107
	c-0.1-1.4-0.7-2.8-1.7-3.7c-1-1-2.4-1.5-3.8-1.5c-1.4,0-2.8,0.5-3.8,1.5c-1,1-1.6,2.3-1.7,3.7V111.3z M122.3,124.9h-16.8v-12.4h16.8
	V124.9z M194,97.8l-0.3-0.9v0c-0.2-0.5-0.4-1-0.6-1.6c-0.8-2.3-1.8-4.8-0.7-6.1c0.6-0.7,0.9-0.8,1.1-0.8c0.1,0,0.1,0.1,0.2,0.1
	c0.1,0.1,0.1,0.1,0.1,0.2l0.5,1.2l0.1-1.2c0,0,0.4-3.2,1.5-8.9c1.1-5.7,11.6-6.2,13.5-6.2c0.1,0.7,0.3,1.3,0.6,1.9
	c0.4,0.4,0.8,0.7,1.3,1l0,0c2,1.2,5.3,3.1,5.1,7.3c-0.3,5.6-1.9,8.7-1.9,8.7l-0.9,1.7l1.4-1.3c0.1-0.1,0.1-0.1,0.2-0.1
	c0.1,0,0.2,0,0.2,0c0.2,0,0.4,0.2,0.7,1.1c0.5,1.6-1.3,3.6-2.9,5.4c-0.1,0.1-0.1,0.1-0.2,0.2c0,0.1-0.1,0.1-0.1,0.2v0v0
	c-0.3,0.3-0.5,0.6-0.7,0.9c-0.2,0.2-0.4,0.5-0.6,0.8c-1.1,1.5-2.4,2.8-4,3.9c-1.9,1.2-4.2,1.5-6.4,1.1c-2.2-0.5-4.1-1.8-5.4-3.7
	C195.1,101,194.4,99.4,194,97.8z"/>
</svg>
