<svg width="212" height="24" viewBox="0 0 212 24" fill="none" xmlns="http://www.w3.org/2000/svg">
<path fill-rule="evenodd" clip-rule="evenodd" d="M0.339814 19.3967V23.8631C0.385971 23.8802 0.433466 23.8935 0.481814 23.9028C5.87404 23.9155 11.2656 23.9155 16.6566 23.9028C16.7411 23.8895 16.8216 23.8576 16.8923 23.8095C16.963 23.7614 17.0221 23.6982 17.0655 23.6245C17.785 22.3004 18.4944 20.9713 19.1937 19.6371C19.2762 19.4707 19.3183 19.2871 19.3167 19.1013C19.3281 17.5753 19.3281 16.0493 19.3167 14.5232C19.3115 14.3068 19.2572 14.0945 19.1577 13.9022C18.866 13.3404 18.5688 12.7808 18.2716 12.2212C17.8917 11.5058 17.5118 10.7903 17.1432 10.0701C17.0937 9.94202 17.0031 9.834 16.8855 9.76306C16.768 9.69211 16.6301 9.66225 16.4938 9.67819H5.42721H4.87814V4.51317H19.2808V0.0278501C19.2438 0.0250614 19.212 0.0220161 19.1834 0.0192812C19.1344 0.014589 19.0949 0.0108107 19.0554 0.0108107C13.7124 0.0133352 8.36819 0.0101762 3.02267 0.00134059C2.91639 -0.0065949 2.81047 0.0208605 2.72143 0.0794246C2.63238 0.137989 2.56522 0.224374 2.53041 0.325105C2.22494 0.909807 1.91645 1.49262 1.60797 2.0754L1.60796 2.07541C1.22621 2.79662 0.84449 3.51778 0.468559 4.24242C0.369685 4.4348 0.315939 4.64718 0.311409 4.86343C0.296262 6.3415 0.296262 7.82083 0.311409 9.30142C0.316047 9.5329 0.373695 9.76025 0.479919 9.96598C0.768934 10.5228 1.06355 11.0769 1.3582 11.631L1.35825 11.6311L1.35826 11.6311C1.74883 12.3656 2.13945 13.1003 2.51715 13.8416C2.56525 13.9607 2.65168 14.0604 2.76279 14.1249C2.87389 14.1894 3.00332 14.2149 3.13059 14.1976H14.1971H14.7651V19.3967H0.339814ZM113.509 0.0161692H110.04L110.031 23.876H114.575V5.18309L114.667 5.3451C114.765 5.51667 114.831 5.63331 114.893 5.75109C118.028 11.6558 121.159 17.563 124.284 23.4727C124.433 23.7548 124.568 23.929 124.946 23.9177C125.682 23.8946 126.417 23.8988 127.153 23.903C127.442 23.9046 127.73 23.9063 128.019 23.9063H129V0.0502479H124.471V15.1439C124.323 14.9946 124.201 14.8211 124.111 14.6308C121.596 9.89244 119.083 5.15279 116.572 0.411876C116.523 0.282384 116.432 0.173039 116.314 0.101308C116.195 0.0295776 116.056 -0.000398551 115.919 0.0161692C115.384 0.0262684 114.848 0.0229002 114.312 0.0195338C114.044 0.0178513 113.776 0.0161692 113.509 0.0161692ZM106.587 1.25133V1.25022V1.24912V1.24802V1.24691C106.59 0.850787 106.592 0.45284 106.592 0.0523631H87.6117V23.863H92.1406V14.2221H102.079V23.8724H106.555V9.68755H103.843C103.883 9.60972 103.916 9.5414 103.947 9.47914L103.949 9.47482L103.949 9.47425L103.95 9.47385C103.998 9.37635 104.038 9.29364 104.082 9.21232C104.266 8.86453 104.449 8.51592 104.632 8.16723L104.632 8.16714C105.134 7.20988 105.636 6.25195 106.165 5.30826C106.466 4.79229 106.614 4.20133 106.592 3.60426C106.576 2.82409 106.581 2.04225 106.587 1.25318V1.25272V1.25226V1.25179V1.25133ZM92.1576 4.55282H102.047C101.821 4.97927 101.596 5.39754 101.373 5.81089L101.37 5.81646L101.369 5.81791L101.365 5.82531L101.364 5.82776L101.364 5.82816C100.811 6.85668 100.273 7.85501 99.7783 8.87342C99.4792 9.49254 99.1251 9.71595 98.4246 9.69702C96.94 9.65773 95.4535 9.66497 93.954 9.67227C93.3575 9.67517 92.7589 9.67809 92.1576 9.67809V4.55282ZM69.7103 19.3608H79.656V0.0582612H84.1621V23.8726H65.2098V0.056366H69.7103V19.3608ZM20.8001 23.907L22.2144 21.2564C25.9014 14.3141 29.5858 7.37189 33.2677 0.429659C33.3209 0.294849 33.4171 0.181344 33.5414 0.106726C33.6656 0.0321083 33.811 0.000542851 33.955 0.0169126C35.2898 0.0311127 36.6257 0.0293363 37.961 0.0275607C38.4061 0.0269688 38.8512 0.026377 39.2961 0.026377H39.7903V23.8824H35.3012V20.5274C35.2365 20.5236 35.1769 20.519 35.1205 20.5147L35.1204 20.5147C35.0117 20.5064 34.9149 20.499 34.8165 20.499H27.582C27.446 20.4804 27.3077 20.5075 27.1888 20.576C27.0699 20.6446 26.9771 20.7507 26.925 20.8777C26.5098 21.7152 26.0594 22.54 25.612 23.3593L25.612 23.3593L25.4918 23.5795C25.4142 23.7196 25.2362 23.8938 25.1018 23.8957C24.0397 23.9115 22.9765 23.9098 21.8691 23.9081H21.8677C21.5167 23.9076 21.1613 23.907 20.8001 23.907ZM35.2576 15.9683V5.17625L29.5397 15.9683H35.2576ZM54.7028 23.8742V4.50535H61.8956V0.0446472H43.0001V4.53375H50.1948V23.8742H54.7028Z" fill="#692EFF"/>
<path d="M147.597 11.1953C147.491 10.8089 147.335 10.4472 147.131 10.1101C146.926 9.76918 146.672 9.47183 146.369 9.21804C146.07 8.96046 145.723 8.75971 145.33 8.61577C144.939 8.47183 144.504 8.39986 144.023 8.39986C143.265 8.39986 142.587 8.59683 141.989 8.99077C141.39 9.38471 140.917 9.95289 140.568 10.6953C140.223 11.4377 140.051 12.3317 140.051 13.3771C140.051 14.4188 140.225 15.3108 140.574 16.0533C140.922 16.7957 141.4 17.3658 142.006 17.7635C142.616 18.1574 143.312 18.3544 144.097 18.3544C144.813 18.3544 145.445 18.1953 145.994 17.8771C146.544 17.5589 146.972 17.1044 147.278 16.5135C147.589 15.9226 147.741 15.2199 147.733 14.4055L148.074 14.5135H144.347V13.5589H148.767V14.5135C148.767 15.5059 148.566 16.3639 148.165 17.0874C147.763 17.8108 147.212 18.3696 146.511 18.7635C145.811 19.1574 145.006 19.3544 144.097 19.3544C143.081 19.3544 142.193 19.1101 141.432 18.6214C140.67 18.129 140.078 17.4358 139.653 16.5419C139.233 15.6442 139.023 14.5893 139.023 13.3771C139.023 12.4643 139.144 11.6404 139.386 10.9055C139.629 10.1707 139.972 9.5419 140.415 9.01918C140.862 8.49645 141.39 8.09683 142 7.82031C142.61 7.54001 143.284 7.39986 144.023 7.39986C144.659 7.39986 145.241 7.50024 145.767 7.70099C146.297 7.90175 146.763 8.17827 147.165 8.53054C147.57 8.87902 147.902 9.28243 148.159 9.74077C148.42 10.1953 148.597 10.6802 148.688 11.1953H147.597ZM151.062 19.1953H149.949L154.182 7.55895H155.318L159.551 19.1953H158.438L154.79 8.93963H154.71L151.062 19.1953ZM151.864 14.7351H157.636V15.6896H151.864V14.7351ZM159.482 8.51349V7.55895H167.919V8.51349H164.232V19.1953H163.169V8.51349H159.482ZM170.311 19.1953V7.55895H177.061V8.51349H171.374V12.8942H176.703V13.8487H171.374V18.2408H177.175V19.1953H170.311ZM181.834 19.1953L178.646 7.55895H179.726L182.362 17.5646H182.453L185.089 7.55895H186.317L188.953 17.5646H189.044L191.68 7.55895H192.766L189.578 19.1953H188.442L185.743 9.32599H185.669L182.97 19.1953H181.834ZM193.797 19.1953H192.683L196.916 7.55895H198.053L202.286 19.1953H201.172L197.524 8.93963H197.445L193.797 19.1953ZM194.598 14.7351H200.371V15.6896H194.598V14.7351ZM202.001 7.55895H203.229L206.678 13.0817H206.78L210.229 7.55895H211.456L207.257 14.1555V19.1953H206.2V14.1555L202.001 7.55895Z" fill="black"/>
</svg>
