<svg width="15" height="15" viewBox="0 0 15 15" fill="none" xmlns="http://www.w3.org/2000/svg">
<path d="M0.625 2.96891H2.335C2.46915 3.46249 2.76198 3.89822 3.16833 4.20887C3.57467 4.51952 4.07195 4.68782 4.58344 4.68782C5.09492 4.68782 5.5922 4.51952 5.99855 4.20887C6.40489 3.89822 6.69773 3.46249 6.83187 2.96891H14.375C14.5408 2.96891 14.6997 2.90306 14.8169 2.78585C14.9342 2.66864 15 2.50967 15 2.34391C15 2.17815 14.9342 2.01918 14.8169 1.90197C14.6997 1.78476 14.5408 1.71891 14.375 1.71891H6.83187C6.69773 1.22533 6.40489 0.789603 5.99855 0.478955C5.5922 0.168307 5.09492 0 4.58344 0C4.07195 0 3.57467 0.168307 3.16833 0.478955C2.76198 0.789603 2.46915 1.22533 2.335 1.71891H0.625C0.45924 1.71891 0.300269 1.78476 0.183058 1.90197C0.065848 2.01918 0 2.17815 0 2.34391C0 2.50967 0.065848 2.66864 0.183058 2.78585C0.300269 2.90306 0.45924 2.96891 0.625 2.96891ZM4.58313 1.25016C4.79945 1.25016 5.01091 1.31431 5.19078 1.43449C5.37065 1.55467 5.51083 1.7255 5.59362 1.92535C5.6764 2.12521 5.69806 2.34513 5.65586 2.55729C5.61366 2.76946 5.50949 2.96435 5.35652 3.11731C5.20356 3.27027 5.00867 3.37444 4.7965 3.41665C4.58434 3.45885 4.36442 3.43719 4.16457 3.35441C3.96471 3.27162 3.79389 3.13143 3.67371 2.95157C3.55352 2.7717 3.48938 2.56024 3.48938 2.34391C3.48971 2.05393 3.60505 1.77593 3.81009 1.57088C4.01514 1.36583 4.29315 1.25049 4.58313 1.25016ZM14.375 6.87516H12.665C12.5311 6.38146 12.2384 5.94558 11.832 5.6348C11.4257 5.32403 10.9284 5.15564 10.4169 5.15564C9.90534 5.15564 9.40802 5.32403 9.00171 5.6348C8.59539 5.94558 8.30268 6.38146 8.16875 6.87516H0.625C0.45924 6.87516 0.300269 6.94101 0.183058 7.05822C0.065848 7.17543 0 7.3344 0 7.50016C0 7.66592 0.065848 7.82489 0.183058 7.9421C0.300269 8.05931 0.45924 8.12516 0.625 8.12516H8.16875C8.30268 8.61886 8.59539 9.05474 9.00171 9.36552C9.40802 9.6763 9.90534 9.84468 10.4169 9.84468C10.9284 9.84468 11.4257 9.6763 11.832 9.36552C12.2384 9.05474 12.5311 8.61886 12.665 8.12516H14.375C14.5408 8.12516 14.6997 8.05931 14.8169 7.9421C14.9342 7.82489 15 7.66592 15 7.50016C15 7.3344 14.9342 7.17543 14.8169 7.05822C14.6997 6.94101 14.5408 6.87516 14.375 6.87516ZM10.4169 8.59391C10.2006 8.59391 9.98909 8.52977 9.80922 8.40958C9.62935 8.2894 9.48917 8.11858 9.40638 7.91872C9.3236 7.71887 9.30194 7.49895 9.34414 7.28678C9.38634 7.07462 9.49051 6.87973 9.64348 6.72676C9.79644 6.5738 9.99133 6.46963 10.2035 6.42743C10.4157 6.38523 10.6356 6.40689 10.8354 6.48967C11.0353 6.57245 11.2061 6.71264 11.3263 6.89251C11.4465 7.07237 11.5106 7.28384 11.5106 7.50016C11.5103 7.79014 11.395 8.06815 11.1899 8.2732C10.9849 8.47824 10.7069 8.59358 10.4169 8.59391ZM14.375 12.0314H6.83187C6.69773 11.5378 6.40489 11.1021 5.99855 10.7915C5.5922 10.4808 5.09492 10.3125 4.58344 10.3125C4.07195 10.3125 3.57467 10.4808 3.16833 10.7915C2.76198 11.1021 2.46915 11.5378 2.335 12.0314H0.625C0.45924 12.0314 0.300269 12.0973 0.183058 12.2145C0.065848 12.3317 0 12.4907 0 12.6564C0 12.8222 0.065848 12.9811 0.183058 13.0984C0.300269 13.2156 0.45924 13.2814 0.625 13.2814H2.335C2.46915 13.775 2.76198 14.2107 3.16833 14.5214C3.57467 14.832 4.07195 15.0003 4.58344 15.0003C5.09492 15.0003 5.5922 14.832 5.99855 14.5214C6.40489 14.2107 6.69773 13.775 6.83187 13.2814H14.375C14.5408 13.2814 14.6997 13.2156 14.8169 13.0984C14.9342 12.9811 15 12.8222 15 12.6564C15 12.4907 14.9342 12.3317 14.8169 12.2145C14.6997 12.0973 14.5408 12.0314 14.375 12.0314ZM4.58313 13.7502C4.3668 13.7502 4.15534 13.686 3.97547 13.5658C3.7956 13.4457 3.65542 13.2748 3.57263 13.075C3.48985 12.8751 3.46819 12.6552 3.51039 12.443C3.55259 12.2309 3.65676 12.036 3.80973 11.883C3.96269 11.7301 4.15758 11.6259 4.36974 11.5837C4.58191 11.5415 4.80183 11.5631 5.00169 11.6459C5.20154 11.7287 5.37236 11.8689 5.49254 12.0488C5.61273 12.2286 5.67688 12.4401 5.67688 12.6564C5.67638 12.9463 5.56099 13.2243 5.35598 13.4293C5.15097 13.6343 4.87305 13.7497 4.58313 13.7502Z" fill="white"/>
</svg>
