<svg width="15" height="15" viewBox="0 0 15 15" fill="none" xmlns="http://www.w3.org/2000/svg">
<circle cx="7.5" cy="7.5" r="7.5" fill="white"/>
<path d="M10.2958 2.06348C10.4235 2.16428 10.5512 2.26509 10.6788 2.35918C10.699 2.37262 10.7192 2.37934 10.746 2.39278C10.7393 2.3995 10.7326 2.41294 10.7259 2.41966C10.6184 2.43982 10.5108 2.45326 10.4033 2.47342C10.1412 2.52719 9.87911 2.56751 9.62373 2.64143C9.18019 2.76912 8.73664 2.90353 8.30653 3.07154C7.96379 3.20595 7.64121 3.3874 7.31863 3.56885C7.04309 3.72342 6.76755 3.88471 6.50546 4.05944C6.05519 4.35514 5.64524 4.70461 5.34282 5.14143C5.0404 5.57826 4.87239 6.06885 4.92615 6.60649C4.96648 6.96939 5.074 7.30541 5.27562 7.61455C5.42347 7.84305 5.57804 8.07154 5.74605 8.2866C5.84685 8.421 5.97454 8.54197 6.07535 8.65622C5.98126 8.57557 5.85357 8.48821 5.74605 8.3874C5.53771 8.19251 5.31594 8.01778 5.14121 7.796C4.81863 7.38606 4.54981 6.94923 4.50949 6.39815C4.47589 5.921 4.60357 5.4909 4.81863 5.08095C5.09416 4.55004 5.50411 4.13337 5.97454 3.77719C6.53234 3.34708 7.1439 3.01106 7.80922 2.76912C8.27293 2.60111 8.72992 2.4331 9.20035 2.29197C9.47588 2.20461 9.77158 2.16428 10.0538 2.1038C10.0807 2.09708 10.1009 2.07692 10.121 2.06348C10.1748 2.06348 10.2353 2.06348 10.2958 2.06348Z" fill="#BAA4E0"/>
<path d="M8.95172 6.36426C9.10629 6.49195 9.2743 6.61963 9.42215 6.75404C9.59688 6.91533 9.77833 7.0699 9.91946 7.25808C10.1681 7.5941 10.3966 7.95028 10.4773 8.36695C10.5579 8.80377 10.5109 9.22716 10.3361 9.63711C9.99339 10.457 9.37511 11.0417 8.6493 11.5121C8.21247 11.7944 7.75548 12.0363 7.27161 12.2178C6.98263 12.3253 6.70037 12.453 6.40468 12.5403C5.90736 12.6815 5.41005 12.8024 4.90602 12.9234C4.80521 12.9503 4.71113 12.9368 4.62376 12.8629C4.51623 12.7755 4.40199 12.7016 4.26758 12.6008C4.44231 12.5672 4.58344 12.5471 4.72457 12.5202C4.93962 12.4798 5.1614 12.4462 5.36973 12.3858C5.75951 12.2715 6.1493 12.1573 6.53236 12.0161C7.07 11.8145 7.56731 11.5457 8.0579 11.25C8.50145 10.9879 8.91812 10.6922 9.28102 10.3293C9.59016 10.0269 9.83882 9.68415 9.98666 9.26748C10.1278 8.85754 10.1412 8.44087 10.0203 8.0242C9.83209 7.38576 9.45575 6.87501 8.97188 6.43146C8.95844 6.42474 8.95172 6.4113 8.945 6.39786C8.93828 6.39114 8.945 6.38442 8.945 6.3777C8.93828 6.3777 8.945 6.37098 8.95172 6.36426Z" fill="#BAA4E0"/>
<path d="M3.52832 12.0094C3.70305 11.9691 3.87106 11.9355 4.03907 11.8885C4.4759 11.7742 4.91945 11.6667 5.35628 11.539C5.93423 11.3643 6.49875 11.1492 7.04311 10.8804C7.77563 10.5242 8.46112 10.0874 9.01219 9.47583C9.36837 9.0726 9.65063 8.62905 9.738 8.0847C9.75816 7.97717 9.75144 7.86292 9.75816 7.72852C9.77832 7.76884 9.79848 7.789 9.8052 7.80916C9.95977 8.37368 9.92617 8.89787 9.57671 9.4019C9.07268 10.121 8.43423 10.6788 7.68155 11.1223C6.98934 11.5323 6.25681 11.8414 5.48397 12.0498C5.02026 12.1774 4.54983 12.2648 4.0794 12.3723C4.04579 12.3791 3.99875 12.3791 3.97859 12.3589C3.83074 12.2581 3.69633 12.1506 3.5552 12.043C3.54176 12.0498 3.54176 12.0296 3.52832 12.0094Z" fill="#764BC3"/>
<path d="M5.21511 7.23125C5.18823 7.11028 5.16135 6.99603 5.14118 6.87506C5.07398 6.41135 5.16807 5.99469 5.4436 5.6049C5.93419 4.89926 6.56591 4.3549 7.29172 3.91135C8.00409 3.48125 8.7635 3.16539 9.55651 2.95033C10.0135 2.82936 10.4772 2.742 10.9409 2.64119C10.9745 2.63447 11.0216 2.64119 11.0552 2.66135C11.1963 2.76216 11.3374 2.86297 11.4718 2.97049C11.4785 2.97721 11.4785 2.99737 11.4853 3.01754C11.2635 3.06458 11.0484 3.11162 10.8334 3.16539C9.79844 3.41404 8.78366 3.7299 7.82936 4.20705C7.19764 4.52291 6.60624 4.90598 6.11565 5.41673C5.75274 5.79307 5.45704 6.21646 5.31591 6.72721C5.26887 6.8885 5.25543 7.06324 5.22855 7.23125C5.22855 7.22453 5.22183 7.22453 5.21511 7.23125Z" fill="#764BC3"/>
<path d="M3.19897 11.7749C3.29978 11.5733 3.39387 11.3918 3.48795 11.2104C3.50811 11.1768 3.55516 11.1566 3.59548 11.1499C4.07935 11.0424 4.56994 10.9617 5.04709 10.8408C6.02156 10.5854 6.93553 10.1889 7.76887 9.61093C8.18553 9.32195 8.58204 9.01281 8.89118 8.6163C9.11967 8.32061 9.30113 7.9913 9.33473 7.60824C9.34817 7.45367 9.32129 7.29238 9.31457 7.14453C9.32129 7.15797 9.34817 7.18485 9.36161 7.21846C9.42881 7.40663 9.52962 7.5948 9.54978 7.78969C9.56994 7.9577 9.51618 8.14587 9.4557 8.31389C9.28096 8.79776 8.95838 9.1741 8.58204 9.51012C7.79575 10.1889 6.90865 10.6862 5.94763 11.0693C5.12774 11.3918 4.28768 11.6271 3.41403 11.748C3.3401 11.748 3.27962 11.7615 3.19897 11.7749Z" fill="#764BC3"/>
<path d="M5.71904 7.84947C5.48383 7.46641 5.38974 7.07662 5.58463 6.64652C5.81985 6.13576 6.16931 5.73254 6.59942 5.38307C7.20426 4.88576 7.86958 4.48926 8.58195 4.16668C9.40184 3.79705 10.2553 3.52152 11.1424 3.35351C11.3575 3.31318 11.5725 3.27958 11.8078 3.23926C11.7943 3.27958 11.7876 3.30646 11.7809 3.32662C11.7338 3.42743 11.6666 3.52152 11.633 3.62904C11.5725 3.82394 11.4247 3.87098 11.25 3.90458C10.6787 4.03227 10.1008 4.15324 9.53625 4.31453C8.52818 4.59678 7.62764 5.0941 6.80775 5.73926C6.45157 6.0148 6.14243 6.33738 5.92066 6.7406C5.77281 7.00942 5.672 7.2984 5.69216 7.60754C5.68544 7.68818 5.7056 7.76883 5.71904 7.84947Z" fill="#764BC3"/>
<path d="M11.3912 4.16699C11.2702 4.35516 11.1761 4.51645 11.0686 4.67102C11.0417 4.71135 10.9678 4.71807 10.914 4.73151C10.1546 4.87936 9.42879 5.13473 8.72987 5.47076C8.07127 5.78662 7.43955 6.16296 6.87503 6.62667C6.50541 6.92909 6.22315 7.30543 6.1089 7.77586C6.05514 7.99764 6.06186 8.21941 6.11562 8.44791C6.09546 8.42102 6.06858 8.39414 6.05514 8.36054C5.79304 7.83635 5.81992 7.33231 6.12906 6.835C6.35756 6.46538 6.69358 6.19656 7.0296 5.93447C7.66132 5.43715 8.36025 5.04737 9.09949 4.74495C9.73793 4.48285 10.3965 4.3014 11.0753 4.20059C11.1694 4.18715 11.2635 4.18043 11.3912 4.16699Z" fill="#5928B0"/>
<path d="M3.62915 10.8476C3.75012 10.6661 3.8442 10.4914 3.96517 10.3368C4.00549 10.283 4.11974 10.283 4.20039 10.2696C4.77162 10.1553 5.31598 9.9739 5.84689 9.75212C6.5727 9.44298 7.25818 9.0532 7.89662 8.58949C8.29313 8.30051 8.63587 7.96449 8.83076 7.50078C8.94501 7.22524 8.99877 6.94298 8.90469 6.64728C8.89797 6.63384 8.90469 6.6204 8.90469 6.58008C8.93829 6.61368 8.95845 6.62712 8.97189 6.654C9.22055 7.16476 9.20711 7.66879 8.91141 8.1661C8.67619 8.55588 8.33345 8.83142 7.98399 9.10024C7.27834 9.64459 6.49877 10.068 5.66544 10.3771C5.04716 10.6056 4.40872 10.7669 3.75684 10.8476C3.71652 10.8408 3.68291 10.8408 3.62915 10.8476Z" fill="#5928B0"/>
<path d="M7.5 15C3.36694 15 0 11.6398 0 7.5C0 3.36022 3.36694 0 7.5 0C11.6331 0 15 3.36694 15 7.5C15 11.6331 11.6398 15 7.5 15ZM7.5 0.403226C3.58871 0.403226 0.403226 3.58871 0.403226 7.5C0.403226 11.4113 3.58871 14.5968 7.5 14.5968C11.4113 14.5968 14.5968 11.4113 14.5968 7.5C14.5968 3.58871 11.418 0.403226 7.5 0.403226Z" fill="#5928B0"/>
</svg>
