<svg width="28" height="28" viewBox="0 0 28 28" fill="none" xmlns="http://www.w3.org/2000/svg">
<path fill-rule="evenodd" clip-rule="evenodd" d="M21.9185 15.6444C22.1852 16.237 22.9556 16.4148 23.4296 15.9704L24.2593 15.1407C25.1185 14.2815 26.5111 14.2815 27.3407 15.1407C28.2 16 28.2 17.3926 27.3407 18.2222L20.6741 24.8889C19.0741 26.7852 16.6741 28 13.9778 28C11.1926 28 8.67407 26.6963 7.07407 24.6519L0.644445 18.2222C-0.214815 17.363 -0.214815 15.9704 0.644445 15.1407C1.5037 14.2815 2.8963 14.2815 3.72593 15.1407L4.52593 15.9407C4.97037 16.3852 5.74074 16.1778 5.97778 15.6148C6.03704 15.4963 6.06667 15.3778 6.06667 15.2593V5.27408C6.06667 4.05926 7.04444 3.08148 8.25926 3.08148C9.47407 3.08148 10.4519 4.05926 10.4519 5.27408V10.3111C10.4519 10.7556 10.8963 11.0519 11.3111 10.9037C11.5778 10.8148 11.7556 10.5778 11.7556 10.3111V2.19259C11.7556 0.977776 12.7333 0 13.9481 0C15.163 0 16.1407 0.977776 16.1407 2.19259V10.3111C16.1407 10.5778 16.3185 10.8148 16.5852 10.9037C17 11.0222 17.4444 10.7259 17.4444 10.3111V5.27408C17.4444 4.05926 18.4222 3.08148 19.637 3.08148C20.8519 3.08148 21.8296 4.05926 21.8296 5.27408V15.2593C21.8593 15.4074 21.8889 15.5259 21.9185 15.6444Z" fill="#E94A4D"/>
<path d="M20.9705 20.1782C20.9705 20.1782 17.8298 24.5633 13.9779 24.5633C10.1261 24.5633 6.98535 20.1782 6.98535 20.1782C6.98535 20.1782 10.1261 15.793 13.9779 15.793C17.8594 15.793 20.9705 20.1782 20.9705 20.1782Z" fill="#D1DA4E"/>
<path d="M17.2667 20.1776C17.2667 21.985 15.7853 23.4665 13.9779 23.4665C12.1704 23.4665 10.689 21.985 10.689 20.1776C10.689 18.3702 12.1704 16.8887 13.9779 16.8887C15.7853 16.8887 17.2667 18.3405 17.2667 20.1776Z" fill="#010202" stroke="#E94A4D" stroke-width="1.479"/>
<path d="M15.9634 20.177C15.9634 21.2733 15.0745 22.1325 14.0078 22.1325C12.9115 22.1325 12.0522 21.2436 12.0522 20.177C12.0522 19.1103 12.9411 18.2214 14.0078 18.2214C15.0745 18.1918 15.9634 19.0807 15.9634 20.177Z" fill="#010202" stroke="#E94A4D" stroke-width="1.479"/>
<path d="M18.5704 20.1785C18.5704 22.7267 16.526 24.7711 13.9778 24.7711C11.4297 24.7711 9.38525 22.7267 9.38525 20.1785C9.38525 17.6304 11.4297 15.5859 13.9778 15.5859C16.526 15.5859 18.5704 17.6304 18.5704 20.1785Z" fill="#010202" stroke="#E94A4D" stroke-width="1.479"/>
<path d="M19.8741 20.1778C19.8741 23.4371 17.2371 26.0741 13.9778 26.0741C10.7186 26.0741 8.08154 23.4371 8.08154 20.1778C8.08154 16.9185 10.7186 14.2815 13.9778 14.2815C17.2371 14.2519 19.8741 16.9185 19.8741 20.1778Z" fill="#010202" stroke="#E94A4D" stroke-width="1.479"/>
<path d="M14.6299 20.1773C14.6299 20.5329 14.3336 20.8292 13.978 20.8292C13.6225 20.8292 13.3262 20.5329 13.3262 20.1773C13.3262 19.8218 13.6225 19.5255 13.978 19.5255C14.3336 19.4959 14.6299 19.7922 14.6299 20.1773Z" fill="#2F4B9B" stroke="#E94A4D" stroke-width="1.479"/>
<path d="M13.9782 21.0375C14.4523 21.0375 14.8671 20.6524 14.8671 20.1487C14.8671 19.645 14.4819 19.2598 13.9782 19.2598C13.5042 19.2598 13.0894 19.645 13.0894 20.1487C13.0894 20.6524 13.5042 21.0375 13.9782 21.0375Z" fill="#E94A4D"/>
<path d="M7.31186 20.2064C7.28223 20.1768 7.28223 20.1768 7.28223 20.1472C7.28223 20.1175 7.31186 20.1175 7.31186 20.0879C7.40074 19.9694 7.54889 19.7916 7.72667 19.6138C8.08223 19.199 8.58593 18.6657 9.20815 18.1324C10.4526 17.0657 12.1711 15.999 14.0082 15.999C15.8452 15.999 17.5637 17.0361 18.8082 18.1324C19.4304 18.6657 19.9341 19.199 20.2896 19.6138C20.4674 19.8212 20.5859 19.9694 20.7044 20.0879C20.7341 20.1175 20.7341 20.1175 20.7341 20.1472C20.7341 20.1768 20.7044 20.1768 20.7044 20.2064C20.6156 20.3249 20.4674 20.5027 20.2896 20.6805C19.9341 21.0953 19.4304 21.6287 18.8082 22.162C17.5637 23.2287 15.8452 24.2953 14.0082 24.2953C12.1711 24.2953 10.4526 23.2583 9.20815 22.162C8.58593 21.6287 8.08223 21.0953 7.72667 20.6805C7.51926 20.5027 7.40074 20.3249 7.31186 20.2064Z" fill="#010202" stroke="#D1DA4E" stroke-width="1.479"/>
</svg>
