<?xml version="1.0" encoding="utf-8"?>
<!-- Generator: Adobe Illustrator 25.4.1, SVG Export Plug-In . SVG Version: 6.00 Build 0)  -->
<svg version="1.1" id="Слой_1" xmlns="http://www.w3.org/2000/svg" xmlns:xlink="http://www.w3.org/1999/xlink" x="0px" y="0px"
	 viewBox="0 0 163 30" style="enable-background:new 0 0 163 30;" xml:space="preserve">
<style type="text/css">
	.st0{fill-rule:evenodd;clip-rule:evenodd;fill:url(#SVGID_1_);}
	.st1{fill-rule:evenodd;clip-rule:evenodd;fill:#FFFFFF;}
</style>
<g>
	
		<linearGradient id="SVGID_1_" gradientUnits="userSpaceOnUse" x1="163.856" y1="-97.8778" x2="112.622" y2="-51.2072" gradientTransform="matrix(1 0 0 -1 0 32)">
		<stop  offset="0" style="stop-color:#30BCD0"/>
		<stop  offset="1" style="stop-color:#CA28CC"/>
	</linearGradient>
	<path class="st0" d="M174.1,73.4l10.1-1.3l5.7,10.3l-6.4,7.2c0.8,2.2,1.4,4.5,1.8,6.8l9.3,3.4l-0.2,11.8l-9.2,3.1
		c-0.4,2.3-1.1,4.6-1.8,6.8l6.4,7.6l-6,10.1l-9.5-1.9c-1.5,1.8-3.2,3.5-5,5l1.7,9.8l-10.3,5.7l-4.8-4.3v-18.6
		c4.2-2.6,7.8-6.1,10.5-10.2c2.7-4.1,4.6-8.8,5.3-13.7c0.8-4.9,0.5-9.9-0.8-14.7c-1.3-4.8-3.7-9.2-6.8-13L174.1,73.4L174.1,73.4z
		 M110.9,83.7c-3.1,3.8-5.4,8.2-6.6,13c-1.3,4.7-1.5,9.7-0.7,14.6c0.8,4.8,2.6,9.5,5.4,13.5c2.7,4.1,6.3,7.5,10.5,10.1v18.3
		l-5.3,4.5l-10.1-6l1.9-9.5c-1.8-1.5-3.5-3.2-5-5l-9.8,1.7l-5.7-10.3l6.4-7.2c-0.8-2.2-1.4-4.5-1.8-6.8l-9.3-3.4l0.2-11.8l9.2-3.1
		c0.4-2.3,1.1-4.6,1.8-6.8l-6.4-7.6l6-10.1l9.4,1.9L110.9,83.7z"/>
	<path class="st1" d="M104.5,59.2l10.3-5.7l7.2,6.4c2.2-0.8,4.5-1.4,6.8-1.8l3.4-9.3l11.8,0.2l3.1,9.2c2.3,0.4,4.6,1.1,6.8,1.8
		l7.6-6.4l10.1,6l-1.9,9.5c0.7,0.6,1.4,1.2,2,1.9l-9.8,9.8c-1.7-1.6-3.5-3-5.4-4.3l-5.7-3.7v34.5l-6.4,3.7l-6.4,3.7l-6.4-3.7
		l-6.4-3.7V72.9l-5.7,3.7c-2.1,1.3-4,2.9-5.8,4.6l-9.8-9.8c0.8-0.8,1.6-1.6,2.5-2.3L104.5,59.2z"/>
</g>
</svg>
