<svg width="15" height="15" viewBox="0 0 15 15" fill="none" xmlns="http://www.w3.org/2000/svg">
<path fill-rule="evenodd" clip-rule="evenodd" d="M12.292 3.24894L13.6221 3.07917L14.3761 4.4305L13.5321 5.38474C13.6347 5.67841 13.7155 5.97929 13.7739 6.28481L15 6.72784L14.9768 8.27553L13.7677 8.68034C13.7088 8.98519 13.628 9.28534 13.5258 9.57848L14.3674 10.5767L13.5737 11.9058L12.3259 11.6519C12.1221 11.887 11.9013 12.1066 11.6652 12.3092L11.8945 13.5928L10.5427 14.3468L9.90473 13.7824V11.3375C10.4588 10.9931 10.9324 10.5335 11.2934 9.98998C11.6544 9.4465 11.8943 8.83173 11.9969 8.18736C12.0995 7.54304 12.0624 6.88416 11.8881 6.25541C11.7138 5.62666 11.4064 5.04275 10.9867 4.54319L12.2925 3.24942L12.292 3.24894ZM3.9732 4.59398C3.56438 5.09527 3.26709 5.67793 3.10114 6.30314C2.93518 6.92831 2.90438 7.58173 3.01078 8.21976C3.11718 8.85779 3.35834 9.46584 3.71819 10.0034C4.07804 10.5409 4.54832 10.9955 5.09771 11.337V13.7427L4.39494 14.3347L3.06586 13.541L3.3193 12.2937C3.08427 12.0901 2.86458 11.8694 2.66202 11.6335L1.37792 11.8628L0.623909 10.511L1.46788 9.55672C1.36524 9.2629 1.28441 8.96188 1.22605 8.65616L0 8.21313L0.0227302 6.66545L1.23186 6.26063C1.29059 5.95579 1.37141 5.65563 1.47369 5.36249L0.632615 4.36424L1.4258 3.03516L2.66492 3.28713L3.9732 4.59398Z" fill="url(#paint0_linear_854_23)"/>
<path d="M9.10893 3.1742V7.65847L8.3164 8.11615L7.52389 8.57383L6.73138 8.11615L5.93885 7.65847V3.1742V2.99197L5.78513 3.08985L5.03015 3.57061L5.02996 3.57074C4.77753 3.73231 4.54131 3.91771 4.32449 4.12436L3.17113 2.971C3.2536 2.89189 3.33865 2.81465 3.42628 2.73929L3.46955 2.70208L3.45953 2.64591L3.24279 1.43054L4.47045 0.745761L5.37115 1.54278L5.41505 1.58163L5.4704 1.56229C5.75957 1.46124 6.05579 1.3817 6.35671 1.32429L6.41267 1.31362L6.43202 1.26005L6.85082 0.101036L8.25633 0.121678L8.63818 1.26357L8.65671 1.31898L8.71407 1.33005C9.01413 1.38797 9.30962 1.46753 9.59825 1.56812L9.65205 1.58687L9.69561 1.55015L10.6389 0.755028L11.8454 1.47581L11.6061 2.65371L11.5944 2.71109L11.6388 2.74934C11.7034 2.80508 11.7668 2.86237 11.8292 2.92123L10.6747 4.07575C10.4711 3.8883 10.2512 3.71925 10.0176 3.57061C10.0176 3.57061 10.0176 3.5706 10.0176 3.5706L9.26265 3.08985L9.10893 2.99197V3.1742Z" fill="white" stroke="black" stroke-width="0.2"/>
<defs>
<linearGradient id="paint0_linear_854_23" x1="11.19" y1="10.4104" x2="4.44507" y2="4.26623" gradientUnits="userSpaceOnUse">
<stop stop-color="#30BCD0"/>
<stop offset="1" stop-color="#CA28CC"/>
</linearGradient>
</defs>
</svg>
