<svg width="14" height="11" viewBox="0 0 14 11" fill="none" xmlns="http://www.w3.org/2000/svg">
<path opacity="0.5" d="M4.40286 10.1026C9.68612 10.1026 12.5754 6.24856 12.5754 2.90644C12.5754 2.79699 12.5728 2.68803 12.5672 2.57953C13.1294 2.22134 13.6146 1.77785 14 1.26984C13.4853 1.47132 12.9315 1.60692 12.3505 1.66806C12.9435 1.35495 13.3988 0.859604 13.6136 0.269154C13.0498 0.563676 12.4329 0.771299 11.7897 0.883072C11.2655 0.391457 10.5193 0.0839844 9.69304 0.0839844C8.10682 0.0839844 6.82053 1.21664 6.82053 2.61282C6.82053 2.81131 6.84577 3.00432 6.89506 3.18952C4.5078 3.08375 2.39096 2.07732 0.974252 0.546997C0.71909 0.932975 0.58488 1.37165 0.585325 1.81821C0.585325 2.6957 1.0924 3.47032 1.86354 3.92351C1.4074 3.91124 0.961275 3.80276 0.562675 3.60717C0.562248 3.61779 0.562248 3.62813 0.562248 3.63948C0.562248 4.86434 1.55232 5.88702 2.86661 6.11875C2.61977 6.17794 2.36506 6.20787 2.10922 6.20774C1.92446 6.20774 1.74439 6.19173 1.56939 6.16215C1.93507 7.16707 2.99543 7.89836 4.25261 7.9188C3.26951 8.59729 2.03111 9.00142 0.685146 9.00142C0.456181 9.00159 0.227402 8.98989 0 8.96638C1.27121 9.68384 2.78065 10.1025 4.403 10.1025" fill="#976DFF"/>
</svg>
