<?xml version="1.0" encoding="utf-8"?>
<!-- Generator: Adobe Illustrator 27.7.0, SVG Export Plug-In . SVG Version: 6.00 Build 0)  -->
<svg version="1.1" id="Layer_1" xmlns="http://www.w3.org/2000/svg" xmlns:xlink="http://www.w3.org/1999/xlink" x="0px" y="0px"
	 viewBox="0 0 53.43 7.41" style="enable-background:new 0 0 53.43 7.41;" xml:space="preserve">
<style type="text/css">
	.st0{fill:#FFFFFF;}
</style>
<g>
	<g>
		<path class="st0" d="M5.98,0.65c0.01,0.03,0.03,0.02,0.05,0.02c0.14,0.02,0.29,0.03,0.43,0.05C6.78,0.78,7.08,0.87,7.38,1
			c0.35,0.15,0.67,0.34,0.96,0.57c0.18,0.14,0.34,0.3,0.5,0.46c0.09,0.09,0.09,0.21,0,0.3C8.71,2.46,8.59,2.58,8.47,2.69
			C8.39,2.78,8.3,2.86,8.22,2.94C8.21,2.95,8.2,2.96,8.19,2.97c-0.06,0.05-0.1,0.06-0.16,0C7.95,2.89,7.88,2.82,7.8,2.75
			C7.7,2.65,7.6,2.56,7.48,2.47C7.13,2.21,6.73,2.03,6.3,1.95C6.03,1.89,5.76,1.87,5.49,1.9c-0.38,0.04-0.74,0.13-1.08,0.3
			C4.13,2.33,3.88,2.52,3.65,2.74C3.57,2.82,3.49,2.89,3.42,2.97c-0.07,0.07-0.12,0.07-0.2,0c-0.2-0.2-0.41-0.4-0.61-0.6
			C2.59,2.36,2.58,2.35,2.57,2.33C2.51,2.26,2.5,2.17,2.55,2.1C2.56,2.08,2.58,2.06,2.6,2.04C2.9,1.73,3.22,1.45,3.6,1.23
			c0.34-0.2,0.7-0.34,1.07-0.44C4.82,0.76,4.96,0.73,5.1,0.71c0.1-0.02,0.19-0.02,0.29-0.03c0.03,0,0.06-0.02,0.09-0.02
			C5.65,0.65,5.82,0.65,5.98,0.65z"/>
		<path class="st0" d="M1.56,3.14c0.05,0,0.1,0.02,0.13,0.05c0.03,0.02,0.05,0.05,0.08,0.07c0.34,0.34,0.69,0.68,1.03,1.01
			c0.26,0.25,0.51,0.5,0.77,0.74C3.58,5.03,3.59,5.04,3.6,5.05c0.04,0.03,0.05,0.03,0.09,0C3.74,4.99,3.8,4.94,3.86,4.88
			c0.36-0.36,0.72-0.71,1.09-1.07c0.21-0.2,0.41-0.4,0.62-0.6c0.1-0.09,0.2-0.1,0.3-0.01C5.91,3.24,5.96,3.29,6,3.33
			c0.28,0.28,0.57,0.56,0.85,0.83C7.14,4.45,7.42,4.72,7.71,5C7.8,5.09,7.81,5.09,7.9,5c0.16-0.16,0.32-0.32,0.49-0.48
			c0.41-0.4,0.83-0.81,1.24-1.21C9.67,3.27,9.7,3.24,9.74,3.2c0.09-0.08,0.2-0.08,0.29,0c0.03,0.03,0.06,0.06,0.09,0.08
			c0.16,0.16,0.32,0.31,0.48,0.47c0.02,0.02,0.04,0.05,0.06,0.07c0.04,0.07,0.04,0.15-0.01,0.21c-0.02,0.02-0.04,0.04-0.06,0.06
			c-0.57,0.56-1.15,1.13-1.72,1.69c-0.3,0.29-0.6,0.58-0.89,0.87C7.88,6.75,7.79,6.76,7.7,6.71C7.68,6.7,7.65,6.68,7.63,6.66
			C7.26,6.29,6.88,5.92,6.5,5.55C6.27,5.32,6.03,5.09,5.8,4.86C5.79,4.85,5.77,4.84,5.76,4.83c-0.03-0.02-0.05-0.02-0.08,0
			C5.66,4.84,5.65,4.86,5.63,4.87C5.15,5.35,4.67,5.82,4.19,6.29C4.06,6.41,3.94,6.54,3.81,6.66c-0.11,0.11-0.22,0.11-0.33,0
			C3.47,6.66,3.46,6.65,3.45,6.64C3.08,6.27,2.7,5.9,2.32,5.53C1.9,5.12,1.48,4.71,1.06,4.3C0.98,4.22,0.9,4.15,0.83,4.07
			C0.76,4.01,0.75,3.93,0.78,3.84C0.79,3.82,0.81,3.8,0.82,3.78C1.01,3.59,1.2,3.41,1.39,3.22C1.44,3.18,1.49,3.14,1.56,3.14z"/>
	</g>
	<path class="st0" d="M16.15,1.74c0.3,0,0.6,0,0.92,0c-0.01,0.05-0.01,0.1-0.02,0.14c-0.16,0.59-0.31,1.18-0.47,1.77
		c-0.16,0.59-0.32,1.19-0.48,1.78c-0.06,0.21-0.11,0.42-0.17,0.64c-0.02,0-0.05,0.01-0.07,0.01c-0.23,0-0.46,0-0.69,0
		c-0.09,0-0.1,0-0.12-0.09c-0.25-0.91-0.51-1.82-0.76-2.73c-0.01-0.05-0.03-0.1-0.05-0.15c-0.01,0-0.02,0-0.02-0.01
		c0,0.01-0.01,0.02-0.01,0.03c-0.27,0.98-0.55,1.96-0.82,2.95c-0.12,0-0.24,0-0.36,0c-0.14,0-0.27,0-0.41,0
		c-0.06,0-0.08-0.02-0.1-0.08c-0.13-0.48-0.26-0.97-0.38-1.45c-0.25-0.92-0.49-1.84-0.74-2.77c0-0.01,0-0.03-0.01-0.05
		c0.31,0,0.62,0,0.93,0c0.23,1.04,0.45,2.09,0.68,3.13c0.01,0,0.02,0,0.03,0c0.1-0.34,0.18-0.69,0.27-1.03
		c0.09-0.35,0.18-0.7,0.27-1.05c0.09-0.35,0.18-0.7,0.27-1.05c0.25,0,0.51,0,0.77,0c0.27,1.04,0.54,2.08,0.81,3.12
		c0.01,0,0.02,0,0.03,0c0.01-0.03,0.03-0.06,0.03-0.1c0.07-0.33,0.14-0.66,0.22-0.99c0.14-0.65,0.28-1.29,0.42-1.94
		C16.12,1.81,16.13,1.78,16.15,1.74z"/>
	<path class="st0" d="M32.99,3.29c-0.04,0-0.06,0.01-0.08,0.01c-0.24,0-0.47,0-0.71,0c-0.09,0-0.1,0-0.11-0.09
		c-0.11-0.53-0.61-0.82-1.06-0.79c-0.41,0.03-0.71,0.22-0.89,0.6c-0.18,0.4-0.22,0.82-0.16,1.25c0.02,0.14,0.05,0.27,0.1,0.4
		c0.13,0.35,0.36,0.6,0.73,0.7c0.43,0.12,1-0.01,1.25-0.58c0.03-0.06,0.04-0.13,0.06-0.2c0.29,0,0.58,0,0.88,0
		c-0.02,0.09-0.02,0.18-0.04,0.26c-0.18,0.63-0.58,1.04-1.21,1.22c-0.1,0.03-0.2,0.06-0.31,0.08c-0.06,0.01-0.12,0.01-0.17,0.01
		c-0.31,0.01-0.62-0.01-0.92-0.11c-0.51-0.17-0.87-0.52-1.09-1.01c-0.14-0.31-0.2-0.63-0.21-0.96c-0.02-0.42,0.03-0.83,0.19-1.22
		c0.25-0.6,0.69-0.97,1.32-1.12c0.52-0.12,1.03-0.08,1.51,0.16c0.5,0.25,0.82,0.66,0.92,1.22C32.98,3.16,32.98,3.22,32.99,3.29z"/>
	<path class="st0" d="M19.04,4.12c0.01-0.12,0.01-0.24-0.02-0.35c-0.04-0.14-0.13-0.23-0.27-0.28c-0.18-0.07-0.36-0.06-0.53,0.01
		c-0.15,0.06-0.26,0.16-0.29,0.34c-0.27,0-0.53,0-0.8,0c0-0.05,0.01-0.09,0.01-0.13c0.08-0.39,0.32-0.65,0.68-0.79
		C18.2,2.77,18.59,2.74,19,2.84c0.2,0.05,0.38,0.12,0.54,0.25c0.25,0.19,0.36,0.46,0.37,0.76c0.01,0.17,0,0.35,0,0.53
		c0,0.51,0,1.02,0,1.54c0,0.05,0,0.1,0,0.15c-0.07,0.02-0.69,0.03-0.85,0.01c0-0.16,0-0.31,0-0.49c-0.03,0.02-0.04,0.03-0.05,0.04
		c-0.17,0.28-0.44,0.44-0.75,0.49c-0.41,0.07-0.79-0.03-1.07-0.36c-0.24-0.28-0.28-0.61-0.14-0.96c0.08-0.22,0.26-0.35,0.46-0.45
		c0.2-0.09,0.41-0.14,0.63-0.16c0.28-0.02,0.57-0.04,0.85-0.06C19,4.13,19.01,4.13,19.04,4.12z M19.04,4.67c-0.04,0-0.07,0-0.1,0
		c-0.2,0.01-0.4,0.02-0.61,0.04c-0.09,0.01-0.19,0.04-0.28,0.08c-0.14,0.06-0.22,0.18-0.22,0.34c0.01,0.16,0.12,0.29,0.3,0.34
		c0.15,0.04,0.31,0.04,0.46-0.02c0.23-0.08,0.39-0.23,0.43-0.48C19.04,4.87,19.04,4.78,19.04,4.67z"/>
	<path class="st0" d="M47.1,4.67c-0.74,0-1.48,0-2.21,0c-0.06,0.3,0.13,0.65,0.42,0.77c0.18,0.07,0.37,0.08,0.56,0.02
		c0.19-0.06,0.32-0.18,0.4-0.36c0.27,0,0.53,0,0.81,0c-0.01,0.04-0.01,0.08-0.02,0.11c-0.1,0.35-0.33,0.61-0.66,0.76
		c-0.48,0.23-0.97,0.23-1.46,0.05c-0.37-0.14-0.63-0.4-0.77-0.76c-0.22-0.57-0.21-1.14,0.05-1.69c0.21-0.45,0.59-0.69,1.07-0.77
		c0.25-0.04,0.49-0.03,0.74,0.03c0.55,0.15,0.88,0.51,1.02,1.05C47.11,4.14,47.12,4.39,47.1,4.67z M46.26,4.12
		c-0.02-0.42-0.32-0.7-0.73-0.68c-0.34,0.02-0.62,0.28-0.62,0.68C45.36,4.12,45.8,4.12,46.26,4.12z"/>
	<path class="st0" d="M26.43,4.67c-0.74,0-1.47,0-2.21,0c-0.06,0.33,0.15,0.68,0.47,0.79c0.22,0.07,0.43,0.06,0.64-0.05
		c0.11-0.06,0.19-0.14,0.24-0.25c0.02-0.04,0.04-0.06,0.08-0.06c0.24,0,0.47,0,0.71,0c0.01,0,0.02,0.01,0.04,0.01
		c-0.01,0.03-0.01,0.07-0.02,0.1c-0.1,0.36-0.33,0.62-0.67,0.78c-0.44,0.21-0.9,0.23-1.36,0.08c-0.45-0.15-0.75-0.45-0.9-0.91
		c-0.16-0.49-0.15-0.98,0.04-1.46c0.2-0.5,0.58-0.79,1.11-0.88c0.12-0.02,0.24-0.03,0.36-0.02c0.38,0.02,0.73,0.12,1.01,0.39
		c0.2,0.19,0.32,0.42,0.39,0.68C26.43,4.12,26.46,4.38,26.43,4.67z M24.22,4.12c0.47,0,0.92,0,1.37,0c-0.01-0.4-0.31-0.74-0.77-0.68
		c-0.18,0.02-0.33,0.11-0.44,0.25C24.28,3.82,24.24,3.97,24.22,4.12z"/>
	<path class="st0" d="M33.37,4.53c0-0.31,0.03-0.56,0.12-0.79c0.17-0.45,0.49-0.75,0.96-0.88c0.38-0.11,0.77-0.1,1.14,0.04
		c0.42,0.15,0.7,0.45,0.85,0.87c0.05,0.13,0.09,0.25,0.09,0.39c0,0.03,0.02,0.06,0.02,0.09c0.05,0.45-0.03,0.88-0.27,1.27
		c-0.15,0.23-0.35,0.39-0.6,0.5c-0.47,0.2-0.95,0.19-1.41,0c-0.4-0.16-0.65-0.46-0.79-0.86C33.4,4.93,33.37,4.72,33.37,4.53z
		 M35.68,4.44c0-0.18-0.03-0.36-0.09-0.53c-0.07-0.18-0.19-0.33-0.38-0.4c-0.33-0.14-0.7,0.03-0.84,0.37
		c-0.11,0.26-0.12,0.54-0.1,0.82c0.01,0.11,0.04,0.22,0.08,0.32c0.04,0.11,0.1,0.21,0.19,0.29c0.24,0.22,0.63,0.22,0.86-0.01
		c0.13-0.13,0.21-0.28,0.24-0.46C35.66,4.7,35.66,4.57,35.68,4.44z"/>
	<path class="st0" d="M41.46,6.08c-0.3,0-0.58,0-0.86,0c-0.02-0.07-0.04-2.94-0.01-3.23c0.28-0.01,0.56,0,0.85-0.01
		c0,0.2,0,0.38,0,0.56c0.01,0,0.01,0,0.02,0c0.01-0.02,0.03-0.04,0.04-0.05c0.17-0.33,0.43-0.51,0.79-0.55
		c0.25-0.03,0.5-0.01,0.73,0.11c0.28,0.14,0.43,0.37,0.51,0.66c0.04,0.17,0.06,0.34,0.06,0.51c0,0.63,0,1.26,0,1.89
		c0,0.03,0,0.06,0,0.1c-0.29,0-0.58,0-0.88,0c0-0.04,0-0.08,0-0.12c0-0.59,0-1.19,0-1.78c0-0.13-0.03-0.26-0.09-0.38
		c-0.06-0.11-0.14-0.19-0.26-0.23c-0.24-0.09-0.47-0.06-0.67,0.1c-0.06,0.05-0.1,0.11-0.14,0.18c-0.07,0.14-0.09,0.29-0.09,0.44
		c0,0.56,0,1.11,0,1.67C41.46,6,41.46,6.04,41.46,6.08z"/>
	<path class="st0" d="M37.89,6.08c-0.29,0-0.57,0-0.87,0c0-1.08,0-2.15,0-3.22c0.28,0,0.55,0,0.84,0c0,0.19,0,0.37,0,0.55
		c0.01,0,0.01,0,0.02,0c0.01-0.02,0.03-0.04,0.04-0.06C38.11,3,38.41,2.83,38.8,2.8c0.23-0.01,0.46,0.01,0.67,0.13
		c0.25,0.13,0.4,0.35,0.48,0.62c0.04,0.14,0.06,0.29,0.06,0.44c0,0.68,0,1.37,0,2.05c0,0.01,0,0.03-0.01,0.05c-0.29,0-0.58,0-0.87,0
		c0-0.03-0.01-0.06-0.01-0.09c0-0.59,0-1.19,0-1.78c0-0.12-0.01-0.24-0.06-0.36c-0.08-0.19-0.23-0.29-0.44-0.31
		c-0.38-0.04-0.66,0.18-0.72,0.56C37.9,4.17,37.9,4.25,37.9,4.33c0,0.55,0,1.1,0,1.65C37.9,6.01,37.89,6.04,37.89,6.08z"/>
	<path class="st0" d="M50.48,4.04c-0.26,0-0.53,0-0.79,0c-0.03-0.08-0.05-0.15-0.08-0.21c-0.12-0.24-0.32-0.36-0.59-0.35
		c-0.27,0.01-0.47,0.15-0.57,0.4c-0.13,0.33-0.14,0.67-0.05,1.01c0.04,0.17,0.13,0.33,0.28,0.44c0.34,0.25,0.83,0.11,0.97-0.29
		c0.02-0.05,0.03-0.11,0.06-0.13c0.03-0.02,0.09-0.01,0.14-0.01c0.18,0,0.36,0,0.55,0c0.03,0,0.07,0,0.11,0c0,0.04,0,0.07,0,0.1
		c-0.08,0.51-0.36,0.87-0.84,1.05c-0.29,0.11-0.59,0.13-0.89,0.08c-0.29-0.04-0.56-0.15-0.78-0.34c-0.23-0.2-0.38-0.46-0.46-0.75
		c-0.12-0.46-0.11-0.91,0.07-1.35c0.21-0.51,0.6-0.79,1.14-0.87c0.35-0.06,0.69-0.03,1.01,0.12c0.41,0.19,0.66,0.52,0.74,0.97
		c0.01,0.04,0.01,0.08,0.02,0.12C50.49,4.03,50.49,4.03,50.48,4.04z"/>
	<path class="st0" d="M52.63,5.42c0,0.22,0,0.43,0,0.64c-0.35,0.05-0.7,0.06-1.03-0.07c-0.2-0.08-0.34-0.22-0.38-0.43
		c-0.03-0.14-0.05-0.28-0.05-0.42c-0.01-0.47,0-0.95,0-1.42c0-0.07,0-0.14,0-0.21c-0.15,0-0.3,0-0.45,0c0-0.22,0-0.43,0-0.66
		c0.14-0.01,0.29,0,0.44-0.01c0-0.24,0-0.48,0-0.72c0.07-0.03,0.75-0.03,0.89-0.01c0,0.24,0,0.48,0,0.73c0.2,0,0.39,0,0.58,0
		c0.02,0.07,0.03,0.51,0.01,0.66c-0.19,0-0.38,0-0.57,0c0,0.03-0.01,0.06-0.01,0.08c0,0.48,0,0.96,0,1.43c0,0.03,0,0.06,0,0.09
		c0.01,0.17,0.1,0.27,0.27,0.3c0.07,0.01,0.14,0.01,0.21,0.01C52.55,5.42,52.58,5.42,52.63,5.42z"/>
	<path class="st0" d="M28.59,5.42c0,0.03,0.01,0.04,0.01,0.06c0,0.19,0,0.38,0,0.58c-0.07,0.01-0.12,0.03-0.17,0.03
		c-0.18,0-0.36,0.02-0.54,0c-0.18-0.02-0.35-0.07-0.5-0.18c-0.16-0.12-0.23-0.29-0.25-0.48c-0.01-0.11-0.02-0.21-0.02-0.32
		c0-0.49,0-0.98,0-1.46c0-0.04,0-0.07,0-0.13c-0.15,0-0.3,0-0.45,0c0-0.23,0-0.44,0-0.66c0.15,0,0.29,0,0.45,0c0-0.25,0-0.49,0-0.74
		c0.3,0,0.58,0,0.88,0c0.01,0.24,0,0.48,0.01,0.73c0.2,0,0.39,0,0.58,0c0.02,0.08,0.03,0.53,0.01,0.66c-0.19,0-0.38,0-0.58,0
		c0,0.04-0.01,0.07-0.01,0.1c0,0.48,0,0.96,0,1.43c0,0.03,0,0.06,0,0.08c0.02,0.16,0.11,0.26,0.27,0.29
		c0.06,0.01,0.13,0.01,0.2,0.01C28.51,5.42,28.55,5.42,28.59,5.42z"/>
	<path class="st0" d="M22,1.74c0.29,0,0.57,0,0.87,0c0,1.44,0,2.89,0,4.34c-0.29,0-0.57,0-0.86,0C21.98,6.01,21.98,1.87,22,1.74z"/>
	<path class="st0" d="M21.37,6.08c-0.3,0-0.58,0-0.87,0c0-1.45,0-2.89,0-4.34c0.03,0,0.06-0.01,0.09-0.01c0.23,0,0.45,0,0.68,0
		c0.1,0,0.11,0,0.11,0.1c0,1.39,0,2.79,0,4.18C21.37,6.04,21.37,6.06,21.37,6.08z"/>
</g>
</svg>
