<svg width="37" height="41" viewBox="0 0 37 41" fill="none" xmlns="http://www.w3.org/2000/svg">
<path fill-rule="evenodd" clip-rule="evenodd" d="M10.8793 34.4122C16.9114 38.7259 26.263 35.9528 31.7669 28.2182C37.2706 20.4836 36.8425 10.7165 30.8104 6.40285C24.7784 2.08916 15.4267 4.86234 9.92285 12.5969C4.41906 20.3315 4.84727 30.0984 10.8793 34.4122ZM12.2898 32.0723C17.0437 35.4719 24.4139 33.2865 28.7516 27.1906C33.0893 21.0949 32.7518 13.3973 27.9978 9.99766C23.2439 6.59798 15.8736 8.78356 11.536 14.8793C7.19834 20.975 7.53583 28.6726 12.2898 32.0723Z" fill="white"/>
<path fill-rule="evenodd" clip-rule="evenodd" d="M0.136679 36.9344C-1.09457 43.6718 6.12999 41.7678 16.2732 32.6815C26.4163 23.5955 35.6371 10.768 36.8684 4.03066C37.8992 -1.61036 33.0025 -1.1935 25.4278 4.42467C25.9458 4.47399 26.4564 4.55619 26.9573 4.67205C32.4243 1.09456 35.7867 1.23061 34.984 5.62328C33.9215 11.4375 25.964 22.5072 17.2107 30.3484C8.45737 38.1896 2.22275 39.8326 3.28529 34.0186C3.6323 32.1197 4.71479 29.6601 6.32023 26.9355C6.1974 26.283 6.11786 25.6121 6.0818 24.9281C2.89643 29.5713 0.695032 33.8792 0.136679 36.9344Z" fill="white"/>
</svg>
