<?xml version="1.0" standalone="no"?>
<!DOCTYPE svg PUBLIC "-//W3C//DTD SVG 20010904//EN"
 "http://www.w3.org/TR/2001/REC-SVG-20010904/DTD/svg10.dtd">
<svg version="1.0" xmlns="http://www.w3.org/2000/svg"
 width="260.000000pt" height="260.000000pt" viewBox="0 0 260.000000 260.000000"
 preserveAspectRatio="xMidYMid meet">
<metadata>
Created by potrace 1.14, written by Peter Selinger 2001-2017
</metadata>
<g transform="translate(0.000000,260.000000) scale(0.100000,-0.100000)"
fill="#000000" stroke="none">
<path d="M133 2535 c-18 -5 -33 -13 -33 -18 0 -4 -4 -6 -9 -3 -5 3 -15 -1 -22
-10 -18 -22 -19 -162 -1 -169 7 -3 11 -9 7 -15 -3 -5 1 -21 10 -34 9 -14 13
-31 9 -38 -4 -7 -4 -10 1 -6 4 4 24 -25 43 -65 20 -39 39 -73 44 -75 4 -2 8
-10 8 -18 0 -8 5 -14 12 -14 6 0 8 -3 5 -7 -4 -3 5 -17 19 -30 14 -12 19 -23
12 -23 -7 0 -2 -7 10 -16 12 -8 22 -22 22 -30 0 -8 4 -14 9 -14 5 0 14 -13 21
-30 7 -16 16 -30 21 -30 5 0 9 -5 9 -11 0 -7 10 -21 23 -33 12 -11 32 -37 44
-56 12 -19 34 -47 48 -62 14 -15 25 -32 25 -38 0 -6 4 -8 10 -5 5 3 10 -1 10
-10 0 -9 5 -13 10 -10 10 6 2 -18 -22 -70 -9 -21 -16 -49 -17 -73 -1 -7 -4
-11 -8 -9 -5 3 -8 -5 -9 -16 -1 -12 -5 -51 -9 -87 -12 -99 -9 -252 5 -275 3
-5 7 -26 9 -45 2 -19 6 -37 10 -40 7 -5 12 -25 14 -52 1 -10 4 -18 8 -18 7 0
23 -50 21 -62 -1 -5 3 -8 9 -8 5 0 8 -4 5 -9 -4 -5 -2 -11 3 -13 5 -1 11 -10
13 -18 2 -8 6 -17 9 -20 3 -3 20 -26 38 -52 17 -27 37 -48 44 -48 8 0 7 -3 -2
-9 -11 -7 -9 -10 8 -16 11 -3 21 -10 21 -15 0 -12 56 -70 68 -70 5 0 17 -11
26 -25 9 -14 23 -25 31 -25 8 0 15 -5 15 -11 0 -5 5 -7 10 -4 6 3 10 -1 10 -9
0 -14 18 -21 43 -17 4 0 7 -4 7 -9 0 -14 81 -51 94 -43 5 3 6 2 3 -3 -3 -6 7
-15 24 -21 16 -6 27 -7 24 -2 -3 5 9 1 27 -8 71 -35 71 -35 62 -21 -6 10 -5
11 7 1 8 -7 33 -14 54 -17 22 -2 42 -5 45 -6 18 -6 158 -4 173 3 11 5 17 4 17
-4 0 -8 4 -8 12 -2 7 6 21 9 30 8 10 -2 20 0 23 5 2 4 16 6 30 5 14 -2 25 1
25 6 0 5 11 9 24 9 14 0 28 5 31 10 4 6 11 8 16 4 5 -3 17 0 25 7 9 7 23 14
33 16 20 3 71 -17 71 -28 0 -5 7 -9 16 -9 8 0 12 -5 9 -10 -3 -6 1 -10 10 -10
9 0 13 -4 10 -10 -3 -6 1 -10 9 -10 8 0 20 -8 25 -18 6 -9 11 -12 11 -7 0 6 3
6 8 -1 4 -6 32 -28 62 -49 30 -21 59 -44 63 -52 4 -7 15 -13 22 -13 8 0 15 -4
15 -10 0 -5 7 -10 15 -10 7 0 18 -7 23 -16 5 -9 13 -16 18 -16 17 -1 39 -12
54 -27 8 -9 22 -17 30 -19 8 -2 18 -9 22 -15 4 -7 8 -7 8 -2 0 6 3 6 8 -1 11
-15 109 -64 116 -57 3 4 6 1 6 -5 0 -7 4 -12 9 -12 5 0 22 -5 38 -12 15 -6 31
-11 36 -10 4 1 7 -4 7 -11 0 -9 2 -9 9 1 6 11 11 10 25 -3 9 -9 16 -11 16 -5
0 8 6 8 20 0 12 -7 20 -7 20 -1 0 5 9 8 19 6 11 -2 22 3 25 11 3 9 10 12 16 9
5 -3 10 1 10 10 0 9 5 13 10 10 9 -6 12 4 14 53 1 9 6 20 11 24 6 5 4 8 -5 8
-13 0 -13 1 0 10 9 6 10 10 3 10 -6 0 -10 9 -8 20 2 11 0 20 -4 20 -4 0 -8 7
-9 15 -1 8 -3 22 -4 30 -1 8 -5 15 -10 15 -4 0 -7 3 -6 8 2 4 -6 27 -16 52
-11 25 -19 48 -18 53 1 4 -3 7 -9 7 -5 0 -7 4 -4 10 3 6 2 10 -3 10 -9 0 -25
37 -23 53 1 4 -6 7 -14 7 -8 0 -15 9 -15 20 0 11 -5 20 -11 20 -5 0 -7 5 -4
10 3 5 1 10 -5 10 -6 0 -8 4 -5 10 3 6 1 10 -4 10 -6 0 -11 7 -11 16 0 9 -5
12 -12 8 -6 -4 -8 -3 -5 3 3 5 -5 26 -18 46 -14 20 -25 41 -25 46 0 6 -6 10
-12 9 -7 -2 -12 3 -10 10 1 6 -2 12 -8 12 -5 0 -10 7 -10 15 0 8 -4 15 -10 15
-5 0 -10 6 -10 14 0 8 -7 17 -16 20 -9 4 -14 9 -11 12 3 4 1 12 -6 19 -7 6
-23 27 -37 45 -14 18 -35 44 -47 59 -22 25 -28 71 -10 71 5 0 7 7 3 15 -3 8
-1 15 4 15 6 0 9 3 9 8 -5 28 2 52 14 46 7 -5 6 0 -3 11 -12 15 -12 17 -1 10
11 -6 13 -4 8 10 -4 9 -2 24 4 31 6 8 9 25 7 39 -3 14 -1 25 6 25 6 0 5 4 -3
9 -7 5 -9 11 -4 14 14 9 6 205 -10 225 -5 6 -7 12 -4 12 3 0 0 20 -7 45 -8 25
-12 45 -9 45 3 0 0 6 -6 13 -6 8 -8 17 -4 20 3 4 2 7 -4 7 -5 0 -10 6 -10 13
0 7 -14 40 -31 74 -17 34 -28 64 -25 67 4 3 -1 6 -10 6 -10 0 -16 3 -16 8 3
19 -2 33 -10 28 -5 -3 -12 6 -15 19 -4 14 -11 23 -16 20 -6 -3 -10 0 -10 7 0
7 -16 28 -35 45 -19 18 -35 35 -35 38 0 4 -7 13 -15 21 -8 9 -15 13 -15 10 0
-3 -9 2 -19 12 -59 54 -81 70 -81 60 0 -6 -8 -2 -17 8 -26 28 -59 52 -49 36 7
-11 4 -11 -15 0 -13 7 -32 19 -41 27 -10 8 -18 10 -18 5 0 -5 -4 -3 -8 3 -4 7
-17 14 -27 16 -20 4 -41 11 -83 28 -18 7 -21 6 -16 -3 6 -9 3 -9 -9 0 -9 8
-22 12 -29 9 -7 -2 -22 0 -33 6 -24 13 -65 16 -59 5 3 -4 -5 -4 -18 0 -18 7
-163 8 -163 2 0 -1 -35 -7 -80 -13 -14 -2 -28 -7 -32 -10 -3 -4 -16 -7 -27 -7
-12 0 -32 -8 -45 -17 -14 -9 -21 -11 -16 -4 6 10 3 11 -14 1 -19 -10 -25 -8
-42 11 -10 12 -19 18 -19 13 -1 -5 -9 1 -19 13 -10 12 -21 19 -25 16 -3 -4 -6
-1 -6 5 0 7 -5 12 -12 12 -11 0 -17 4 -74 57 -17 16 -36 27 -43 25 -6 -2 -11
1 -11 8 0 6 -4 9 -9 5 -5 -3 -13 4 -16 16 -4 11 -9 18 -12 15 -7 -7 -63 26
-63 37 0 4 -4 6 -9 3 -5 -3 -14 1 -21 9 -7 8 -22 15 -34 15 -13 0 -17 3 -9 8
8 5 1 12 -20 22 -18 8 -32 12 -33 9 0 -2 -8 4 -18 14 -10 9 -22 15 -27 12 -5
-4 -9 -1 -9 4 0 6 -7 11 -16 11 -9 0 -12 5 -8 12 4 6 3 8 -3 5 -5 -3 -26 3
-46 13 -21 11 -37 18 -37 15 0 -3 -13 1 -30 10 -16 9 -30 13 -30 9 0 -4 -6 -1
-13 5 -8 6 -31 12 -53 13 -21 2 -41 5 -44 8 -3 3 -20 1 -37 -5z m71 -97 c-5
-7 -3 -8 7 -2 20 12 38 14 45 3 4 -6 11 -6 19 1 9 7 16 6 25 -5 7 -8 16 -12
22 -9 5 3 15 0 23 -6 8 -6 19 -9 25 -5 5 3 13 0 16 -8 2 -7 11 -14 19 -15 8
-1 22 -3 30 -4 8 -1 12 -5 9 -10 -3 -4 2 -8 10 -8 9 0 16 -4 16 -10 0 -5 9
-10 20 -10 11 0 20 -5 20 -11 0 -5 4 -8 9 -5 5 3 14 -1 21 -9 7 -8 19 -15 26
-15 8 0 14 -5 14 -11 0 -5 4 -8 9 -4 6 3 13 0 18 -7 4 -7 25 -22 46 -33 20
-11 37 -23 37 -28 0 -4 4 -5 10 -2 6 3 10 -2 11 -12 0 -10 3 -13 5 -6 4 8 11
7 23 -5 34 -32 61 -52 71 -52 6 0 10 -4 10 -10 0 -5 6 -10 13 -10 7 0 19 -9
27 -20 8 -11 23 -20 33 -20 10 0 15 -4 12 -10 -13 -21 -41 -10 -91 38 -8 7
-14 11 -14 7 0 -3 -6 -1 -12 5 -49 40 -63 50 -75 50 -7 0 -16 7 -19 15 -4 8
-15 15 -25 15 -10 0 -19 5 -19 10 0 6 -7 10 -15 10 -8 0 -15 4 -15 8 0 5 -16
14 -35 22 -19 8 -35 16 -35 20 0 3 -17 12 -37 19 -21 8 -41 19 -45 25 -5 7 -8
6 -8 -4 0 -13 -2 -13 -9 -1 -5 8 -17 15 -28 16 -10 1 -29 7 -43 12 -14 6 -31
8 -37 6 -7 -3 -13 0 -13 7 0 6 -5 8 -12 3 -7 -4 -24 -9 -37 -11 -25 -3 -53
-31 -45 -44 3 -5 0 -8 -7 -8 -7 0 -8 -4 -2 -12 5 -7 8 -28 7 -45 -1 -18 1 -33
5 -33 4 0 8 -7 9 -15 1 -8 3 -22 4 -30 1 -8 5 -15 9 -15 6 0 28 -48 34 -77 2
-7 10 -20 19 -29 9 -8 16 -22 16 -30 0 -8 5 -12 10 -9 6 4 10 3 9 -2 -4 -16
14 -50 49 -88 6 -7 12 -18 12 -24 0 -6 5 -11 12 -11 6 0 9 -3 5 -6 -7 -7 15
-33 24 -28 4 2 6 -4 5 -14 0 -9 4 -16 11 -15 8 2 10 -4 6 -14 -4 -11 -3 -14 5
-9 7 4 12 2 12 -4 0 -6 6 -18 13 -25 32 -37 38 -46 32 -55 -3 -5 -12 -7 -20
-4 -8 4 -12 10 -9 15 3 5 0 9 -5 9 -6 0 -11 7 -11 17 0 9 -3 13 -7 10 -3 -4
-22 17 -42 46 -19 28 -41 58 -48 65 -7 7 -20 26 -30 42 -9 17 -21 30 -25 30
-4 0 -8 6 -8 14 0 7 -7 19 -15 26 -8 7 -12 16 -9 21 3 5 0 9 -7 9 -7 0 -9 3
-6 7 4 3 -2 13 -13 20 -11 8 -18 19 -15 24 4 5 1 9 -4 9 -6 0 -10 3 -10 8 4
21 -2 32 -13 26 -8 -5 -9 -2 -5 9 4 11 1 17 -9 17 -8 0 -13 4 -9 9 3 5 1 12
-5 16 -6 4 -8 11 -5 16 4 5 1 9 -4 9 -6 0 -11 9 -11 21 0 13 -4 18 -12 13 -7
-5 -9 -2 -5 8 3 9 -1 25 -10 37 -8 12 -12 28 -9 36 3 8 0 15 -6 15 -6 0 -5 6
3 17 8 10 9 14 2 10 -8 -5 -11 2 -11 23 1 16 5 30 10 30 4 0 7 3 6 8 -3 14 14
42 22 37 5 -3 11 -1 15 5 3 5 8 10 11 10 3 0 2 -5 -2 -12z m349 -333 c9 2 17
0 17 -4 0 -4 9 -7 19 -8 11 -1 38 -13 60 -27 23 -15 41 -23 41 -19 0 5 6 1 13
-7 7 -8 25 -21 40 -28 25 -11 35 -34 15 -33 -11 0 -86 -73 -82 -80 2 -3 -8
-11 -22 -18 -14 -6 -23 -15 -20 -19 2 -4 -4 -13 -15 -20 -10 -7 -19 -8 -19 -4
0 5 -11 22 -25 38 -24 27 -29 39 -26 57 0 4 -3 7 -9 7 -11 0 -50 73 -50 95 0
8 -6 15 -12 15 -9 0 -8 4 2 10 12 8 13 10 1 10 -10 0 -7 8 9 25 14 15 27 21
34 16 6 -5 19 -7 29 -6z m1554 -1236 c-1 -4 7 -15 18 -25 21 -19 26 -37 14
-49 -9 -9 -71 84 -64 96 6 9 34 -11 32 -22z m63 -82 c0 -7 9 -19 19 -27 11 -7
18 -17 15 -22 -3 -4 0 -8 5 -8 6 0 11 -7 11 -15 0 -8 5 -15 10 -15 6 0 10 -7
10 -15 0 -8 5 -15 11 -15 5 0 7 -4 4 -10 -3 -5 -1 -10 4 -10 6 0 11 -7 11 -16
0 -8 5 -12 10 -9 6 3 10 -2 10 -13 0 -10 8 -27 18 -38 10 -10 25 -34 32 -51 8
-18 18 -33 21 -33 7 0 22 -40 20 -52 -1 -5 4 -8 10 -8 5 0 7 -4 4 -10 -3 -5
-2 -10 3 -10 8 0 35 -69 37 -95 1 -5 6 -20 13 -32 14 -25 15 -36 5 -30 -5 3
-8 -5 -8 -18 0 -13 3 -21 7 -19 4 3 6 -4 5 -15 0 -11 -4 -18 -8 -15 -4 2 -10
-5 -14 -16 -6 -18 -17 -24 -37 -21 -5 0 -8 -3 -8 -7 0 -10 -51 -9 -68 2 -8 4
-16 5 -19 2 -4 -3 -13 0 -22 7 -9 8 -35 19 -59 26 -23 6 -40 16 -37 22 4 5 3
8 -2 7 -13 -4 -93 34 -93 44 0 5 -4 6 -10 3 -5 -3 -10 -1 -10 4 0 6 -9 11 -20
11 -11 0 -20 7 -20 16 0 8 -4 12 -10 9 -5 -3 -10 -1 -10 4 0 6 -7 11 -15 11
-9 0 -18 7 -21 15 -4 8 -10 12 -15 9 -5 -3 -9 0 -9 7 0 7 -3 10 -6 6 -3 -3
-11 -1 -18 4 -49 41 -60 48 -69 42 -6 -3 -7 -1 -3 6 5 7 -4 16 -25 25 -21 9
-27 15 -18 19 10 4 9 6 -3 6 -10 1 -18 6 -18 12 0 5 -4 8 -8 5 -5 -3 -19 6
-30 19 -12 14 -28 25 -34 25 -7 0 -5 5 5 11 21 12 51 -6 40 -24 -3 -6 -1 -7 5
-3 7 4 17 2 24 -4 7 -5 29 -24 48 -40 19 -16 43 -32 53 -36 9 -3 17 -10 17
-15 0 -5 5 -9 12 -9 6 0 26 -11 44 -25 18 -14 40 -25 49 -25 8 0 18 -7 21 -15
4 -8 12 -15 20 -15 7 0 22 -9 33 -21 11 -12 24 -18 30 -14 6 3 11 1 11 -5 0
-6 5 -8 10 -5 6 3 10 2 10 -3 0 -6 7 -13 16 -16 9 -4 13 -2 8 5 -3 6 5 4 18
-5 14 -9 28 -13 31 -9 4 3 7 1 7 -5 0 -7 14 -10 40 -8 28 3 38 1 33 -7 -3 -7
4 -3 16 8 13 11 26 20 30 20 3 0 5 3 3 7 -1 5 2 8 7 8 6 0 8 9 6 20 -2 11 1
20 7 20 7 0 6 6 -2 15 -10 12 -10 15 0 15 10 0 10 3 1 14 -7 8 -11 20 -11 28
3 18 -11 58 -19 58 -4 0 -7 10 -8 21 -1 12 -10 30 -19 40 -9 11 -14 19 -10 19
4 0 -1 12 -12 28 -10 15 -25 42 -33 60 -8 17 -18 32 -22 32 -5 0 -6 4 -3 9 4
5 2 11 -3 13 -5 1 -11 10 -13 18 -2 8 -11 21 -21 28 -9 7 -15 18 -12 23 4 5 1
9 -4 9 -6 0 -11 5 -11 11 0 7 -7 17 -17 24 -9 7 -13 17 -9 23 10 16 26 15 26
-1z m-140 -60 c0 -8 7 -17 15 -21 8 -3 15 -15 15 -26 0 -12 4 -19 9 -16 8 6
25 -43 21 -60 -1 -4 4 -10 10 -14 7 -4 13 -19 13 -34 0 -14 5 -26 11 -26 6 0
4 -5 -4 -10 -8 -5 -11 -10 -7 -10 4 0 3 -9 -3 -21 -9 -16 -18 -19 -48 -14 -20
3 -43 12 -52 20 -9 8 -24 15 -33 15 -9 0 -17 5 -17 10 0 6 -6 10 -12 10 -7 0
-28 14 -47 30 -18 16 -37 28 -41 25 -4 -3 -10 1 -13 9 -3 8 1 17 9 20 9 3 12
10 9 16 -3 5 0 7 9 4 9 -3 17 2 21 15 3 11 11 20 17 18 6 -1 22 16 34 38 13
22 24 36 24 30 0 -5 8 0 17 12 14 17 19 18 30 8 7 -8 13 -20 13 -28z"/>
</g>
</svg>
