<?xml version="1.0" encoding="UTF-8"?> <svg xmlns="http://www.w3.org/2000/svg" width="1062" height="1062" viewBox="0 0 1062 1062" fill="none"><g clip-path="url(#clip0_47_99)"><mask id="mask0_47_99" style="mask-type:luminance" maskUnits="userSpaceOnUse" x="0" y="0" width="1062" height="1062"><path d="M1062 531C1062 237.737 824.263 0 531 0C237.737 0 0 237.737 0 531C0 824.263 237.737 1062 531 1062C824.263 1062 1062 824.263 1062 531Z" fill="white"></path></mask><g mask="url(#mask0_47_99)"><path d="M530.969 8.73466e-07C635.994 -0.00602168 738.662 31.1322 825.989 89.4769C913.317 147.821 981.38 230.752 1021.58 327.781C1061.77 424.81 1072.29 531.579 1051.8 634.586C1031.31 737.593 980.736 832.211 906.472 906.475C832.211 980.736 737.593 1031.31 634.586 1051.8C531.579 1072.29 424.81 1061.77 327.781 1021.58C230.752 981.38 147.821 913.317 89.4769 825.989C31.1322 738.662 -0.00602168 635.994 8.73466e-07 530.969C8.73463e-07 461.24 13.734 392.197 40.4177 327.776C67.1016 263.356 106.212 204.822 155.517 155.517C204.822 106.212 263.356 67.1013 327.776 40.4177C392.197 13.7339 461.24 8.73466e-07 530.969 8.73466e-07ZM357.736 530.969C357.736 787.579 530.969 995.587 530.969 995.587C530.969 995.587 704.205 787.579 704.205 530.969C704.205 274.361 530.969 66.3825 530.969 66.3825C530.969 66.3825 357.736 274.392 357.736 530.969Z" fill="#4FFFB0"></path></g></g><defs><clipPath id="clip0_47_99"><rect width="1062" height="1062" fill="white"></rect></clipPath></defs></svg> 