<?xml version="1.0" encoding="UTF-8"?> <svg xmlns="http://www.w3.org/2000/svg" width="369" height="497" viewBox="0 0 369 497" fill="none"><path d="M177.501 68.8909C186.115 70.4441 198.669 100.25 201.023 125.347C201.808 130.825 201.023 142.597 201.023 151.213C200.239 164.555 198.669 168.462 193.962 174.757C183.778 189.636 164.963 199.053 140.657 200.623C133.595 201.408 121.842 202.192 115.565 202.192C105.382 201.408 104.597 201.408 106.15 197.484C106.935 195.914 109.288 190.42 110.858 185.712C121.058 154.352 143.795 104.174 155.548 88.4946C163.394 76.7226 172.793 68.0897 177.501 68.8745V68.8909ZM169.655 0.662358C165.732 0.662358 161.04 1.44716 153.979 3.80156C143.795 6.94076 134.38 12.418 125.749 19.4812C113.212 28.8825 111.642 29.6673 110.874 25.7596C110.073 19.4812 99.8894 10.8484 90.474 10.0636C81.075 8.51037 69.3058 13.2028 64.6144 20.266C62.2606 23.4052 55.9837 33.5913 49.7067 43.7937C38.7385 62.5962 34.8317 75.9378 38.7385 83.7858C41.0923 88.4782 40.3077 93.9718 33.2462 127.702C20.7087 188.851 0.324998 315.106 0.324998 339.402C-0.459617 394.289 0.324998 446.036 1.10961 456.239C3.46346 471.918 8.95577 482.889 19.1394 489.952C29.3231 497.016 34.8317 498.585 45.7837 495.446C56.7683 493.092 62.2606 489.168 68.5212 480.551C75.5827 470.349 77.1519 459.378 77.1519 411.554C76.3673 353.512 84.2135 261.772 88.9212 256.278C90.474 255.493 100.674 254.709 112.427 256.278C156.333 260.202 192.392 252.354 219.821 231.966C249.62 210.008 262.158 184.927 264.512 142.58C266.865 86.9086 248.836 37.4989 216.699 12.4017C206.499 5.35481 203.361 4.55366 187.685 2.21561C179.838 0.646011 174.363 -0.122442 169.655 0.662358Z" fill="white"></path><path d="M341.567 236.707C335.307 236.707 329.03 237.475 323.537 240.615C316.492 245.323 311 256.311 311 266.497C311 275.113 318.846 286.1 327.461 290.793C351.767 303.35 377.643 275.113 365.089 251.586C361.166 242.969 350.983 237.475 341.567 236.707Z" fill="#FF8500"></path></svg> 